Akt-0.ufo
<glyph name="exclam" format="2">
  <advance width="320"/>
  <unicode hex="0021"/>
  <outline>
    <contour>
      <point x="150" y="160" type="line"/>
      <point x="170" y="160" type="line"/>
      <point x="170" y="240" type="line"/>
      <point x="170" y="720" type="line"/>
      <point x="150" y="720" type="line"/>
      <point x="150" y="240" type="line"/>
    </contour>
    <component base="period"/>
  </outline>
</glyph>
<glyph name="numbersign" format="2">
  <advance width="600"/>
  <unicode hex="0023"/>
  <outline>
    <contour>
      <point x="107" y="0" type="line"/>
      <point x="129" y="0" type="line"/>
      <point x="162" y="190" type="line"/>
      <point x="380" y="190" type="line"/>
      <point x="347" y="0" type="line"/>
      <point x="369" y="0" type="line"/>
      <point x="402" y="190" type="line"/>
      <point x="536" y="190" type="line"/>
      <point x="536" y="210" type="line"/>
      <point x="405" y="210" type="line"/>
      <point x="457" y="510" type="line"/>
      <point x="580" y="510" type="line"/>
      <point x="580" y="530" type="line"/>
      <point x="460" y="530" type="line"/>
      <point x="493" y="720" type="line"/>
      <point x="471" y="720" type="line"/>
      <point x="438" y="530" type="line"/>
      <point x="220" y="530" type="line"/>
      <point x="253" y="720" type="line"/>
      <point x="231" y="720" type="line"/>
      <point x="198" y="530" type="line"/>
      <point x="64" y="530" type="line"/>
      <point x="64" y="510" type="line"/>
      <point x="195" y="510" type="line"/>
      <point x="143" y="210" type="line"/>
      <point x="20" y="210" type="line"/>
      <point x="20" y="190" type="line"/>
      <point x="140" y="190" type="line"/>
    </contour>
    <contour>
      <point x="165" y="210" type="line"/>
      <point x="217" y="510" type="line"/>
      <point x="435" y="510" type="line"/>
      <point x="383" y="210" type="line"/>
    </contour>
  </outline>
</glyph>
<glyph name="dollar" format="2">
  <advance width="600"/>
  <unicode hex="0024"/>
  <outline>
    <contour>
      <point x="302" y="-12" type="qcurve" smooth="yes"/>
      <point x="354" y="-12"/>
      <point x="434" y="24"/>
      <point x="487" y="99"/>
      <point x="487" y="152" type="qcurve" smooth="yes"/>
      <point x="487" y="182"/>
      <point x="468" y="242"/>
      <point x="417" y="300"/>
      <point x="364" y="337" type="qcurve" smooth="yes"/>
      <point x="240" y="423" type="line" smooth="yes"/>
      <point x="198" y="452"/>
      <point x="153" y="490"/>
      <point x="131" y="543"/>
      <point x="131" y="573" type="qcurve" smooth="yes"/>
      <point x="131" y="621"/>
      <point x="179" y="683"/>
      <point x="252" y="712"/>
      <point x="292" y="712" type="qcurve" smooth="yes"/>
      <point x="340" y="712"/>
      <point x="416" y="679"/>
      <point x="467" y="602"/>
      <point x="467" y="550" type="qcurve"/>
      <point x="487" y="550" type="line"/>
      <point x="487" y="608"/>
      <point x="433" y="693"/>
      <point x="346" y="732"/>
      <point x="292" y="732" type="qcurve" smooth="yes"/>
      <point x="246" y="732"/>
      <point x="167" y="699"/>
      <point x="111" y="629"/>
      <point x="111" y="573" type="qcurve" smooth="yes"/>
      <point x="111" y="537"/>
      <point x="137" y="478"/>
      <point x="184" y="439"/>
      <point x="226" y="409" type="qcurve" smooth="yes"/>
      <point x="352" y="321" type="line" smooth="yes"/>
      <point x="403" y="285"/>
      <point x="449" y="232"/>
      <point x="467" y="182"/>
      <point x="467" y="152" type="qcurve" smooth="yes"/>
      <point x="467" y="108"/>
      <point x="423" y="40"/>
      <point x="346" y="8"/>
      <point x="302" y="8" type="qcurve" smooth="yes"/>
      <point x="249" y="8"/>
      <point x="171" y="44"/>
      <point x="123" y="118"/>
      <point x="123" y="170" type="qcurve"/>
      <point x="103" y="170" type="line"/>
      <point x="103" y="112"/>
      <point x="157" y="28"/>
      <point x="245" y="-12"/>
    </contour>
    <contour>
      <point x="292" y="-100" type="line"/>
      <point x="312" y="-100" type="line"/>
      <point x="312" y="0" type="line"/>
      <point x="292" y="0" type="line"/>
    </contour>
    <contour>
      <point x="292" y="720" type="line"/>
      <point x="312" y="720" type="line"/>
      <point x="312" y="820" type="line"/>
      <point x="292" y="820" type="line"/>
    </contour>
  </outline>
</glyph>
<glyph name="ampersand" format="2">
  <advance width="720"/>
  <unicode hex="0026"/>
  <outline>
    <contour>
      <point x="301" y="-12" type="qcurve" smooth="yes"/>
      <point x="359" y="-12"/>
      <point x="468" y="30"/>
      <point x="556" y="142"/>
      <point x="556" y="238" type="qcurve" smooth="yes"/>
      <point x="556" y="400" type="line"/>
      <point x="536" y="400" type="line"/>
      <point x="536" y="238" type="line" smooth="yes"/>
      <point x="536" y="148"/>
      <point x="452" y="46"/>
      <point x="351" y="8"/>
      <point x="301" y="8" type="qcurve" smooth="yes"/>
      <point x="251" y="8"/>
      <point x="152" y="46"/>
      <point x="94" y="122"/>
      <point x="94" y="174" type="qcurve" smooth="yes"/>
      <point x="94" y="223"/>
      <point x="132" y="297"/>
      <point x="202" y="363"/>
      <point x="250" y="386" type="qcurve" smooth="yes"/>
      <point x="335" y="427"/>
      <point x="406" y="466"/>
      <point x="458" y="534"/>
      <point x="458" y="580" type="qcurve" smooth="yes"/>
      <point x="458" y="618"/>
      <point x="417" y="692"/>
      <point x="340" y="732"/>
      <point x="292" y="732" type="qcurve" smooth="yes"/>
      <point x="244" y="732"/>
      <point x="166" y="694"/>
      <point x="122" y="624"/>
      <point x="122" y="580" type="qcurve" smooth="yes"/>
      <point x="122" y="538"/>
      <point x="156" y="475"/>
      <point x="211" y="410"/>
      <point x="274" y="350" type="qcurve" smooth="yes"/>
      <point x="646" y="0" type="line"/>
      <point x="676" y="0" type="line"/>
      <point x="290" y="363" type="line" smooth="yes"/>
      <point x="227" y="422"/>
      <point x="176" y="483"/>
      <point x="142" y="542"/>
      <point x="142" y="580" type="qcurve" smooth="yes"/>
      <point x="142" y="620"/>
      <point x="182" y="680"/>
      <point x="248" y="712"/>
      <point x="292" y="712" type="qcurve" smooth="yes"/>
      <point x="336" y="712"/>
      <point x="401" y="678"/>
      <point x="438" y="616"/>
      <point x="438" y="580" type="qcurve" smooth="yes"/>
      <point x="438" y="540"/>
      <point x="394" y="482"/>
      <point x="325" y="442"/>
      <point x="240" y="402" type="qcurve" smooth="yes"/>
      <point x="193" y="380"/>
      <point x="116" y="309"/>
      <point x="74" y="231"/>
      <point x="74" y="174" type="qcurve" smooth="yes"/>
      <point x="74" y="116"/>
      <point x="138" y="30"/>
      <point x="243" y="-12"/>
    </contour>
  </outline>
</glyph>
<glyph name="quotesingle" format="2">
  <advance width="290"/>
  <unicode hex="0027"/>
  <outline>
    <contour>
      <point x="135" y="400" type="line"/>
      <point x="155" y="400" type="line"/>
      <point x="155" y="720" type="line"/>
      <point x="135" y="720" type="line"/>
    </contour>
  </outline>
</glyph>
<glyph name="parenleft" format="2">
  <advance width="400"/>
  <unicode hex="0028"/>
  <outline>
    <contour>
      <point x="320" y="-140" type="qcurve"/>
      <point x="320" y="-120" type="line"/>
      <point x="290" y="-120"/>
      <point x="218" y="-58"/>
      <point x="176" y="66"/>
      <point x="160" y="202"/>
      <point x="160" y="278" type="qcurve" smooth="yes"/>
      <point x="160" y="322" type="line" smooth="yes"/>
      <point x="160" y="398"/>
      <point x="176" y="534"/>
      <point x="218" y="658"/>
      <point x="290" y="720"/>
      <point x="320" y="720" type="qcurve"/>
      <point x="320" y="740" type="line"/>
      <point x="282" y="740"/>
      <point x="200" y="670"/>
      <point x="156" y="542"/>
      <point x="140" y="402"/>
      <point x="140" y="322" type="qcurve" smooth="yes"/>
      <point x="140" y="278" type="line" smooth="yes"/>
      <point x="140" y="198"/>
      <point x="156" y="58"/>
      <point x="200" y="-70"/>
      <point x="282" y="-140"/>
    </contour>
  </outline>
</glyph>
<glyph name="asterisk" format="2">
  <advance width="420"/>
  <unicode hex="002A"/>
  <outline>
    <contour>
      <point x="200" y="420" type="line"/>
      <point x="220" y="420" type="line"/>
      <point x="220" y="592" type="line"/>
      <point x="370" y="506" type="line"/>
      <point x="380" y="524" type="line"/>
      <point x="231" y="610" type="line"/>
      <point x="380" y="696" type="line"/>
      <point x="370" y="714" type="line"/>
      <point x="220" y="628" type="line"/>
      <point x="220" y="800" type="line"/>
      <point x="200" y="800" type="line"/>
      <point x="200" y="628" type="line"/>
      <point x="50" y="714" type="line"/>
      <point x="40" y="696" type="line"/>
      <point x="189" y="610" type="line"/>
      <point x="40" y="524" type="line"/>
      <point x="50" y="506" type="line"/>
      <point x="200" y="592" type="line"/>
    </contour>
  </outline>
</glyph>
<glyph name="comma" format="2">
  <advance width="320"/>
  <unicode hex="002C"/>
  <outline>
    <contour>
      <point x="100" y="-200" type="line"/>
      <point x="122" y="-200" type="line"/>
      <point x="189" y="16" type="line"/>
      <point x="167" y="20" type="line"/>
    </contour>
    <component base="period"/>
  </outline>
</glyph>
<glyph name="period" format="2">
  <advance width="320"/>
  <unicode hex="002E"/>
  <outline>
    <contour>
      <point x="160" y="-6" type="qcurve" smooth="yes"/>
      <point x="173" y="-6"/>
      <point x="190" y="11"/>
      <point x="190" y="24" type="qcurve" smooth="yes"/>
      <point x="190" y="37"/>
      <point x="173" y="54"/>
      <point x="160" y="54" type="qcurve" smooth="yes"/>
      <point x="147" y="54"/>
      <point x="130" y="37"/>
      <point x="130" y="24" type="qcurve" smooth="yes"/>
      <point x="130" y="11"/>
      <point x="147" y="-6"/>
    </contour>
  </outline>
</glyph>
<glyph name="slash" format="2">
  <advance width="380"/>
  <unicode hex="002F"/>
  <outline>
    <contour>
      <point x="28" y="-200" type="line"/>
      <point x="50" y="-200" type="line"/>
      <point x="352" y="720" type="line"/>
      <point x="330" y="720" type="line"/>
    </contour>
  </outline>
</glyph>
<glyph name="zero" format="2">
  <advance width="620"/>
  <unicode hex="0030"/>
  <outline>
    <contour>
      <point x="310" y="-12" type="qcurve" smooth="yes"/>
      <point x="388" y="-12"/>
      <point x="491" y="57"/>
      <point x="546" y="166"/>
      <point x="546" y="270" type="qcurve" smooth="yes"/>
      <point x="546" y="450" type="line" smooth="yes"/>
      <point x="546" y="554"/>
      <point x="491" y="663"/>
      <point x="388" y="732"/>
      <point x="310" y="732" type="qcurve" smooth="yes"/>
      <point x="232" y="732"/>
      <point x="129" y="663"/>
      <point x="74" y="554"/>
      <point x="74" y="450" type="qcurve" smooth="yes"/>
      <point x="74" y="270" type="line" smooth="yes"/>
      <point x="74" y="166"/>
      <point x="129" y="57"/>
      <point x="232" y="-12"/>
    </contour>
    <contour>
      <point x="310" y="8" type="qcurve" smooth="yes"/>
      <point x="238" y="8"/>
      <point x="143" y="71"/>
      <point x="94" y="172"/>
      <point x="94" y="270" type="qcurve" smooth="yes"/>
      <point x="94" y="450" type="line" smooth="yes"/>
      <point x="94" y="548"/>
      <point x="143" y="649"/>
      <point x="238" y="712"/>
      <point x="310" y="712" type="qcurve" smooth="yes"/>
      <point x="382" y="712"/>
      <point x="477" y="649"/>
      <point x="526" y="548"/>
      <point x="526" y="450" type="qcurve" smooth="yes"/>
      <point x="526" y="270" type="line" smooth="yes"/>
      <point x="526" y="172"/>
      <point x="477" y="71"/>
      <point x="382" y="8"/>
    </contour>
  </outline>
</glyph>
<glyph name="one" format="2">
  <advance width="440"/>
  <unicode hex="0031"/>
  <outline>
    <contour>
      <point x="230" y="0" type="line"/>
      <point x="250" y="0" type="line"/>
      <point x="250" y="720" type="line"/>
      <point x="230" y="720" type="line"/>
      <point x="50" y="594" type="line"/>
      <point x="50" y="570" type="line"/>
      <point x="230" y="694" type="line"/>
    </contour>
  </outline>
</glyph>
<glyph name="two" format="2">
  <advance width="580"/>
  <unicode hex="0032"/>
  <outline>
    <contour>
      <point x="66" y="0" type="line"/>
      <point x="530" y="0" type="line"/>
      <point x="530" y="20" type="line"/>
      <point x="94" y="20" type="line"/>
      <point x="352" y="279" type="line" smooth="yes"/>
      <point x="403" y="330"/>
      <point x="458" y="400"/>
      <point x="488" y="479"/>
      <point x="488" y="536" type="qcurve" smooth="yes"/>
      <point x="488" y="594"/>
      <point x="430" y="687"/>
      <point x="339" y="732"/>
      <point x="277" y="732" type="qcurve" smooth="yes"/>
      <point x="213" y="732"/>
      <point x="116" y="681"/>
      <point x="66" y="598"/>
      <point x="66" y="550" type="qcurve"/>
      <point x="86" y="550" type="line"/>
      <point x="86" y="592"/>
      <point x="132" y="667"/>
      <point x="219" y="712"/>
      <point x="277" y="712" type="qcurve" smooth="yes"/>
      <point x="333" y="712"/>
      <point x="416" y="671"/>
      <point x="468" y="588"/>
      <point x="468" y="536" type="qcurve" smooth="yes"/>
      <point x="468" y="483"/>
      <point x="440" y="411"/>
      <point x="388" y="344"/>
      <point x="340" y="296" type="qcurve" smooth="yes"/>
      <point x="66" y="18" type="line"/>
    </contour>
  </outline>
</glyph>
<glyph name="three" format="2">
  <advance width="616"/>
  <unicode hex="0033"/>
  <outline>
    <contour>
      <point x="316" y="-12" type="qcurve" smooth="yes"/>
      <point x="384" y="-12"/>
      <point x="480" y="37"/>
      <point x="536" y="130"/>
      <point x="536" y="190" type="qcurve" smooth="yes"/>
      <point x="536" y="251"/>
      <point x="480" y="332"/>
      <point x="402" y="369"/>
      <point x="376" y="371" type="qcurve"/>
      <point x="412" y="378"/>
      <point x="478" y="425"/>
      <point x="518" y="498"/>
      <point x="518" y="540" type="qcurve" smooth="yes"/>
      <point x="518" y="598"/>
      <point x="464" y="686"/>
      <point x="368" y="732"/>
      <point x="306" y="732" type="qcurve" smooth="yes"/>
      <point x="236" y="732"/>
      <point x="133" y="680"/>
      <point x="76" y="600"/>
      <point x="76" y="550" type="qcurve"/>
      <point x="96" y="550" type="line"/>
      <point x="96" y="594"/>
      <point x="149" y="666"/>
      <point x="242" y="712"/>
      <point x="306" y="712" type="qcurve" smooth="yes"/>
      <point x="362" y="712"/>
      <point x="450" y="670"/>
      <point x="498" y="592"/>
      <point x="498" y="540" type="qcurve" smooth="yes"/>
      <point x="498" y="496"/>
      <point x="450" y="423"/>
      <point x="360" y="380"/>
      <point x="300" y="380" type="qcurve" smooth="yes"/>
      <point x="240" y="380" type="line"/>
      <point x="240" y="360" type="line"/>
      <point x="300" y="360" type="line" smooth="yes"/>
      <point x="377" y="360"/>
      <point x="466" y="316"/>
      <point x="516" y="245"/>
      <point x="516" y="190" type="qcurve" smooth="yes"/>
      <point x="516" y="136"/>
      <point x="464" y="51"/>
      <point x="378" y="8"/>
      <point x="316" y="8" type="qcurve" smooth="yes"/>
      <point x="251" y="8"/>
      <point x="161" y="46"/>
      <point x="98" y="119"/>
      <point x="96" y="170" type="qcurve"/>
      <point x="76" y="170" type="line"/>
      <point x="78" y="113"/>
      <point x="147" y="30"/>
      <point x="245" y="-12"/>
    </contour>
  </outline>
</glyph>
<glyph name="four" format="2">
  <advance width="656"/>
  <unicode hex="0034"/>
  <outline>
    <contour>
      <point x="410" y="0" type="line"/>
      <point x="430" y="0" type="line"/>
      <point x="430" y="220" type="line"/>
      <point x="594" y="220" type="line"/>
      <point x="594" y="240" type="line"/>
      <point x="430" y="240" type="line"/>
      <point x="430" y="720" type="line"/>
      <point x="406" y="720" type="line"/>
      <point x="48" y="230" type="line"/>
      <point x="48" y="220" type="line"/>
      <point x="410" y="220" type="line"/>
    </contour>
    <contour>
      <point x="80" y="240" type="line"/>
      <point x="410" y="692" type="line"/>
      <point x="410" y="240" type="line"/>
    </contour>
  </outline>
</glyph>
<glyph name="five" format="2">
  <advance width="610"/>
  <unicode hex="0035"/>
  <outline>
    <contour>
      <point x="303" y="-8" type="qcurve" smooth="yes"/>
      <point x="371" y="-8"/>
      <point x="465" y="48"/>
      <point x="522" y="155"/>
      <point x="522" y="231" type="qcurve" smooth="yes"/>
      <point x="522" y="309"/>
      <point x="457" y="417"/>
      <point x="356" y="462"/>
      <point x="303" y="462" type="qcurve" smooth="yes"/>
      <point x="255" y="462"/>
      <point x="181" y="431"/>
      <point x="138" y="390"/>
      <point x="126" y="370" type="qcurve"/>
      <point x="146" y="700" type="line"/>
      <point x="494" y="700" type="line"/>
      <point x="494" y="720" type="line"/>
      <point x="126" y="720" type="line"/>
      <point x="103" y="334" type="line"/>
      <point x="124" y="334" type="line"/>
      <point x="140" y="366"/>
      <point x="193" y="415"/>
      <point x="261" y="442"/>
      <point x="303" y="442" type="qcurve" smooth="yes"/>
      <point x="353" y="442"/>
      <point x="443" y="401"/>
      <point x="502" y="303"/>
      <point x="502" y="231" type="qcurve" smooth="yes"/>
      <point x="502" y="161"/>
      <point x="451" y="64"/>
      <point x="365" y="12"/>
      <point x="303" y="12" type="qcurve" smooth="yes"/>
      <point x="247" y="12"/>
      <point x="162" y="47"/>
      <point x="108" y="120"/>
      <point x="108" y="170" type="qcurve"/>
      <point x="88" y="170" type="line"/>
      <point x="88" y="114"/>
      <point x="148" y="31"/>
      <point x="241" y="-8"/>
    </contour>
  </outline>
</glyph>
<glyph name="six" format="2">
  <advance width="626"/>
  <unicode hex="0036"/>
  <outline>
    <contour>
      <point x="316" y="-12" type="qcurve" smooth="yes"/>
      <point x="390" y="-12"/>
      <point x="493" y="48"/>
      <point x="546" y="154"/>
      <point x="546" y="228" type="qcurve" smooth="yes"/>
      <point x="546" y="302"/>
      <point x="486" y="399"/>
      <point x="390" y="450"/>
      <point x="316" y="450" type="qcurve" smooth="yes"/>
      <point x="254" y="450"/>
      <point x="171" y="412"/>
      <point x="114" y="348"/>
      <point x="106" y="318" type="qcurve"/>
      <point x="106" y="333" type="line" smooth="yes"/>
      <point x="106" y="467"/>
      <point x="154" y="637"/>
      <point x="249" y="712"/>
      <point x="323" y="712" type="qcurve" smooth="yes"/>
      <point x="380" y="712"/>
      <point x="459" y="669"/>
      <point x="504" y="596"/>
      <point x="504" y="550" type="qcurve"/>
      <point x="524" y="550" type="line"/>
      <point x="524" y="600"/>
      <point x="475" y="685"/>
      <point x="380" y="732"/>
      <point x="323" y="732" type="qcurve" smooth="yes"/>
      <point x="247" y="732"/>
      <point x="138" y="652"/>
      <point x="86" y="473"/>
      <point x="86" y="334" type="qcurve" smooth="yes"/>
      <point x="86" y="228" type="line" smooth="yes"/>
      <point x="86" y="154"/>
      <point x="138" y="52"/>
      <point x="242" y="-12"/>
    </contour>
    <contour>
      <point x="316" y="8" type="qcurve" smooth="yes"/>
      <point x="248" y="8"/>
      <point x="152" y="68"/>
      <point x="106" y="160"/>
      <point x="106" y="228" type="qcurve" smooth="yes"/>
      <point x="106" y="289"/>
      <point x="159" y="378"/>
      <point x="248" y="430"/>
      <point x="316" y="430" type="qcurve" smooth="yes"/>
      <point x="384" y="430"/>
      <point x="472" y="383"/>
      <point x="526" y="296"/>
      <point x="526" y="228" type="qcurve" smooth="yes"/>
      <point x="526" y="160"/>
      <point x="479" y="64"/>
      <point x="384" y="8"/>
    </contour>
  </outline>
</glyph>
<glyph name="seven" format="2">
  <advance width="560"/>
  <unicode hex="0037"/>
  <outline>
    <contour>
      <point x="158" y="0" type="line"/>
      <point x="181" y="0" type="line"/>
      <point x="508" y="704" type="line"/>
      <point x="508" y="720" type="line"/>
      <point x="48" y="720" type="line"/>
      <point x="48" y="700" type="line"/>
      <point x="485" y="700" type="line"/>
    </contour>
  </outline>
</glyph>
<glyph name="eight" format="2">
  <advance width="620"/>
  <unicode hex="0038"/>
  <outline>
    <contour>
      <point x="310" y="-12" type="qcurve" smooth="yes"/>
      <point x="376" y="-12"/>
      <point x="483" y="36"/>
      <point x="542" y="128"/>
      <point x="542" y="184" type="qcurve" smooth="yes"/>
      <point x="542" y="236"/>
      <point x="492" y="320"/>
      <point x="424" y="362"/>
      <point x="388" y="370" type="qcurve"/>
      <point x="408" y="372"/>
      <point x="474" y="412"/>
      <point x="520" y="494"/>
      <point x="520" y="546" type="qcurve" smooth="yes"/>
      <point x="520" y="602"/>
      <point x="468" y="684"/>
      <point x="376" y="732"/>
      <point x="310" y="732" type="qcurve" smooth="yes"/>
      <point x="244" y="732"/>
      <point x="152" y="684"/>
      <point x="100" y="602"/>
      <point x="100" y="546" type="qcurve" smooth="yes"/>
      <point x="100" y="489"/>
      <point x="146" y="412"/>
      <point x="212" y="372"/>
      <point x="232" y="370" type="qcurve"/>
      <point x="196" y="362"/>
      <point x="128" y="320"/>
      <point x="78" y="236"/>
      <point x="78" y="184" type="qcurve" smooth="yes"/>
      <point x="78" y="128"/>
      <point x="132" y="41"/>
      <point x="244" y="-12"/>
    </contour>
    <contour>
      <point x="310" y="8" type="qcurve" smooth="yes"/>
      <point x="250" y="8"/>
      <point x="146" y="57"/>
      <point x="98" y="134"/>
      <point x="98" y="184" type="qcurve" smooth="yes"/>
      <point x="98" y="234"/>
      <point x="150" y="316"/>
      <point x="250" y="360"/>
      <point x="310" y="360" type="qcurve" smooth="yes"/>
      <point x="370" y="360"/>
      <point x="470" y="316"/>
      <point x="522" y="234"/>
      <point x="522" y="184" type="qcurve" smooth="yes"/>
      <point x="522" y="134"/>
      <point x="469" y="52"/>
      <point x="370" y="8"/>
    </contour>
    <contour>
      <point x="310" y="380" type="qcurve" smooth="yes"/>
      <point x="250" y="380"/>
      <point x="162" y="424"/>
      <point x="120" y="499"/>
      <point x="120" y="546" type="qcurve" smooth="yes"/>
      <point x="120" y="596"/>
      <point x="166" y="668"/>
      <point x="250" y="712"/>
      <point x="310" y="712" type="qcurve" smooth="yes"/>
      <point x="370" y="712"/>
      <point x="454" y="668"/>
      <point x="500" y="596"/>
      <point x="500" y="546" type="qcurve" smooth="yes"/>
      <point x="500" y="499"/>
      <point x="458" y="424"/>
      <point x="370" y="380"/>
    </contour>
  </outline>
</glyph>
<glyph name="less" format="2">
  <advance width="600"/>
  <unicode hex="003C"/>
  <outline>
    <contour>
      <point x="520" y="66" type="line"/>
      <point x="520" y="88" type="line"/>
      <point x="102" y="300" type="line"/>
      <point x="520" y="512" type="line"/>
      <point x="520" y="534" type="line"/>
      <point x="80" y="312" type="line"/>
      <point x="80" y="288" type="line"/>
    </contour>
  </outline>
</glyph>
<glyph name="question" format="2">
  <advance width="520"/>
  <unicode hex="003F"/>
  <outline>
    <contour>
      <point x="238" y="160" type="line"/>
      <point x="258" y="160" type="line"/>
      <point x="258" y="220" type="line" smooth="yes"/>
      <point x="259" y="318"/>
      <point x="324" y="381" type="qcurve" smooth="yes"/>
      <point x="378" y="434" type="line" smooth="yes"/>
      <point x="436" y="492"/>
      <point x="436" y="560" type="qcurve" smooth="yes"/>
      <point x="436" y="610"/>
      <point x="402" y="681"/>
      <point x="320" y="732"/>
      <point x="258" y="732" type="qcurve" smooth="yes"/>
      <point x="202" y="732"/>
      <point x="116" y="683"/>
      <point x="74" y="602"/>
      <point x="74" y="550" type="qcurve"/>
      <point x="94" y="550" type="line"/>
      <point x="94" y="596"/>
      <point x="130" y="669"/>
      <point x="208" y="712"/>
      <point x="258" y="712" type="qcurve" smooth="yes"/>
      <point x="313" y="712"/>
      <point x="386" y="667"/>
      <point x="416" y="604"/>
      <point x="416" y="560" type="qcurve" smooth="yes"/>
      <point x="416" y="501"/>
      <point x="366" y="450" type="qcurve" smooth="yes"/>
      <point x="310" y="395" type="line" smooth="yes"/>
      <point x="238" y="326"/>
      <point x="238" y="220" type="qcurve" smooth="yes"/>
    </contour>
    <component base="period" xOffset="90"/>
  </outline>
</glyph>
<glyph name="at" format="2">
  <advance width="960"/>
  <unicode hex="0040"/>
  <outline>
    <contour>
      <point x="480" y="-148" type="qcurve" smooth="yes"/>
      <point x="594" y="-148" type="line"/>
      <point x="594" y="-128" type="line"/>
      <point x="480" y="-128" type="line" smooth="yes"/>
      <point x="352" y="-128"/>
      <point x="166" y="-15"/>
      <point x="70" y="177"/>
      <point x="70" y="293" type="qcurve" smooth="yes"/>
      <point x="70" y="410"/>
      <point x="169" y="601"/>
      <point x="355" y="712"/>
      <point x="480" y="712" type="qcurve" smooth="yes"/>
      <point x="608" y="712"/>
      <point x="793" y="611"/>
      <point x="890" y="423"/>
      <point x="890" y="293" type="qcurve" smooth="yes"/>
      <point x="890" y="238"/>
      <point x="853" y="147"/>
      <point x="790" y="94"/>
      <point x="754" y="94" type="qcurve" smooth="yes"/>
      <point x="705" y="94"/>
      <point x="654" y="165"/>
      <point x="654" y="231" type="qcurve" smooth="yes"/>
      <point x="654" y="494" type="line"/>
      <point x="634" y="494" type="line"/>
      <point x="634" y="403" type="line"/>
      <point x="622" y="451"/>
      <point x="528" y="512"/>
      <point x="464" y="512" type="qcurve" smooth="yes"/>
      <point x="376" y="512"/>
      <point x="272" y="393"/>
      <point x="272" y="293" type="qcurve" smooth="yes"/>
      <point x="272" y="193"/>
      <point x="376" y="74"/>
      <point x="464" y="74" type="qcurve" smooth="yes"/>
      <point x="532" y="74"/>
      <point x="625" y="139"/>
      <point x="638" y="193" type="qcurve"/>
      <point x="640" y="137"/>
      <point x="701" y="74"/>
      <point x="754" y="74" type="qcurve" smooth="yes"/>
      <point x="798" y="74"/>
      <point x="869" y="129"/>
      <point x="910" y="228"/>
      <point x="910" y="293" type="qcurve" smooth="yes"/>
      <point x="910" y="424"/>
      <point x="812" y="622"/>
      <point x="619" y="732"/>
      <point x="480" y="732" type="qcurve" smooth="yes"/>
      <point x="352" y="732"/>
      <point x="157" y="618"/>
      <point x="50" y="418"/>
      <point x="50" y="293" type="qcurve" smooth="yes"/>
      <point x="50" y="163"/>
      <point x="157" y="-37"/>
      <point x="352" y="-148"/>
    </contour>
    <contour>
      <point x="464" y="94" type="qcurve" smooth="yes"/>
      <point x="385" y="94"/>
      <point x="292" y="202"/>
      <point x="292" y="293" type="qcurve" smooth="yes"/>
      <point x="292" y="384"/>
      <point x="385" y="492"/>
      <point x="464" y="492" type="qcurve" smooth="yes"/>
      <point x="547" y="492"/>
      <point x="636" y="389"/>
      <point x="636" y="293" type="qcurve" smooth="yes"/>
      <point x="636" y="200"/>
      <point x="545" y="94"/>
    </contour>
  </outline>
</glyph>
<glyph name="A" format="2">
  <advance width="700"/>
  <unicode hex="0041"/>
  <anchor x="350" y="720" name="top"/>
  <anchor x="350" y="0" name="bottom"/>
  <anchor x="646" y="0" name="ogonek"/>
  <outline>
    <contour>
      <point x="154" y="220" type="line"/>
      <point x="556" y="220" type="line"/>
      <point x="548" y="240" type="line"/>
      <point x="162" y="240" type="line"/>
    </contour>
    <component base="V" xScale="-1.0" yScale="-1.0" xOffset="700" yOffset="720"/>
  </outline>
</glyph>
<glyph name="B" format="2">
  <advance width="666"/>
  <unicode hex="0042"/>
  <anchor x="312" y="0" name="bottom"/>
  <anchor x="312" y="720" name="top"/>
  <outline>
    <contour>
      <point x="104" y="0" type="line"/>
      <point x="390" y="0" type="line" smooth="yes"/>
      <point x="454" y="0"/>
      <point x="544" y="48"/>
      <point x="592" y="130"/>
      <point x="592" y="188" type="qcurve" smooth="yes"/>
      <point x="592" y="234"/>
      <point x="562" y="302"/>
      <point x="507" y="353"/>
      <point x="468" y="366" type="qcurve"/>
      <point x="500" y="374"/>
      <point x="555" y="422"/>
      <point x="582" y="490"/>
      <point x="582" y="538" type="qcurve" smooth="yes"/>
      <point x="582" y="597"/>
      <point x="534" y="677"/>
      <point x="454" y="720"/>
      <point x="390" y="720" type="qcurve" smooth="yes"/>
      <point x="104" y="720" type="line"/>
    </contour>
    <contour>
      <point x="124" y="20" type="line"/>
      <point x="124" y="356" type="line"/>
      <point x="390" y="356" type="line" smooth="yes"/>
      <point x="446" y="356"/>
      <point x="526" y="316"/>
      <point x="572" y="236"/>
      <point x="572" y="188" type="qcurve" smooth="yes"/>
      <point x="572" y="141"/>
      <point x="530" y="64"/>
      <point x="446" y="20"/>
      <point x="390" y="20" type="qcurve" smooth="yes"/>
    </contour>
    <contour>
      <point x="124" y="376" type="line"/>
      <point x="124" y="700" type="line"/>
      <point x="390" y="700" type="line" smooth="yes"/>
      <point x="446" y="700"/>
      <point x="520" y="661"/>
      <point x="562" y="591"/>
      <point x="562" y="538" type="qcurve" smooth="yes"/>
      <point x="562" y="496"/>
      <point x="532" y="424"/>
      <point x="459" y="376"/>
      <point x="402" y="376" type="qcurve" smooth="yes"/>
    </contour>
  </outline>
</glyph>
<glyph name="C" format="2">
  <advance width="680"/>
  <unicode hex="0043"/>
  <anchor x="366" y="0" name="bottom"/>
  <anchor x="366" y="720" name="top"/>
  <outline>
    <contour>
      <point x="370" y="-12" type="qcurve" smooth="yes"/>
      <point x="450" y="-12"/>
      <point x="550" y="44"/>
      <point x="610" y="132"/>
      <point x="610" y="170" type="qcurve"/>
      <point x="590" y="170" type="line"/>
      <point x="590" y="138"/>
      <point x="536" y="60"/>
      <point x="444" y="8"/>
      <point x="370" y="8" type="qcurve" smooth="yes"/>
      <point x="292" y="8"/>
      <point x="166" y="80"/>
      <point x="92" y="238"/>
      <point x="92" y="360" type="qcurve" smooth="yes"/>
      <point x="92" y="482"/>
      <point x="166" y="640"/>
      <point x="292" y="712"/>
      <point x="370" y="712" type="qcurve" smooth="yes"/>
      <point x="444" y="712"/>
      <point x="536" y="660"/>
      <point x="590" y="582"/>
      <point x="590" y="550" type="qcurve"/>
      <point x="610" y="550" type="line"/>
      <point x="610" y="588"/>
      <point x="550" y="676"/>
      <point x="450" y="732"/>
      <point x="370" y="732" type="qcurve" smooth="yes"/>
      <point x="286" y="732"/>
      <point x="150" y="654"/>
      <point x="72" y="488"/>
      <point x="72" y="360" type="qcurve" smooth="yes"/>
      <point x="72" y="232"/>
      <point x="150" y="66"/>
      <point x="286" y="-12"/>
    </contour>
  </outline>
</glyph>
<glyph name="D" format="2">
  <advance width="680"/>
  <unicode hex="0044"/>
  <anchor x="320" y="0" name="bottom"/>
  <anchor x="190" y="360" name="center"/>
  <anchor x="320" y="720" name="top"/>
  <outline>
    <contour>
      <point x="104" y="0" type="line"/>
      <point x="248" y="0" type="line" smooth="yes"/>
      <point x="402" y="0"/>
      <point x="544" y="96"/>
      <point x="608" y="254"/>
      <point x="608" y="360" type="qcurve" smooth="yes"/>
      <point x="608" y="466"/>
      <point x="544" y="624"/>
      <point x="402" y="720"/>
      <point x="248" y="720" type="qcurve" smooth="yes"/>
      <point x="104" y="720" type="line"/>
    </contour>
    <contour>
      <point x="124" y="20" type="line"/>
      <point x="124" y="700" type="line"/>
      <point x="248" y="700" type="line" smooth="yes"/>
      <point x="396" y="700"/>
      <point x="528" y="610"/>
      <point x="588" y="460"/>
      <point x="588" y="360" type="qcurve" smooth="yes"/>
      <point x="588" y="260"/>
      <point x="528" y="110"/>
      <point x="396" y="20"/>
      <point x="248" y="20" type="qcurve" smooth="yes"/>
    </contour>
  </outline>
</glyph>
<glyph name="E" format="2">
  <advance width="568"/>
  <unicode hex="0045"/>
  <anchor x="304" y="0" name="bottom"/>
  <anchor x="508" y="0" name="ogonek"/>
  <anchor x="304" y="720" name="top"/>
  <outline>
    <contour>
      <point x="104" y="0" type="line"/>
      <point x="514" y="0" type="line"/>
      <point x="514" y="20" type="line"/>
      <point x="124" y="20" type="line"/>
      <point x="124" y="360" type="line"/>
      <point x="494" y="360" type="line"/>
      <point x="494" y="380" type="line"/>
      <point x="124" y="380" type="line"/>
      <point x="124" y="700" type="line"/>
      <point x="514" y="700" type="line"/>
      <point x="514" y="720" type="line"/>
      <point x="104" y="720" type="line"/>
    </contour>
  </outline>
</glyph>
<glyph name="F" format="2">
  <advance width="554"/>
  <unicode hex="0046"/>
  <anchor x="298" y="720" name="top"/>
  <outline>
    <contour>
      <point x="104" y="0" type="line"/>
      <point x="124" y="0" type="line"/>
      <point x="124" y="700" type="line"/>
      <point x="502" y="700" type="line"/>
      <point x="502" y="720" type="line"/>
      <point x="104" y="720" type="line"/>
    </contour>
    <contour>
      <point x="124" y="360" type="line"/>
      <point x="482" y="360" type="line"/>
      <point x="482" y="380" type="line"/>
      <point x="124" y="380" type="line"/>
    </contour>
  </outline>
</glyph>
<glyph name="G" format="2">
  <advance width="740"/>
  <unicode hex="0047"/>
  <anchor x="378" y="0" name="bottom"/>
  <anchor x="550" y="210" name="center"/>
  <anchor x="378" y="720" name="top"/>
  <outline>
    <contour>
      <point x="382" y="-12" type="qcurve" smooth="yes"/>
      <point x="488" y="-12"/>
      <point x="616" y="85"/>
      <point x="668" y="246"/>
      <point x="668" y="344" type="qcurve"/>
      <point x="668" y="354"/>
      <point x="667" y="362" type="qcurve"/>
      <point x="370" y="362" type="line"/>
      <point x="370" y="342" type="line"/>
      <point x="648" y="342" type="line"/>
      <point x="648" y="252"/>
      <point x="600" y="99"/>
      <point x="482" y="8"/>
      <point x="382" y="8" type="qcurve" smooth="yes"/>
      <point x="284" y="8"/>
      <point x="156" y="102"/>
      <point x="92" y="260"/>
      <point x="92" y="360" type="qcurve" smooth="yes"/>
      <point x="92" y="460"/>
      <point x="156" y="620"/>
      <point x="288" y="712"/>
      <point x="382" y="712" type="qcurve" smooth="yes"/>
      <point x="450" y="712"/>
      <point x="556" y="669"/>
      <point x="622" y="582"/>
      <point x="622" y="550" type="qcurve"/>
      <point x="642" y="550" type="line"/>
      <point x="642" y="588"/>
      <point x="570" y="685"/>
      <point x="456" y="732"/>
      <point x="382" y="732" type="qcurve" smooth="yes"/>
      <point x="282" y="732"/>
      <point x="140" y="634"/>
      <point x="72" y="466"/>
      <point x="72" y="360" type="qcurve" smooth="yes"/>
      <point x="72" y="254"/>
      <point x="140" y="86"/>
      <point x="278" y="-12"/>
    </contour>
  </outline>
</glyph>
<glyph name="H" format="2">
  <advance width="680"/>
  <unicode hex="0048"/>
  <anchor x="340" y="0" name="bottom"/>
  <anchor x="340" y="720" name="top"/>
  <outline>
    <contour>
      <point x="104" y="0" type="line"/>
      <point x="124" y="0" type="line"/>
      <point x="124" y="360" type="line"/>
      <point x="556" y="360" type="line"/>
      <point x="556" y="0" type="line"/>
      <point x="576" y="0" type="line"/>
      <point x="576" y="720" type="line"/>
      <point x="556" y="720" type="line"/>
      <point x="556" y="380" type="line"/>
      <point x="124" y="380" type="line"/>
      <point x="124" y="720" type="line"/>
      <point x="104" y="720" type="line"/>
    </contour>
  </outline>
</glyph>
<glyph name="I" format="2">
  <advance width="270"/>
  <unicode hex="0049"/>
  <anchor x="135" y="0" name="bottom"/>
  <anchor x="139" y="0" name="ogonek"/>
  <anchor x="135" y="720" name="top"/>
  <outline>
    <contour>
      <point x="125" y="0" type="line"/>
      <point x="145" y="0" type="line"/>
      <point x="145" y="720" type="line"/>
      <point x="125" y="720" type="line"/>
    </contour>
  </outline>
</glyph>
<glyph name="J" format="2">
  <advance width="546"/>
  <unicode hex="004A"/>
  <anchor x="250" y="0" name="bottom"/>
  <anchor x="436" y="720" name="top"/>
  <outline>
    <contour>
      <point x="252" y="-4" type="qcurve" smooth="yes"/>
      <point x="320" y="-4"/>
      <point x="403" y="49"/>
      <point x="448" y="144"/>
      <point x="448" y="232" type="qcurve" smooth="yes"/>
      <point x="448" y="720" type="line"/>
      <point x="428" y="720" type="line"/>
      <point x="428" y="232" type="line" smooth="yes"/>
      <point x="428" y="150"/>
      <point x="389" y="65"/>
      <point x="314" y="16"/>
      <point x="252" y="16" type="qcurve" smooth="yes"/>
      <point x="194" y="16"/>
      <point x="118" y="54"/>
      <point x="74" y="124"/>
      <point x="74" y="170" type="qcurve"/>
      <point x="54" y="170" type="line"/>
      <point x="54" y="118"/>
      <point x="104" y="38"/>
      <point x="188" y="-4"/>
    </contour>
  </outline>
</glyph>
<glyph name="K" format="2">
  <advance width="660"/>
  <unicode hex="004B"/>
  <anchor x="302" y="0" name="bottom"/>
  <anchor x="302" y="720" name="top"/>
  <outline>
    <contour>
      <point x="104" y="0" type="line"/>
      <point x="124" y="0" type="line"/>
      <point x="124" y="278" type="line"/>
      <point x="280" y="423" type="line"/>
      <point x="582" y="0" type="line"/>
      <point x="606" y="0" type="line"/>
      <point x="295" y="438" type="line"/>
      <point x="606" y="720" type="line"/>
      <point x="580" y="720" type="line"/>
      <point x="124" y="304" type="line"/>
      <point x="124" y="720" type="line"/>
      <point x="104" y="720" type="line"/>
    </contour>
  </outline>
</glyph>
<glyph name="L" format="2">
  <advance width="520"/>
  <unicode hex="004C"/>
  <anchor x="280" y="0" name="bottom"/>
  <anchor x="346" y="360" name="dot"/>
  <anchor x="140" y="720" name="top"/>
  <anchor x="390" y="720" name="topright"/>
  <outline>
    <contour>
      <point x="104" y="0" type="line"/>
      <point x="480" y="0" type="line"/>
      <point x="480" y="20" type="line"/>
      <point x="124" y="20" type="line"/>
      <point x="124" y="720" type="line"/>
      <point x="104" y="720" type="line"/>
    </contour>
  </outline>
</glyph>
<glyph name="M" format="2">
  <advance width="840"/>
  <unicode hex="004D"/>
  <anchor x="420" y="0" name="bottom"/>
  <anchor x="420" y="720" name="top"/>
  <outline>
    <contour>
      <point x="104" y="0" type="line"/>
      <point x="124" y="0" type="line"/>
      <point x="124" y="696" type="line"/>
      <point x="410" y="0" type="line"/>
      <point x="432" y="0" type="line"/>
      <point x="716" y="696" type="line"/>
      <point x="716" y="0" type="line"/>
      <point x="736" y="0" type="line"/>
      <point x="736" y="720" type="line"/>
      <point x="704" y="720" type="line"/>
      <point x="422" y="24" type="line"/>
      <point x="136" y="720" type="line"/>
      <point x="104" y="720" type="line"/>
    </contour>
  </outline>
</glyph>
<glyph name="N" format="2">
  <advance width="694"/>
  <unicode hex="004E"/>
  <anchor x="346" y="0" name="bottom"/>
  <anchor x="346" y="720" name="top"/>
  <outline>
    <contour>
      <point x="104" y="0" type="line"/>
      <point x="124" y="0" type="line"/>
      <point x="124" y="694" type="line"/>
      <point x="563" y="0" type="line"/>
      <point x="590" y="0" type="line"/>
      <point x="590" y="720" type="line"/>
      <point x="570" y="720" type="line"/>
      <point x="570" y="26" type="line"/>
      <point x="131" y="720" type="line"/>
      <point x="104" y="720" type="line"/>
    </contour>
  </outline>
</glyph>
<glyph name="O" format="2">
  <advance width="760"/>
  <unicode hex="004F"/>
  <anchor x="380" y="0" name="bottom"/>
  <anchor x="477" y="10" name="ogonek"/>
  <anchor x="380" y="720" name="top"/>
  <anchor x="10" y="720" name="topleft"/>
  <outline>
    <contour>
      <point x="380" y="-12" type="qcurve" smooth="yes"/>
      <point x="476" y="-12"/>
      <point x="620" y="88"/>
      <point x="688" y="256"/>
      <point x="688" y="360" type="qcurve" smooth="yes"/>
      <point x="688" y="464"/>
      <point x="620" y="632"/>
      <point x="476" y="732"/>
      <point x="380" y="732" type="qcurve" smooth="yes"/>
      <point x="284" y="732"/>
      <point x="140" y="632"/>
      <point x="72" y="464"/>
      <point x="72" y="360" type="qcurve" smooth="yes"/>
      <point x="72" y="256"/>
      <point x="140" y="88"/>
      <point x="284" y="-12"/>
    </contour>
    <contour>
      <point x="380" y="8" type="qcurve" smooth="yes"/>
      <point x="290" y="8"/>
      <point x="156" y="102"/>
      <point x="92" y="262"/>
      <point x="92" y="360" type="qcurve" smooth="yes"/>
      <point x="92" y="458"/>
      <point x="156" y="618"/>
      <point x="290" y="712"/>
      <point x="380" y="712" type="qcurve" smooth="yes"/>
      <point x="470" y="712"/>
      <point x="604" y="618"/>
      <point x="668" y="458"/>
      <point x="668" y="360" type="qcurve" smooth="yes"/>
      <point x="668" y="262"/>
      <point x="604" y="102"/>
      <point x="470" y="8"/>
    </contour>
  </outline>
</glyph>
<glyph name="P" format="2">
  <advance width="660"/>
  <unicode hex="0050"/>
  <anchor x="318" y="0" name="bottom"/>
  <anchor x="318" y="720" name="top"/>
  <outline>
    <contour>
      <point x="104" y="0" type="line"/>
      <point x="124" y="0" type="line"/>
      <point x="124" y="296" type="line"/>
      <point x="362" y="296" type="line" smooth="yes"/>
      <point x="438" y="296"/>
      <point x="544" y="346"/>
      <point x="606" y="442"/>
      <point x="606" y="508" type="qcurve" smooth="yes"/>
      <point x="606" y="574"/>
      <point x="544" y="670"/>
      <point x="438" y="720"/>
      <point x="362" y="720" type="qcurve" smooth="yes"/>
      <point x="104" y="720" type="line"/>
    </contour>
    <contour>
      <point x="124" y="316" type="line"/>
      <point x="124" y="700" type="line"/>
      <point x="360" y="700" type="line" smooth="yes"/>
      <point x="430" y="700"/>
      <point x="528" y="656"/>
      <point x="586" y="568"/>
      <point x="586" y="508" type="qcurve" smooth="yes"/>
      <point x="586" y="448"/>
      <point x="528" y="360"/>
      <point x="430" y="316"/>
      <point x="360" y="316" type="qcurve" smooth="yes"/>
    </contour>
  </outline>
</glyph>
<glyph name="Q" format="2">
  <advance width="760"/>
  <unicode hex="0051"/>
  <anchor x="385" y="0" name="bottom"/>
  <anchor x="483" y="10" name="ogonek"/>
  <anchor x="385" y="720" name="top"/>
  <anchor x="7" y="720" name="topleft"/>
  <outline>
    <contour>
      <point x="637" y="-120" type="line"/>
      <point x="663" y="-120" type="line"/>
      <point x="543" y="48" type="line"/>
      <point x="525" y="37" type="line"/>
    </contour>
    <component base="O"/>
  </outline>
</glyph>
<glyph name="R" format="2">
  <advance width="680"/>
  <unicode hex="0052"/>
  <anchor x="306" y="0" name="bottom"/>
  <anchor x="306" y="720" name="top"/>
  <outline>
    <contour>
      <point x="104" y="0" type="line"/>
      <point x="124" y="0" type="line"/>
      <point x="124" y="332" type="line"/>
      <point x="361" y="332" type="line"/>
      <point x="591" y="0" type="line"/>
      <point x="616" y="0" type="line"/>
      <point x="386" y="332" type="line"/>
      <point x="458" y="332"/>
      <point x="545" y="378"/>
      <point x="598" y="472"/>
      <point x="598" y="526" type="qcurve" smooth="yes"/>
      <point x="598" y="588"/>
      <point x="545" y="674"/>
      <point x="458" y="720"/>
      <point x="386" y="720" type="qcurve" smooth="yes"/>
      <point x="104" y="720" type="line"/>
    </contour>
    <contour>
      <point x="124" y="352" type="line"/>
      <point x="124" y="700" type="line"/>
      <point x="386" y="700" type="line" smooth="yes"/>
      <point x="452" y="700"/>
      <point x="529" y="660"/>
      <point x="578" y="582"/>
      <point x="578" y="526" type="qcurve" smooth="yes"/>
      <point x="578" y="478"/>
      <point x="529" y="392"/>
      <point x="452" y="352"/>
      <point x="386" y="352" type="qcurve" smooth="yes"/>
    </contour>
  </outline>
</glyph>
<glyph name="S" format="2">
  <advance width="640"/>
  <unicode hex="0053"/>
  <anchor x="320" y="0" name="bottom"/>
  <anchor x="320" y="720" name="top"/>
  <outline>
    <contour>
      <point x="326" y="-12" type="qcurve" smooth="yes"/>
      <point x="398" y="-12"/>
      <point x="497" y="27"/>
      <point x="560" y="120"/>
      <point x="560" y="186" type="qcurve" smooth="yes"/>
      <point x="560" y="238"/>
      <point x="529" y="311"/>
      <point x="447" y="366"/>
      <point x="362" y="375" type="qcurve" smooth="yes"/>
      <point x="282" y="385" type="line" smooth="yes"/>
      <point x="204" y="395"/>
      <point x="136" y="442"/>
      <point x="108" y="500"/>
      <point x="108" y="546" type="qcurve" smooth="yes"/>
      <point x="108" y="598"/>
      <point x="159" y="670"/>
      <point x="248" y="712"/>
      <point x="312" y="712" type="qcurve"/>
      <point x="374" y="712"/>
      <point x="461" y="674"/>
      <point x="518" y="594"/>
      <point x="518" y="550" type="qcurve"/>
      <point x="538" y="550" type="line"/>
      <point x="538" y="602"/>
      <point x="475" y="690"/>
      <point x="380" y="732"/>
      <point x="312" y="732" type="qcurve" smooth="yes"/>
      <point x="242" y="732"/>
      <point x="145" y="686"/>
      <point x="88" y="604"/>
      <point x="88" y="546" type="qcurve" smooth="yes"/>
      <point x="88" y="492"/>
      <point x="122" y="426"/>
      <point x="198" y="375"/>
      <point x="278" y="365" type="qcurve" smooth="yes"/>
      <point x="358" y="355" type="line" smooth="yes"/>
      <point x="439" y="345"/>
      <point x="513" y="297"/>
      <point x="540" y="232"/>
      <point x="540" y="186" type="qcurve" smooth="yes"/>
      <point x="540" y="126"/>
      <point x="483" y="43"/>
      <point x="392" y="8"/>
      <point x="326" y="8" type="qcurve" smooth="yes"/>
      <point x="260" y="8"/>
      <point x="163" y="39"/>
      <point x="100" y="112"/>
      <point x="100" y="170" type="qcurve"/>
      <point x="80" y="170" type="line"/>
      <point x="80" y="106"/>
      <point x="149" y="23"/>
      <point x="254" y="-12"/>
    </contour>
  </outline>
</glyph>
<glyph name="U" format="2">
  <advance width="680"/>
  <unicode hex="0055"/>
  <anchor x="340" y="0" name="bottom"/>
  <anchor x="391" y="0" name="ogonek"/>
  <anchor x="340" y="720" name="top"/>
  <outline>
    <contour>
      <point x="340" y="-12" type="qcurve" smooth="yes"/>
      <point x="424" y="-12"/>
      <point x="527" y="51"/>
      <point x="582" y="154"/>
      <point x="582" y="240" type="qcurve" smooth="yes"/>
      <point x="582" y="720" type="line"/>
      <point x="562" y="720" type="line"/>
      <point x="562" y="240" type="line" smooth="yes"/>
      <point x="562" y="160"/>
      <point x="513" y="65"/>
      <point x="418" y="8"/>
      <point x="340" y="8" type="qcurve" smooth="yes"/>
      <point x="262" y="8"/>
      <point x="167" y="65"/>
      <point x="118" y="160"/>
      <point x="118" y="240" type="qcurve" smooth="yes"/>
      <point x="118" y="720" type="line"/>
      <point x="98" y="720" type="line"/>
      <point x="98" y="240" type="line" smooth="yes"/>
      <point x="98" y="154"/>
      <point x="153" y="51"/>
      <point x="256" y="-12"/>
    </contour>
  </outline>
</glyph>
<glyph name="V" format="2">
  <advance width="700"/>
  <unicode hex="0056"/>
  <anchor x="350" y="0" name="bottom"/>
  <anchor x="350" y="720" name="top"/>
  <outline>
    <contour>
      <point x="336" y="0" type="line"/>
      <point x="364" y="0" type="line"/>
      <point x="652" y="720" type="line"/>
      <point x="630" y="720" type="line"/>
      <point x="350" y="24" type="line"/>
      <point x="70" y="720" type="line"/>
      <point x="48" y="720" type="line"/>
    </contour>
  </outline>
</glyph>
<glyph name="W" format="2">
  <advance width="940"/>
  <unicode hex="0057"/>
  <anchor x="470" y="0" name="bottom"/>
  <anchor x="470" y="720" name="top"/>
  <outline>
    <contour>
      <point x="252" y="0" type="line"/>
      <point x="280" y="0" type="line"/>
      <point x="470" y="688" type="line"/>
      <point x="660" y="0" type="line"/>
      <point x="688" y="0" type="line"/>
      <point x="900" y="720" type="line"/>
      <point x="879" y="720" type="line"/>
      <point x="674" y="22" type="line"/>
      <point x="480" y="720" type="line"/>
      <point x="460" y="720" type="line"/>
      <point x="266" y="22" type="line"/>
      <point x="61" y="720" type="line"/>
      <point x="40" y="720" type="line"/>
    </contour>
  </outline>
</glyph>
<glyph name="X" format="2">
  <advance width="660"/>
  <unicode hex="0058"/>
  <anchor x="330" y="0" name="bottom"/>
  <anchor x="330" y="720" name="top"/>
  <outline>
    <contour>
      <point x="50" y="0" type="line"/>
      <point x="76" y="0" type="line"/>
      <point x="330" y="354" type="line"/>
      <point x="584" y="0" type="line"/>
      <point x="610" y="0" type="line"/>
      <point x="344" y="368" type="line"/>
      <point x="596" y="720" type="line"/>
      <point x="570" y="720" type="line"/>
      <point x="330" y="382" type="line"/>
      <point x="90" y="720" type="line"/>
      <point x="64" y="720" type="line"/>
      <point x="316" y="368" type="line"/>
    </contour>
  </outline>
</glyph>
<glyph name="Y" format="2">
  <advance width="660"/>
  <unicode hex="0059"/>
  <anchor x="330" y="0" name="bottom"/>
  <anchor x="330" y="720" name="top"/>
  <outline>
    <contour>
      <point x="320" y="0" type="line"/>
      <point x="340" y="0" type="line"/>
      <point x="340" y="278" type="line"/>
      <point x="612" y="720" type="line"/>
      <point x="589" y="720" type="line"/>
      <point x="331" y="300" type="line"/>
      <point x="71" y="720" type="line"/>
      <point x="48" y="720" type="line"/>
      <point x="320" y="278" type="line"/>
    </contour>
  </outline>
</glyph>
<glyph name="Z" format="2">
  <advance width="630"/>
  <unicode hex="005A"/>
  <anchor x="309" y="0" name="bottom"/>
  <anchor x="309" y="720" name="top"/>
  <outline>
    <contour>
      <point x="60" y="0" type="line"/>
      <point x="570" y="0" type="line"/>
      <point x="570" y="20" type="line"/>
      <point x="92" y="20" type="line"/>
      <point x="560" y="712" type="line"/>
      <point x="560" y="720" type="line"/>
      <point x="70" y="720" type="line"/>
      <point x="70" y="700" type="line"/>
      <point x="528" y="700" type="line"/>
      <point x="60" y="8" type="line"/>
    </contour>
  </outline>
</glyph>
<glyph name="bracketleft" format="2">
  <advance width="400"/>
  <unicode hex="005B"/>
  <outline>
    <contour>
      <point x="120" y="-140" type="line"/>
      <point x="320" y="-140" type="line"/>
      <point x="320" y="-120" type="line"/>
      <point x="140" y="-120" type="line"/>
      <point x="140" y="720" type="line"/>
      <point x="320" y="720" type="line"/>
      <point x="320" y="740" type="line"/>
      <point x="120" y="740" type="line"/>
    </contour>
  </outline>
</glyph>
<glyph name="asciicircum" format="2">
  <advance width="600"/>
  <unicode hex="005E"/>
  <outline>
    <contour>
      <point x="100" y="400" type="line"/>
      <point x="124" y="400" type="line"/>
      <point x="300" y="702" type="line"/>
      <point x="476" y="400" type="line"/>
      <point x="500" y="400" type="line"/>
      <point x="310" y="720" type="line"/>
      <point x="290" y="720" type="line"/>
    </contour>
  </outline>
</glyph>
<glyph name="underscore" format="2">
  <advance width="600"/>
  <unicode hex="005F"/>
  <outline>
    <contour>
      <point x="40" y="-60" type="line"/>
      <point x="560" y="-60" type="line"/>
      <point x="560" y="-40" type="line"/>
      <point x="40" y="-40" type="line"/>
    </contour>
  </outline>
</glyph>
<glyph name="a" format="2">
  <advance width="520"/>
  <unicode hex="0061"/>
  <anchor x="254" y="0" name="bottom"/>
  <anchor x="432" y="0" name="ogonek"/>
  <anchor x="254" y="500" name="top"/>
  <outline>
    <contour>
      <point x="208" y="-6" type="qcurve" smooth="yes"/>
      <point x="252" y="-6"/>
      <point x="320" y="20"/>
      <point x="382" y="76"/>
      <point x="402" y="124" type="qcurve"/>
      <point x="402" y="50"/>
      <point x="423" y="0" type="qcurve"/>
      <point x="444" y="0" type="line"/>
      <point x="422" y="54"/>
      <point x="422" y="140" type="qcurve" smooth="yes"/>
      <point x="422" y="342" type="line" smooth="yes"/>
      <point x="422" y="404"/>
      <point x="386" y="474"/>
      <point x="304" y="512"/>
      <point x="254" y="512" type="qcurve" smooth="yes"/>
      <point x="208" y="512"/>
      <point x="130" y="480"/>
      <point x="86" y="418"/>
      <point x="86" y="370" type="qcurve"/>
      <point x="106" y="370" type="line"/>
      <point x="106" y="412"/>
      <point x="145" y="466"/>
      <point x="212" y="492"/>
      <point x="254" y="492" type="qcurve" smooth="yes"/>
      <point x="300" y="492"/>
      <point x="371" y="460"/>
      <point x="402" y="397"/>
      <point x="402" y="338" type="qcurve" smooth="yes"/>
      <point x="402" y="220" type="line" smooth="yes"/>
      <point x="402" y="162"/>
      <point x="352" y="68"/>
      <point x="264" y="14"/>
      <point x="208" y="14" type="qcurve" smooth="yes"/>
      <point x="164" y="14"/>
      <point x="107" y="43"/>
      <point x="78" y="96"/>
      <point x="78" y="130" type="qcurve" smooth="yes"/>
      <point x="78" y="180"/>
      <point x="128" y="240"/>
      <point x="208" y="260"/>
      <point x="288" y="260" type="qcurve" smooth="yes"/>
      <point x="412" y="260" type="line"/>
      <point x="412" y="280" type="line"/>
      <point x="288" y="280" type="line" smooth="yes"/>
      <point x="204" y="280"/>
      <point x="115" y="256"/>
      <point x="58" y="186"/>
      <point x="58" y="130" type="qcurve" smooth="yes"/>
      <point x="58" y="90"/>
      <point x="92" y="28"/>
      <point x="159" y="-6"/>
    </contour>
  </outline>
</glyph>
<glyph name="b" format="2">
  <advance width="584"/>
  <unicode hex="0062"/>
  <anchor x="306" y="0" name="bottom"/>
  <anchor x="306" y="500" name="top"/>
  <outline>
    <contour>
      <point x="308" y="-12" type="qcurve" smooth="yes"/>
      <point x="374" y="-12"/>
      <point x="463" y="50"/>
      <point x="516" y="164"/>
      <point x="516" y="250" type="qcurve" smooth="yes"/>
      <point x="516" y="336"/>
      <point x="463" y="450"/>
      <point x="374" y="512"/>
      <point x="308" y="512" type="qcurve" smooth="yes"/>
      <point x="260" y="512"/>
      <point x="183" y="478"/>
      <point x="128" y="408"/>
      <point x="120" y="380" type="qcurve"/>
      <point x="120" y="720" type="line"/>
      <point x="100" y="720" type="line"/>
      <point x="100" y="0" type="line"/>
      <point x="120" y="0" type="line"/>
      <point x="120" y="120" type="line"/>
      <point x="128" y="92"/>
      <point x="183" y="22"/>
      <point x="260" y="-12"/>
    </contour>
    <contour>
      <point x="308" y="8" type="qcurve" smooth="yes"/>
      <point x="248" y="8"/>
      <point x="167" y="64"/>
      <point x="120" y="170"/>
      <point x="120" y="250" type="qcurve" smooth="yes"/>
      <point x="120" y="330"/>
      <point x="167" y="436"/>
      <point x="248" y="492"/>
      <point x="308" y="492" type="qcurve" smooth="yes"/>
      <point x="368" y="492"/>
      <point x="447" y="436"/>
      <point x="496" y="330"/>
      <point x="496" y="250" type="qcurve" smooth="yes"/>
      <point x="496" y="170"/>
      <point x="447" y="64"/>
      <point x="368" y="8"/>
    </contour>
  </outline>
</glyph>
<glyph name="c" format="2">
  <advance width="500"/>
  <unicode hex="0063"/>
  <anchor x="276" y="0" name="bottom"/>
  <anchor x="276" y="500" name="top"/>
  <outline>
    <contour>
      <point x="272" y="-12" type="qcurve" smooth="yes"/>
      <point x="328" y="-12"/>
      <point x="404" y="30"/>
      <point x="446" y="102"/>
      <point x="446" y="130" type="qcurve"/>
      <point x="426" y="130" type="line"/>
      <point x="426" y="108"/>
      <point x="388" y="44"/>
      <point x="322" y="8"/>
      <point x="272" y="8" type="qcurve" smooth="yes"/>
      <point x="218" y="8"/>
      <point x="134" y="64"/>
      <point x="88" y="170"/>
      <point x="88" y="250" type="qcurve" smooth="yes"/>
      <point x="88" y="330"/>
      <point x="134" y="436"/>
      <point x="218" y="492"/>
      <point x="272" y="492" type="qcurve" smooth="yes"/>
      <point x="322" y="492"/>
      <point x="388" y="456"/>
      <point x="426" y="392"/>
      <point x="426" y="370" type="qcurve"/>
      <point x="446" y="370" type="line"/>
      <point x="446" y="398"/>
      <point x="404" y="470"/>
      <point x="328" y="512"/>
      <point x="272" y="512" type="qcurve" smooth="yes"/>
      <point x="212" y="512"/>
      <point x="118" y="450"/>
      <point x="68" y="336"/>
      <point x="68" y="250" type="qcurve" smooth="yes"/>
      <point x="68" y="164"/>
      <point x="118" y="50"/>
      <point x="212" y="-12"/>
    </contour>
  </outline>
</glyph>
<glyph name="e" format="2">
  <advance width="530"/>
  <unicode hex="0065"/>
  <anchor x="272" y="0" name="bottom"/>
  <anchor x="324" y="0" name="ogonek"/>
  <anchor x="272" y="500" name="top"/>
  <outline>
    <contour>
      <point x="272" y="-12" type="qcurve" smooth="yes"/>
      <point x="326" y="-12"/>
      <point x="400" y="26"/>
      <point x="448" y="96"/>
      <point x="450" y="130" type="qcurve"/>
      <point x="429" y="130" type="line"/>
      <point x="425" y="98"/>
      <point x="387" y="42"/>
      <point x="320" y="8"/>
      <point x="272" y="8" type="qcurve" smooth="yes"/>
      <point x="212" y="8"/>
      <point x="130" y="66"/>
      <point x="88" y="164"/>
      <point x="88" y="244" type="qcurve" smooth="yes"/>
      <point x="88" y="256" type="line" smooth="yes"/>
      <point x="88" y="338"/>
      <point x="134" y="438"/>
      <point x="210" y="492"/>
      <point x="270" y="492" type="qcurve" smooth="yes"/>
      <point x="326" y="492"/>
      <point x="402" y="440"/>
      <point x="442" y="343"/>
      <point x="442" y="276" type="qcurve"/>
      <point x="80" y="276" type="line"/>
      <point x="80" y="256" type="line"/>
      <point x="462" y="256" type="line"/>
      <point x="462" y="270" type="line" smooth="yes"/>
      <point x="462" y="345"/>
      <point x="420" y="453"/>
      <point x="334" y="512"/>
      <point x="270" y="512" type="qcurve" smooth="yes"/>
      <point x="204" y="512"/>
      <point x="118" y="452"/>
      <point x="68" y="343"/>
      <point x="68" y="250" type="qcurve" smooth="yes"/>
      <point x="68" y="157"/>
      <point x="114" y="50"/>
      <point x="206" y="-12"/>
    </contour>
  </outline>
</glyph>
<glyph name="f" format="2">
  <advance width="380"/>
  <unicode hex="0066"/>
  <anchor x="141" y="0" name="bottom"/>
  <anchor x="153" y="720" name="top"/>
  <outline>
    <contour>
      <point x="150" y="0" type="line"/>
      <point x="170" y="0" type="line"/>
      <point x="170" y="594" type="line" smooth="yes"/>
      <point x="170" y="653"/>
      <point x="221" y="700"/>
      <point x="284" y="700" type="qcurve" smooth="yes"/>
      <point x="306" y="700" type="line"/>
      <point x="306" y="720" type="line"/>
      <point x="284" y="720" type="line" smooth="yes"/>
      <point x="213" y="720"/>
      <point x="150" y="665"/>
      <point x="150" y="600" type="qcurve" smooth="yes"/>
    </contour>
    <contour>
      <point x="40" y="480" type="line"/>
      <point x="306" y="480" type="line"/>
      <point x="306" y="500" type="line"/>
      <point x="40" y="500" type="line"/>
    </contour>
  </outline>
</glyph>
<glyph name="g" format="2">
  <advance width="574"/>
  <unicode hex="0067"/>
  <anchor x="276" y="-200" name="bottom"/>
  <anchor x="390" y="250" name="center"/>
  <anchor x="276" y="500" name="top"/>
  <outline>
    <contour>
      <point x="282" y="-212" type="qcurve" smooth="yes"/>
      <point x="336" y="-212"/>
      <point x="420" y="-176"/>
      <point x="474" y="-86"/>
      <point x="474" y="0" type="qcurve" smooth="yes"/>
      <point x="474" y="500" type="line"/>
      <point x="454" y="500" type="line"/>
      <point x="454" y="384" type="line"/>
      <point x="448" y="412"/>
      <point x="396" y="474"/>
      <point x="319" y="512"/>
      <point x="271" y="512" type="qcurve" smooth="yes"/>
      <point x="207" y="512"/>
      <point x="114" y="448"/>
      <point x="68" y="344"/>
      <point x="68" y="264" type="qcurve" smooth="yes"/>
      <point x="68" y="184"/>
      <point x="114" y="80"/>
      <point x="207" y="16"/>
      <point x="271" y="16" type="qcurve" smooth="yes"/>
      <point x="319" y="16"/>
      <point x="396" y="54"/>
      <point x="448" y="116"/>
      <point x="454" y="144" type="qcurve"/>
      <point x="454" y="0" type="line" smooth="yes"/>
      <point x="454" y="-80"/>
      <point x="406" y="-160"/>
      <point x="330" y="-192"/>
      <point x="282" y="-192" type="qcurve" smooth="yes"/>
      <point x="234" y="-192"/>
      <point x="158" y="-160"/>
      <point x="118" y="-102"/>
      <point x="118" y="-70" type="qcurve"/>
      <point x="98" y="-70" type="line"/>
      <point x="98" y="-108"/>
      <point x="144" y="-176"/>
      <point x="228" y="-212"/>
    </contour>
    <contour>
      <point x="271" y="36" type="qcurve" smooth="yes"/>
      <point x="213" y="36"/>
      <point x="130" y="94"/>
      <point x="88" y="190"/>
      <point x="88" y="264" type="qcurve" smooth="yes"/>
      <point x="88" y="338"/>
      <point x="130" y="434"/>
      <point x="213" y="492"/>
      <point x="271" y="492" type="qcurve" smooth="yes"/>
      <point x="329" y="492"/>
      <point x="410" y="434"/>
      <point x="454" y="338"/>
      <point x="454" y="264" type="qcurve" smooth="yes"/>
      <point x="454" y="190"/>
      <point x="410" y="94"/>
      <point x="329" y="36"/>
    </contour>
  </outline>
</glyph>
<glyph name="k" format="2">
  <advance width="540"/>
  <unicode hex="006B"/>
  <anchor x="244" y="0" name="bottom"/>
  <anchor x="224" y="720" name="top"/>
  <outline>
    <contour>
      <point x="100" y="0" type="line"/>
      <point x="120" y="0" type="line"/>
      <point x="120" y="183" type="line"/>
      <point x="242" y="285" type="line"/>
      <point x="476" y="0" type="line"/>
      <point x="502" y="0" type="line"/>
      <point x="257" y="297" type="line"/>
      <point x="494" y="500" type="line"/>
      <point x="466" y="500" type="line"/>
      <point x="120" y="208" type="line"/>
      <point x="120" y="720" type="line"/>
      <point x="100" y="720" type="line"/>
    </contour>
  </outline>
</glyph>
<glyph name="m" format="2">
  <advance width="840"/>
  <unicode hex="006D"/>
  <anchor x="395" y="0" name="bottom"/>
  <anchor x="425" y="500" name="top"/>
  <outline>
    <contour>
      <point x="100" y="0" type="line"/>
      <point x="120" y="0" type="line"/>
      <point x="120" y="344" type="line" smooth="yes"/>
      <point x="120" y="411"/>
      <point x="206" y="492"/>
      <point x="274" y="492" type="qcurve" smooth="yes"/>
      <point x="344" y="492"/>
      <point x="411" y="418"/>
      <point x="411" y="340" type="qcurve" smooth="yes"/>
      <point x="411" y="0" type="line"/>
      <point x="431" y="0" type="line"/>
      <point x="431" y="340" type="line" smooth="yes"/>
      <point x="431" y="414"/>
      <point x="512" y="492"/>
      <point x="587" y="492" type="qcurve" smooth="yes"/>
      <point x="654" y="492"/>
      <point x="722" y="415"/>
      <point x="722" y="342" type="qcurve" smooth="yes"/>
      <point x="722" y="0" type="line"/>
      <point x="742" y="0" type="line"/>
      <point x="742" y="346" type="line" smooth="yes"/>
      <point x="742" y="426"/>
      <point x="664" y="512"/>
      <point x="589" y="512" type="qcurve" smooth="yes"/>
      <point x="525" y="512"/>
      <point x="437" y="457"/>
      <point x="423" y="409" type="qcurve"/>
      <point x="411" y="457"/>
      <point x="336" y="512"/>
      <point x="276" y="512" type="qcurve" smooth="yes"/>
      <point x="220" y="512"/>
      <point x="132" y="459"/>
      <point x="120" y="420" type="qcurve"/>
      <point x="120" y="500" type="line"/>
      <point x="100" y="500" type="line"/>
    </contour>
  </outline>
</glyph>
<glyph name="n" format="2">
  <advance width="560"/>
  <unicode hex="006E"/>
  <anchor x="280" y="0" name="bottom"/>
  <anchor x="280" y="500" name="top"/>
  <outline>
    <contour>
      <point x="100" y="0" type="line"/>
      <point x="120" y="0" type="line"/>
      <point x="120" y="302" type="line" smooth="yes"/>
      <point x="120" y="378"/>
      <point x="174" y="460"/>
      <point x="247" y="492"/>
      <point x="290" y="492" type="qcurve" smooth="yes"/>
      <point x="339" y="492"/>
      <point x="407" y="456"/>
      <point x="442" y="386"/>
      <point x="442" y="322" type="qcurve" smooth="yes"/>
      <point x="442" y="0" type="line"/>
      <point x="462" y="0" type="line"/>
      <point x="462" y="326" type="line" smooth="yes"/>
      <point x="462" y="396"/>
      <point x="422" y="471"/>
      <point x="346" y="512"/>
      <point x="290" y="512" type="qcurve" smooth="yes"/>
      <point x="239" y="512"/>
      <point x="165" y="476"/>
      <point x="126" y="424"/>
      <point x="120" y="400" type="qcurve"/>
      <point x="120" y="500" type="line"/>
      <point x="100" y="500" type="line"/>
    </contour>
  </outline>
</glyph>
<glyph name="o" format="2">
  <advance width="560"/>
  <unicode hex="006F"/>
  <anchor x="280" y="0" name="bottom"/>
  <anchor x="368" y="10" name="ogonek"/>
  <anchor x="280" y="500" name="top"/>
  <outline>
    <contour>
      <point x="280" y="-12" type="qcurve" smooth="yes"/>
      <point x="346" y="-12"/>
      <point x="440" y="50"/>
      <point x="492" y="164"/>
      <point x="492" y="250" type="qcurve" smooth="yes"/>
      <point x="492" y="336"/>
      <point x="440" y="450"/>
      <point x="346" y="512"/>
      <point x="280" y="512" type="qcurve" smooth="yes"/>
      <point x="214" y="512"/>
      <point x="120" y="450"/>
      <point x="68" y="336"/>
      <point x="68" y="250" type="qcurve" smooth="yes"/>
      <point x="68" y="164"/>
      <point x="120" y="50"/>
      <point x="214" y="-12"/>
    </contour>
    <contour>
      <point x="280" y="8" type="qcurve" smooth="yes"/>
      <point x="220" y="8"/>
      <point x="136" y="64"/>
      <point x="88" y="170"/>
      <point x="88" y="250" type="qcurve" smooth="yes"/>
      <point x="88" y="330"/>
      <point x="136" y="436"/>
      <point x="220" y="492"/>
      <point x="280" y="492" type="qcurve" smooth="yes"/>
      <point x="340" y="492"/>
      <point x="424" y="436"/>
      <point x="472" y="330"/>
      <point x="472" y="250" type="qcurve" smooth="yes"/>
      <point x="472" y="170"/>
      <point x="424" y="64"/>
      <point x="340" y="8"/>
    </contour>
  </outline>
</glyph>
<glyph name="r" format="2">
  <advance width="370"/>
  <unicode hex="0072"/>
  <anchor x="118" y="0" name="bottom"/>
  <anchor x="198" y="500" name="top"/>
  <outline>
    <contour>
      <point x="100" y="0" type="line"/>
      <point x="120" y="0" type="line"/>
      <point x="120" y="260" type="line" smooth="yes"/>
      <point x="120" y="367"/>
      <point x="206" y="480"/>
      <point x="290" y="480" type="qcurve" smooth="yes"/>
      <point x="320" y="480" type="line"/>
      <point x="320" y="500" type="line"/>
      <point x="290" y="500" type="line" smooth="yes"/>
      <point x="224" y="500"/>
      <point x="136" y="437"/>
      <point x="120" y="380" type="qcurve"/>
      <point x="120" y="500" type="line"/>
      <point x="100" y="500" type="line"/>
    </contour>
  </outline>
</glyph>
<glyph name="s" format="2">
  <advance width="500"/>
  <unicode hex="0073"/>
  <anchor x="248" y="0" name="bottom"/>
  <anchor x="248" y="500" name="top"/>
  <outline>
    <contour>
      <point x="252" y="-12" type="qcurve" smooth="yes"/>
      <point x="309" y="-12"/>
      <point x="386" y="21"/>
      <point x="426" y="84"/>
      <point x="426" y="126" type="qcurve" smooth="yes"/>
      <point x="426" y="168"/>
      <point x="395" y="220"/>
      <point x="334" y="254"/>
      <point x="284" y="262" type="qcurve" smooth="yes"/>
      <point x="227" y="271" type="line" smooth="yes"/>
      <point x="179" y="279"/>
      <point x="135" y="298"/>
      <point x="102" y="337"/>
      <point x="102" y="374" type="qcurve" smooth="yes"/>
      <point x="102" y="410"/>
      <point x="142" y="464"/>
      <point x="206" y="492"/>
      <point x="248" y="492" type="qcurve" smooth="yes"/>
      <point x="290" y="492"/>
      <point x="356" y="468"/>
      <point x="398" y="412"/>
      <point x="398" y="370" type="qcurve"/>
      <point x="418" y="370" type="line"/>
      <point x="418" y="421"/>
      <point x="370" y="483"/>
      <point x="294" y="512"/>
      <point x="248" y="512" type="qcurve" smooth="yes"/>
      <point x="202" y="512"/>
      <point x="127" y="479"/>
      <point x="82" y="416"/>
      <point x="82" y="374" type="qcurve" smooth="yes"/>
      <point x="82" y="331"/>
      <point x="119" y="284"/>
      <point x="173" y="261"/>
      <point x="223" y="253" type="qcurve" smooth="yes"/>
      <point x="280" y="244" type="line" smooth="yes"/>
      <point x="328" y="236"/>
      <point x="379" y="206"/>
      <point x="406" y="162"/>
      <point x="406" y="126" type="qcurve" smooth="yes"/>
      <point x="406" y="90"/>
      <point x="370" y="36"/>
      <point x="304" y="8"/>
      <point x="252" y="8" type="qcurve" smooth="yes"/>
      <point x="202" y="8"/>
      <point x="133" y="37"/>
      <point x="94" y="89"/>
      <point x="94" y="130" type="qcurve"/>
      <point x="74" y="130" type="line"/>
      <point x="74" y="83"/>
      <point x="119" y="19"/>
      <point x="199" y="-12"/>
    </contour>
  </outline>
</glyph>
<glyph name="t" format="2">
  <advance width="380"/>
  <unicode hex="0074"/>
  <anchor x="216" y="0" name="bottom"/>
  <anchor x="160" y="500" name="top"/>
  <anchor x="166" y="720" name="topright"/>
  <outline>
    <contour>
      <point x="240" y="0" type="qcurve" smooth="yes"/>
      <point x="306" y="0" type="line"/>
      <point x="306" y="20" type="line"/>
      <point x="240" y="20" type="line" smooth="yes"/>
      <point x="204" y="20"/>
      <point x="166" y="54"/>
      <point x="166" y="90" type="qcurve" smooth="yes"/>
      <point x="166" y="480" type="line"/>
      <point x="306" y="480" type="line"/>
      <point x="306" y="500" type="line"/>
      <point x="166" y="500" type="line"/>
      <point x="166" y="620" type="line"/>
      <point x="146" y="620" type="line"/>
      <point x="146" y="500" type="line"/>
      <point x="40" y="500" type="line"/>
      <point x="40" y="480" type="line"/>
      <point x="146" y="480" type="line"/>
      <point x="146" y="84" type="line" smooth="yes"/>
      <point x="146" y="44"/>
      <point x="196" y="0"/>
    </contour>
  </outline>
</glyph>
<glyph name="v" format="2">
  <advance width="500"/>
  <unicode hex="0076"/>
  <anchor x="250" y="0" name="bottom"/>
  <anchor x="250" y="500" name="top"/>
  <outline>
    <contour>
      <point x="238" y="0" type="line"/>
      <point x="262" y="0" type="line"/>
      <point x="456" y="500" type="line"/>
      <point x="434" y="500" type="line"/>
      <point x="251" y="26" type="line"/>
      <point x="66" y="500" type="line"/>
      <point x="44" y="500" type="line"/>
    </contour>
  </outline>
</glyph>
<glyph name="w" format="2">
  <advance width="740"/>
  <unicode hex="0077"/>
  <anchor x="370" y="0" name="bottom"/>
  <anchor x="370" y="500" name="top"/>
  <outline>
    <contour>
      <point x="200" y="0" type="line"/>
      <point x="228" y="0" type="line"/>
      <point x="372" y="474" type="line"/>
      <point x="512" y="0" type="line"/>
      <point x="540" y="0" type="line"/>
      <point x="696" y="500" type="line"/>
      <point x="675" y="500" type="line"/>
      <point x="526" y="26" type="line"/>
      <point x="386" y="500" type="line"/>
      <point x="358" y="500" type="line"/>
      <point x="214" y="26" type="line"/>
      <point x="65" y="500" type="line"/>
      <point x="44" y="500" type="line"/>
    </contour>
  </outline>
</glyph>
<glyph name="x" format="2">
  <advance width="540"/>
  <unicode hex="0078"/>
  <anchor x="260" y="0" name="bottom"/>
  <anchor x="260" y="500" name="top"/>
  <outline>
    <contour>
      <point x="48" y="0" type="line"/>
      <point x="74" y="0" type="line"/>
      <point x="271" y="246" type="line"/>
      <point x="466" y="0" type="line"/>
      <point x="492" y="0" type="line"/>
      <point x="285" y="260" type="line"/>
      <point x="484" y="500" type="line"/>
      <point x="458" y="500" type="line"/>
      <point x="271" y="274" type="line"/>
      <point x="82" y="500" type="line"/>
      <point x="56" y="500" type="line"/>
      <point x="257" y="260" type="line"/>
    </contour>
  </outline>
</glyph>
<glyph name="y" format="2">
  <advance width="500"/>
  <unicode hex="0079"/>
  <anchor x="246" y="-160" name="bottom"/>
  <anchor x="250" y="500" name="top"/>
  <outline>
    <contour>
      <point x="64" y="-160" type="line"/>
      <point x="130" y="-160" type="line" smooth="yes"/>
      <point x="174" y="-160"/>
      <point x="222" y="-124"/>
      <point x="239" y="-79" type="qcurve" smooth="yes"/>
      <point x="456" y="500" type="line"/>
      <point x="434" y="500" type="line"/>
      <point x="257" y="22" type="line"/>
      <point x="66" y="500" type="line"/>
      <point x="44" y="500" type="line"/>
      <point x="246" y="0" type="line"/>
      <point x="221" y="-72" type="line" smooth="yes"/>
      <point x="208" y="-109"/>
      <point x="165" y="-140"/>
      <point x="130" y="-140" type="qcurve" smooth="yes"/>
      <point x="64" y="-140" type="line"/>
    </contour>
  </outline>
</glyph>
<glyph name="z" format="2">
  <advance width="480"/>
  <unicode hex="007A"/>
  <anchor x="240" y="0" name="bottom"/>
  <anchor x="240" y="500" name="top"/>
  <outline>
    <contour>
      <point x="60" y="0" type="line"/>
      <point x="420" y="0" type="line"/>
      <point x="420" y="20" type="line"/>
      <point x="91" y="20" type="line"/>
      <point x="420" y="488" type="line"/>
      <point x="420" y="500" type="line"/>
      <point x="60" y="500" type="line"/>
      <point x="60" y="480" type="line"/>
      <point x="389" y="480" type="line"/>
      <point x="60" y="12" type="line"/>
    </contour>
  </outline>
</glyph>
<glyph name="braceleft" format="2">
  <advance width="400"/>
  <unicode hex="007B"/>
  <outline>
    <contour>
      <point x="320" y="-140" type="qcurve"/>
      <point x="320" y="-120" type="line"/>
      <point x="270" y="-120"/>
      <point x="216" y="-82"/>
      <point x="192" y="-6"/>
      <point x="192" y="80" type="qcurve" smooth="yes"/>
      <point x="192" y="130" type="line" smooth="yes"/>
      <point x="192" y="182"/>
      <point x="182" y="244"/>
      <point x="144" y="290"/>
      <point x="104" y="300" type="qcurve"/>
      <point x="144" y="310"/>
      <point x="182" y="356"/>
      <point x="192" y="418"/>
      <point x="192" y="470" type="qcurve" smooth="yes"/>
      <point x="192" y="520" type="line" smooth="yes"/>
      <point x="192" y="606"/>
      <point x="216" y="682"/>
      <point x="270" y="720"/>
      <point x="320" y="720" type="qcurve"/>
      <point x="320" y="740" type="line"/>
      <point x="262" y="740"/>
      <point x="200" y="694"/>
      <point x="172" y="612"/>
      <point x="172" y="520" type="qcurve" smooth="yes"/>
      <point x="172" y="470" type="line" smooth="yes"/>
      <point x="172" y="416"/>
      <point x="160" y="358"/>
      <point x="124" y="324"/>
      <point x="80" y="310" type="qcurve"/>
      <point x="80" y="290" type="line"/>
      <point x="124" y="276"/>
      <point x="160" y="242"/>
      <point x="172" y="184"/>
      <point x="172" y="130" type="qcurve" smooth="yes"/>
      <point x="172" y="80" type="line" smooth="yes"/>
      <point x="172" y="-12"/>
      <point x="200" y="-94"/>
      <point x="262" y="-140"/>
    </contour>
  </outline>
</glyph>
<glyph name="asciitilde" format="2">
  <advance width="600"/>
  <unicode hex="007E"/>
  <outline>
    <contour>
      <point x="76" y="270" type="qcurve"/>
      <point x="98" y="270" type="line"/>
      <point x="106" y="306"/>
      <point x="161" y="350"/>
      <point x="200" y="350" type="qcurve" smooth="yes"/>
      <point x="225" y="350"/>
      <point x="265" y="334"/>
      <point x="294" y="312" type="qcurve" smooth="yes"/>
      <point x="324" y="288"/>
      <point x="369" y="270"/>
      <point x="400" y="270" type="qcurve" smooth="yes"/>
      <point x="447" y="270"/>
      <point x="516" y="327"/>
      <point x="524" y="370" type="qcurve"/>
      <point x="502" y="370" type="line"/>
      <point x="494" y="334"/>
      <point x="440" y="290"/>
      <point x="400" y="290" type="qcurve" smooth="yes"/>
      <point x="375" y="290"/>
      <point x="335" y="306"/>
      <point x="306" y="328" type="qcurve" smooth="yes"/>
      <point x="276" y="352"/>
      <point x="231" y="370"/>
      <point x="200" y="370" type="qcurve" smooth="yes"/>
      <point x="153" y="370"/>
      <point x="84" y="313"/>
    </contour>
  </outline>
</glyph>
<glyph name="cent" format="2">
  <advance width="600"/>
  <unicode hex="00A2"/>
  <anchor x="320" y="0" name="bottom"/>
  <anchor x="320" y="500" name="top"/>
  <outline>
    <contour>
      <point x="300" y="500" type="line"/>
      <point x="320" y="500" type="line"/>
      <point x="320" y="620" type="line"/>
      <point x="300" y="620" type="line"/>
    </contour>
    <contour>
      <point x="300" y="-120" type="line"/>
      <point x="320" y="-120" type="line"/>
      <point x="320" y="0" type="line"/>
      <point x="300" y="0" type="line"/>
    </contour>
    <component base="c" xOffset="44"/>
  </outline>
</glyph>
<glyph name="sterling" format="2">
  <advance width="600"/>
  <unicode hex="00A3"/>
  <outline>
    <contour>
      <point x="66" y="0" type="line"/>
      <point x="534" y="0" type="line"/>
      <point x="534" y="20" type="line"/>
      <point x="122" y="20" type="line"/>
      <point x="138" y="24"/>
      <point x="186" y="68"/>
      <point x="229" y="148"/>
      <point x="229" y="210" type="qcurve" smooth="yes"/>
      <point x="229" y="254"/>
      <point x="199" y="326"/>
      <point x="152" y="400"/>
      <point x="120" y="491"/>
      <point x="120" y="530" type="qcurve" smooth="yes"/>
      <point x="120" y="586"/>
      <point x="167" y="668"/>
      <point x="252" y="712"/>
      <point x="306" y="712" type="qcurve" smooth="yes"/>
      <point x="356" y="712"/>
      <point x="439" y="678"/>
      <point x="490" y="604"/>
      <point x="490" y="550" type="qcurve"/>
      <point x="510" y="550" type="line"/>
      <point x="510" y="610"/>
      <point x="453" y="694"/>
      <point x="362" y="732"/>
      <point x="306" y="732" type="qcurve" smooth="yes"/>
      <point x="246" y="732"/>
      <point x="151" y="682"/>
      <point x="100" y="592"/>
      <point x="100" y="530" type="qcurve" smooth="yes"/>
      <point x="100" y="485"/>
      <point x="134" y="392"/>
      <point x="181" y="318"/>
      <point x="209" y="248"/>
      <point x="209" y="210" type="qcurve" smooth="yes"/>
      <point x="209" y="154"/>
      <point x="170" y="78"/>
      <point x="102" y="24"/>
      <point x="66" y="16" type="qcurve"/>
    </contour>
    <contour>
      <point x="66" y="310" type="line"/>
      <point x="418" y="310" type="line"/>
      <point x="418" y="330" type="line"/>
      <point x="66" y="330" type="line"/>
    </contour>
  </outline>
</glyph>
<glyph name="currency" format="2">
  <advance width="640"/>
  <unicode hex="00A4"/>
  <outline>
    <contour>
      <point x="317" y="130" type="qcurve"/>
      <point x="415" y="130"/>
      <point x="547" y="262"/>
      <point x="547" y="360" type="qcurve"/>
      <point x="547" y="458"/>
      <point x="415" y="590"/>
      <point x="317" y="590" type="qcurve"/>
      <point x="219" y="590"/>
      <point x="87" y="458"/>
      <point x="87" y="360" type="qcurve"/>
      <point x="87" y="262"/>
      <point x="219" y="130"/>
    </contour>
    <contour>
      <point x="75" y="104" type="line"/>
      <point x="163" y="193" type="line"/>
      <point x="153" y="207" type="line"/>
      <point x="64" y="119" type="line"/>
    </contour>
    <contour>
      <point x="317" y="150" type="qcurve"/>
      <point x="227" y="150"/>
      <point x="107" y="270"/>
      <point x="107" y="360" type="qcurve"/>
      <point x="107" y="450"/>
      <point x="227" y="570"/>
      <point x="317" y="570" type="qcurve"/>
      <point x="407" y="570"/>
      <point x="527" y="450"/>
      <point x="527" y="360" type="qcurve"/>
      <point x="527" y="270"/>
      <point x="407" y="150"/>
    </contour>
    <contour>
      <point x="561" y="104" type="line"/>
      <point x="574" y="119" type="line"/>
      <point x="487" y="207" type="line"/>
      <point x="473" y="192" type="line"/>
    </contour>
    <contour>
      <point x="152" y="514" type="line"/>
      <point x="166" y="528" type="line"/>
      <point x="79" y="616" type="line"/>
      <point x="64" y="602" type="line"/>
    </contour>
    <contour>
      <point x="487" y="514" type="line"/>
      <point x="575" y="602" type="line"/>
      <point x="560" y="615" type="line"/>
      <point x="473" y="529" type="line"/>
    </contour>
  </outline>
</glyph>
<glyph name="yen" format="2">
  <advance width="600"/>
  <unicode hex="00A5"/>
  <outline>
    <contour>
      <point x="290" y="0" type="line"/>
      <point x="310" y="0" type="line"/>
      <point x="310" y="300" type="line"/>
      <point x="550" y="720" type="line"/>
      <point x="526" y="720" type="line"/>
      <point x="300" y="326" type="line"/>
      <point x="74" y="720" type="line"/>
      <point x="50" y="720" type="line"/>
      <point x="290" y="300" type="line"/>
    </contour>
    <contour>
      <point x="105" y="160" type="line"/>
      <point x="497" y="160" type="line"/>
      <point x="497" y="180" type="line"/>
      <point x="105" y="180" type="line"/>
    </contour>
    <contour>
      <point x="105" y="300" type="line"/>
      <point x="497" y="300" type="line"/>
      <point x="497" y="320" type="line"/>
      <point x="105" y="320" type="line"/>
    </contour>
  </outline>
</glyph>
<glyph name="section" format="2">
  <advance width="640"/>
  <unicode hex="00A7"/>
  <outline>
    <contour>
      <point x="322" y="-200" type="qcurve" smooth="yes"/>
      <point x="392" y="-200"/>
      <point x="484" y="-150"/>
      <point x="526" y="-76"/>
      <point x="532" y="-18"/>
      <point x="532" y="-6" type="qcurve" smooth="yes"/>
      <point x="532" y="178" type="line" smooth="yes"/>
      <point x="532" y="268"/>
      <point x="480" y="350"/>
      <point x="392" y="385"/>
      <point x="348" y="390" type="qcurve" smooth="yes"/>
      <point x="292" y="396" type="line" smooth="yes"/>
      <point x="236" y="402"/>
      <point x="170" y="428"/>
      <point x="128" y="484"/>
      <point x="128" y="538" type="qcurve" smooth="yes"/>
      <point x="128" y="604"/>
      <point x="188" y="682"/>
      <point x="268" y="712"/>
      <point x="316" y="712" type="qcurve" smooth="yes"/>
      <point x="364" y="712"/>
      <point x="458" y="668"/>
      <point x="507" y="576"/>
      <point x="507" y="510" type="qcurve"/>
      <point x="527" y="510" type="line"/>
      <point x="527" y="582"/>
      <point x="472" y="684"/>
      <point x="372" y="732"/>
      <point x="316" y="732" type="qcurve" smooth="yes"/>
      <point x="246" y="732"/>
      <point x="154" y="680"/>
      <point x="112" y="606"/>
      <point x="106" y="548"/>
      <point x="106" y="536" type="qcurve" smooth="yes"/>
      <point x="106" y="354" type="line" smooth="yes"/>
      <point x="106" y="264"/>
      <point x="161" y="182"/>
      <point x="249" y="147"/>
      <point x="293" y="142" type="qcurve" smooth="yes"/>
      <point x="349" y="136" type="line" smooth="yes"/>
      <point x="401" y="130"/>
      <point x="463" y="99"/>
      <point x="512" y="43"/>
      <point x="512" y="-6" type="qcurve" smooth="yes"/>
      <point x="512" y="-72"/>
      <point x="450" y="-150"/>
      <point x="370" y="-180"/>
      <point x="322" y="-180" type="qcurve" smooth="yes"/>
      <point x="274" y="-180"/>
      <point x="180" y="-136"/>
      <point x="133" y="-44"/>
      <point x="133" y="22" type="qcurve"/>
      <point x="113" y="22" type="line"/>
      <point x="113" y="-50"/>
      <point x="166" y="-152"/>
      <point x="266" y="-200"/>
    </contour>
    <contour>
      <point x="512" y="70" type="line"/>
      <point x="467" y="144"/>
      <point x="357" y="156" type="qcurve" smooth="yes"/>
      <point x="301" y="162" type="line" smooth="yes"/>
      <point x="257" y="167"/>
      <point x="177" y="198"/>
      <point x="126" y="268"/>
      <point x="126" y="354" type="qcurve" smooth="yes"/>
      <point x="126" y="460" type="line"/>
      <point x="148" y="393"/>
      <point x="284" y="376" type="qcurve" smooth="yes"/>
      <point x="340" y="370" type="line" smooth="yes"/>
      <point x="384" y="365"/>
      <point x="464" y="334"/>
      <point x="512" y="259"/>
      <point x="512" y="178" type="qcurve" smooth="yes"/>
    </contour>
  </outline>
</glyph>
<glyph name="copyright" format="2">
  <advance width="860"/>
  <unicode hex="00A9"/>
  <anchor x="430" y="360" name="center"/>
  <outline>
    <contour>
      <point x="438" y="160" type="qcurve" smooth="yes"/>
      <point x="498" y="160"/>
      <point x="573" y="222"/>
      <point x="581" y="268" type="qcurve"/>
      <point x="561" y="268" type="line"/>
      <point x="551" y="226"/>
      <point x="488" y="180"/>
      <point x="438" y="180" type="qcurve" smooth="yes"/>
      <point x="365" y="180"/>
      <point x="289" y="273"/>
      <point x="289" y="360" type="qcurve" smooth="yes"/>
      <point x="289" y="447"/>
      <point x="365" y="540"/>
      <point x="438" y="540" type="qcurve" smooth="yes"/>
      <point x="488" y="540"/>
      <point x="551" y="494"/>
      <point x="561" y="452" type="qcurve"/>
      <point x="581" y="452" type="line"/>
      <point x="573" y="498"/>
      <point x="498" y="560"/>
      <point x="438" y="560" type="qcurve" smooth="yes"/>
      <point x="359" y="560"/>
      <point x="269" y="453"/>
      <point x="269" y="360" type="qcurve" smooth="yes"/>
      <point x="269" y="267"/>
      <point x="359" y="160"/>
    </contour>
    <component base="numCircle"/>
  </outline>
</glyph>
<glyph name="logicalnot" format="2">
  <advance width="600"/>
  <unicode hex="00AC"/>
  <outline>
    <contour>
      <point x="540" y="120" type="line"/>
      <point x="560" y="120" type="line"/>
      <point x="560" y="360" type="line"/>
      <point x="60" y="360" type="line"/>
      <point x="60" y="340" type="line"/>
      <point x="540" y="340" type="line"/>
    </contour>
  </outline>
</glyph>
<glyph name="registered" format="2">
  <advance width="860"/>
  <unicode hex="00AE"/>
  <anchor x="430" y="360" name="center"/>
  <outline>
    <contour>
      <point x="316" y="170" type="line"/>
      <point x="336" y="170" type="line"/>
      <point x="336" y="340" type="line"/>
      <point x="426" y="340" type="line"/>
      <point x="542" y="170" type="line"/>
      <point x="566" y="170" type="line"/>
      <point x="450" y="340" type="line"/>
      <point x="506" y="340"/>
      <point x="572" y="397"/>
      <point x="572" y="445" type="qcurve" smooth="yes"/>
      <point x="572" y="493"/>
      <point x="508" y="550"/>
      <point x="452" y="550" type="qcurve" smooth="yes"/>
      <point x="316" y="550" type="line"/>
    </contour>
    <contour>
      <point x="336" y="360" type="line"/>
      <point x="336" y="530" type="line"/>
      <point x="450" y="530" type="line" smooth="yes"/>
      <point x="497" y="530"/>
      <point x="552" y="484"/>
      <point x="552" y="445" type="qcurve" smooth="yes"/>
      <point x="552" y="406"/>
      <point x="497" y="360"/>
      <point x="450" y="360" type="qcurve" smooth="yes"/>
    </contour>
    <component base="numCircle"/>
  </outline>
</glyph>
<glyph name="degree" format="2">
  <advance width="440"/>
  <unicode hex="00B0"/>
  <outline>
    <contour>
      <point x="220" y="352" type="qcurve" smooth="yes"/>
      <point x="303" y="352"/>
      <point x="410" y="461"/>
      <point x="410" y="542" type="qcurve" smooth="yes"/>
      <point x="410" y="623"/>
      <point x="303" y="732"/>
      <point x="220" y="732" type="qcurve" smooth="yes"/>
      <point x="137" y="732"/>
      <point x="30" y="623"/>
      <point x="30" y="542" type="qcurve" smooth="yes"/>
      <point x="30" y="461"/>
      <point x="137" y="352"/>
    </contour>
    <contour>
      <point x="220" y="372" type="qcurve" smooth="yes"/>
      <point x="146" y="372"/>
      <point x="50" y="468"/>
      <point x="50" y="542" type="qcurve" smooth="yes"/>
      <point x="50" y="616"/>
      <point x="146" y="712"/>
      <point x="220" y="712" type="qcurve" smooth="yes"/>
      <point x="294" y="712"/>
      <point x="390" y="616"/>
      <point x="390" y="542" type="qcurve" smooth="yes"/>
      <point x="390" y="468"/>
      <point x="294" y="372"/>
    </contour>
  </outline>
</glyph>
<glyph name="micro" format="2">
  <advance width="560"/>
  <unicode hex="00B5"/>
  <anchor x="272" y="500" name="top"/>
  <anchor x="272" y="0" name="bottom"/>
  <anchor x="452" y="0" name="ogonek"/>
  <outline>
    <contour>
      <point x="98" y="-200" type="line"/>
      <point x="118" y="-200" type="line"/>
      <point x="118" y="222" type="line"/>
      <point x="98" y="222" type="line"/>
    </contour>
    <component base="u"/>
  </outline>
</glyph>
<glyph name="paragraph" format="2">
  <advance width="480"/>
  <unicode hex="00B6"/>
  <outline>
    <contour>
      <point x="280" y="-200" type="line"/>
      <point x="300" y="-200" type="line"/>
      <point x="300" y="740" type="line"/>
      <point x="280" y="740" type="line" smooth="yes"/>
      <point x="196" y="740"/>
      <point x="110" y="663"/>
      <point x="110" y="590" type="qcurve" smooth="yes"/>
      <point x="110" y="517"/>
      <point x="196" y="440"/>
      <point x="280" y="440" type="qcurve"/>
    </contour>
  </outline>
</glyph>
<glyph name="AE" format="2">
  <advance width="960"/>
  <unicode hex="00C6"/>
  <anchor x="696" y="0" name="bottom"/>
  <anchor x="900" y="0" name="ogonek"/>
  <anchor x="572" y="720" name="top"/>
  <outline>
    <contour>
      <point x="48" y="0" type="line"/>
      <point x="72" y="0" type="line"/>
      <point x="488" y="700" type="line"/>
      <point x="510" y="700" type="line"/>
      <point x="510" y="720" type="line"/>
      <point x="474" y="720" type="line"/>
    </contour>
    <contour>
      <point x="211" y="250" type="line"/>
      <point x="506" y="250" type="line"/>
      <point x="506" y="270" type="line"/>
      <point x="211" y="270" type="line"/>
    </contour>
    <component base="E" xOffset="392"/>
  </outline>
</glyph>
<glyph name="Oslash" format="2">
  <advance width="760"/>
  <unicode hex="00D8"/>
  <anchor x="380" y="0" name="bottom"/>
  <anchor x="477" y="10" name="ogonek"/>
  <anchor x="380" y="720" name="top"/>
  <anchor x="10" y="720" name="topleft"/>
  <outline>
    <contour>
      <point x="73" y="0" type="line"/>
      <point x="99" y="0" type="line"/>
      <point x="687" y="720" type="line"/>
      <point x="661" y="720" type="line"/>
    </contour>
    <component base="O"/>
  </outline>
</glyph>
<glyph name="Thorn" format="2">
  <advance width="600"/>
  <unicode hex="00DE"/>
  <outline>
    <contour>
      <point x="104" y="158" type="line"/>
      <point x="302" y="158" type="line" smooth="yes"/>
      <point x="378" y="158"/>
      <point x="484" y="208"/>
      <point x="546" y="304"/>
      <point x="546" y="370" type="qcurve" smooth="yes"/>
      <point x="546" y="436"/>
      <point x="484" y="532"/>
      <point x="378" y="582"/>
      <point x="302" y="582" type="qcurve" smooth="yes"/>
      <point x="104" y="582" type="line"/>
    </contour>
    <contour>
      <point x="104" y="0" type="line"/>
      <point x="124" y="0" type="line"/>
      <point x="124" y="720" type="line"/>
      <point x="104" y="720" type="line"/>
    </contour>
    <contour>
      <point x="124" y="178" type="line"/>
      <point x="124" y="562" type="line"/>
      <point x="300" y="562" type="line" smooth="yes"/>
      <point x="370" y="562"/>
      <point x="468" y="518"/>
      <point x="526" y="430"/>
      <point x="526" y="370" type="qcurve" smooth="yes"/>
      <point x="526" y="310"/>
      <point x="468" y="222"/>
      <point x="370" y="178"/>
      <point x="300" y="178" type="qcurve" smooth="yes"/>
    </contour>
  </outline>
</glyph>
<glyph name="germandbls" format="2">
  <advance width="620"/>
  <unicode hex="00DF"/>
  <outline>
    <contour>
      <point x="390" y="0" type="line" smooth="yes"/>
      <point x="442" y="0"/>
      <point x="510" y="34"/>
      <point x="552" y="98"/>
      <point x="552" y="146" type="qcurve" smooth="yes"/>
      <point x="552" y="198"/>
      <point x="486" y="270"/>
      <point x="430" y="296" type="qcurve" smooth="yes"/>
      <point x="386" y="317"/>
      <point x="352" y="361"/>
      <point x="352" y="392" type="qcurve" smooth="yes"/>
      <point x="352" y="423"/>
      <point x="397" y="482"/>
      <point x="444" y="554"/>
      <point x="444" y="592" type="qcurve" smooth="yes"/>
      <point x="444" y="638"/>
      <point x="398" y="697"/>
      <point x="334" y="726"/>
      <point x="288" y="726" type="qcurve" smooth="yes"/>
      <point x="230" y="726"/>
      <point x="147" y="678"/>
      <point x="100" y="588"/>
      <point x="100" y="506" type="qcurve" smooth="yes"/>
      <point x="100" y="0" type="line"/>
      <point x="120" y="0" type="line"/>
      <point x="120" y="506" type="line" smooth="yes"/>
      <point x="120" y="580"/>
      <point x="161" y="662"/>
      <point x="238" y="706"/>
      <point x="288" y="706" type="qcurve" smooth="yes"/>
      <point x="326" y="706"/>
      <point x="384" y="682"/>
      <point x="424" y="630"/>
      <point x="424" y="592" type="qcurve" smooth="yes"/>
      <point x="424" y="560"/>
      <point x="381" y="496"/>
      <point x="332" y="427"/>
      <point x="332" y="392" type="qcurve" smooth="yes"/>
      <point x="332" y="354"/>
      <point x="374" y="299"/>
      <point x="424" y="276" type="qcurve" smooth="yes"/>
      <point x="472" y="254"/>
      <point x="532" y="192"/>
      <point x="532" y="146" type="qcurve" smooth="yes"/>
      <point x="532" y="106"/>
      <point x="494" y="48"/>
      <point x="434" y="20"/>
      <point x="390" y="20" type="qcurve" smooth="yes"/>
      <point x="290" y="20" type="line"/>
      <point x="290" y="0" type="line"/>
    </contour>
  </outline>
</glyph>
<glyph name="ae" format="2">
  <advance width="820"/>
  <unicode hex="00E6"/>
  <anchor x="405" y="500" name="top"/>
  <outline>
    <contour>
      <point x="204" y="-12" type="qcurve" smooth="yes"/>
      <point x="270" y="-12"/>
      <point x="356" y="47"/>
      <point x="394" y="128"/>
      <point x="398" y="160" type="qcurve"/>
      <point x="400" y="128"/>
      <point x="440" y="44"/>
      <point x="527" y="-12"/>
      <point x="587" y="-12" type="qcurve" smooth="yes"/>
      <point x="643" y="-12"/>
      <point x="715" y="28"/>
      <point x="756" y="104"/>
      <point x="756" y="130" type="qcurve"/>
      <point x="735" y="130" type="line"/>
      <point x="735" y="107"/>
      <point x="699" y="42"/>
      <point x="637" y="8"/>
      <point x="587" y="8" type="qcurve" smooth="yes"/>
      <point x="533" y="8"/>
      <point x="452" y="60"/>
      <point x="408" y="170"/>
      <point x="408" y="252" type="qcurve"/>
      <point x="768" y="252" type="line"/>
      <point x="768" y="272" type="line" smooth="yes"/>
      <point x="768" y="338"/>
      <point x="728" y="446"/>
      <point x="645" y="512"/>
      <point x="585" y="512" type="qcurve" smooth="yes"/>
      <point x="525" y="512"/>
      <point x="447" y="460"/>
      <point x="406" y="394"/>
      <point x="401" y="366" type="qcurve"/>
      <point x="399" y="394"/>
      <point x="360" y="472"/>
      <point x="286" y="512"/>
      <point x="242" y="512" type="qcurve" smooth="yes"/>
      <point x="194" y="512"/>
      <point x="123" y="480"/>
      <point x="82" y="420"/>
      <point x="82" y="380" type="qcurve"/>
      <point x="102" y="380" type="line"/>
      <point x="102" y="414"/>
      <point x="137" y="464"/>
      <point x="200" y="492"/>
      <point x="242" y="492" type="qcurve" smooth="yes"/>
      <point x="280" y="492"/>
      <point x="350" y="454"/>
      <point x="388" y="366"/>
      <point x="388" y="272" type="qcurve"/>
      <point x="254" y="272" type="line" smooth="yes"/>
      <point x="186" y="272"/>
      <point x="100" y="245"/>
      <point x="50" y="176"/>
      <point x="50" y="130" type="qcurve" smooth="yes"/>
      <point x="50" y="86"/>
      <point x="85" y="26"/>
      <point x="154" y="-12"/>
    </contour>
    <contour>
      <point x="204" y="8" type="qcurve" smooth="yes"/>
      <point x="160" y="8"/>
      <point x="101" y="40"/>
      <point x="70" y="92"/>
      <point x="70" y="130" type="qcurve" smooth="yes"/>
      <point x="70" y="170"/>
      <point x="114" y="229"/>
      <point x="192" y="252"/>
      <point x="254" y="252" type="qcurve" smooth="yes"/>
      <point x="388" y="252" type="line"/>
      <point x="384" y="142"/>
      <point x="328" y="46"/>
      <point x="252" y="8"/>
    </contour>
    <contour>
      <point x="408" y="272" type="line"/>
      <point x="408" y="354"/>
      <point x="462" y="449"/>
      <point x="533" y="492"/>
      <point x="585" y="492" type="qcurve" smooth="yes"/>
      <point x="637" y="492"/>
      <point x="711" y="437"/>
      <point x="748" y="332"/>
      <point x="748" y="272" type="qcurve"/>
    </contour>
  </outline>
</glyph>
<glyph name="eth" format="2">
  <advance width="560"/>
  <unicode hex="00F0"/>
  <outline>
    <contour>
      <point x="190" y="540" type="line"/>
      <point x="218" y="540" type="line"/>
      <point x="416" y="746" type="line"/>
      <point x="388" y="746" type="line"/>
    </contour>
    <component base="partialdiff"/>
  </outline>
</glyph>
<glyph name="oslash" format="2">
  <advance width="560"/>
  <unicode hex="00F8"/>
  <anchor x="280" y="0" name="bottom"/>
  <anchor x="368" y="10" name="ogonek"/>
  <anchor x="280" y="500" name="top"/>
  <outline>
    <contour>
      <point x="70" y="0" type="line"/>
      <point x="95" y="0" type="line"/>
      <point x="490" y="500" type="line"/>
      <point x="465" y="500" type="line"/>
    </contour>
    <component base="o"/>
  </outline>
</glyph>
<glyph name="thorn" format="2">
  <advance width="584"/>
  <unicode hex="00FE"/>
  <anchor x="306" y="0" name="bottom"/>
  <anchor x="306" y="500" name="top"/>
  <outline>
    <contour>
      <point x="100" y="-220" type="line"/>
      <point x="120" y="-220" type="line"/>
      <point x="120" y="100" type="line"/>
      <point x="100" y="100" type="line"/>
    </contour>
    <component base="b"/>
  </outline>
</glyph>
<glyph name="Hbar" format="2">
  <advance width="744"/>
  <unicode hex="0126"/>
  <anchor x="376" y="0" name="bottom"/>
  <anchor x="376" y="720" name="top"/>
  <outline>
    <contour>
      <point x="32" y="550" type="line"/>
      <point x="712" y="550" type="line"/>
      <point x="712" y="570" type="line"/>
      <point x="32" y="570" type="line"/>
    </contour>
    <component base="H" xOffset="36"/>
  </outline>
</glyph>
<glyph name="kgreenlandic" format="2">
  <advance width="530"/>
  <unicode hex="0138"/>
  <outline>
    <contour>
      <point x="100" y="0" type="line"/>
      <point x="120" y="0" type="line"/>
      <point x="120" y="183" type="line"/>
      <point x="242" y="285" type="line"/>
      <point x="476" y="0" type="line"/>
      <point x="502" y="0" type="line"/>
      <point x="257" y="297" type="line"/>
      <point x="494" y="500" type="line"/>
      <point x="466" y="500" type="line"/>
      <point x="120" y="208" type="line"/>
      <point x="120" y="500" type="line"/>
      <point x="100" y="500" type="line"/>
    </contour>
  </outline>
</glyph>
<glyph name="ldot" format="2">
  <advance width="382"/>
  <unicode hex="0140"/>
  <anchor x="128" y="0" name="bottom"/>
  <anchor x="282" y="360" name="top"/>
  <anchor x="178" y="720" name="topright"/>
  <outline>
    <contour>
      <point x="162" y="360" type="qcurve"/>
      <point x="162" y="346"/>
      <point x="178" y="330"/>
      <point x="190" y="330" type="qcurve" smooth="yes"/>
      <point x="194" y="330" type="line" smooth="yes"/>
      <point x="206" y="330"/>
      <point x="222" y="346"/>
      <point x="222" y="360" type="qcurve"/>
      <point x="222" y="374"/>
      <point x="206" y="390"/>
      <point x="194" y="390" type="qcurve" smooth="yes"/>
      <point x="190" y="390" type="line" smooth="yes"/>
      <point x="178" y="390"/>
      <point x="162" y="374"/>
    </contour>
    <component base="l"/>
  </outline>
</glyph>
<glyph name="Lslash" format="2">
  <advance width="526"/>
  <unicode hex="0141"/>
  <anchor x="286" y="0" name="bottom"/>
  <anchor x="352" y="360" name="dot"/>
  <anchor x="146" y="720" name="top"/>
  <anchor x="396" y="720" name="topright"/>
  <outline>
    <contour>
      <point x="28" y="285" type="line"/>
      <point x="391" y="427" type="line"/>
      <point x="391" y="448" type="line"/>
      <point x="28" y="306" type="line"/>
    </contour>
    <component base="L" xOffset="6"/>
  </outline>
</glyph>
<glyph name="lslash" format="2">
  <advance width="300"/>
  <unicode hex="0142"/>
  <anchor x="150" y="0" name="bottom"/>
  <anchor x="150" y="720" name="top"/>
  <anchor x="200" y="720" name="topright"/>
  <outline>
    <contour>
      <point x="30" y="319" type="line"/>
      <point x="270" y="419" type="line"/>
      <point x="270" y="441" type="line"/>
      <point x="30" y="341" type="line"/>
    </contour>
    <component base="l" xOffset="22"/>
  </outline>
</glyph>
<glyph name="Eng" format="2">
  <advance width="694"/>
  <unicode hex="014A"/>
  <outline>
    <contour>
      <point x="104" y="0" type="line"/>
      <point x="124" y="0" type="line"/>
      <point x="124" y="694" type="line"/>
      <point x="570" y="0" type="line"/>
      <point x="590" y="0" type="line"/>
      <point x="590" y="720" type="line"/>
      <point x="570" y="720" type="line"/>
      <point x="570" y="38" type="line"/>
      <point x="131" y="720" type="line"/>
      <point x="104" y="720" type="line"/>
    </contour>
    <component base="hook-1" xOffset="430"/>
  </outline>
</glyph>
<glyph name="OE" format="2">
  <advance width="1080"/>
  <unicode hex="0152"/>
  <anchor x="572" y="0" name="bottom"/>
  <anchor x="1020" y="0" name="ogonek"/>
  <anchor x="572" y="720" name="top"/>
  <anchor x="-36" y="720" name="topleft"/>
  <outline>
    <contour>
      <point x="354" y="-12" type="qcurve" smooth="yes"/>
      <point x="448" y="-12"/>
      <point x="575" y="88"/>
      <point x="636" y="257"/>
      <point x="636" y="360" type="qcurve" smooth="yes"/>
      <point x="636" y="464"/>
      <point x="575" y="632"/>
      <point x="448" y="732"/>
      <point x="354" y="732" type="qcurve" smooth="yes"/>
      <point x="260" y="732"/>
      <point x="133" y="632"/>
      <point x="72" y="463"/>
      <point x="72" y="360" type="qcurve" smooth="yes"/>
      <point x="72" y="253"/>
      <point x="136" y="85"/>
      <point x="263" y="-12"/>
    </contour>
    <contour>
      <point x="354" y="8" type="qcurve" smooth="yes"/>
      <point x="266" y="8"/>
      <point x="148" y="105"/>
      <point x="92" y="265"/>
      <point x="92" y="360" type="qcurve" smooth="yes"/>
      <point x="92" y="457"/>
      <point x="150" y="617"/>
      <point x="268" y="712"/>
      <point x="354" y="712" type="qcurve" smooth="yes"/>
      <point x="443" y="712"/>
      <point x="561" y="615"/>
      <point x="616" y="455"/>
      <point x="616" y="360" type="qcurve" smooth="yes"/>
      <point x="616" y="263"/>
      <point x="558" y="103"/>
      <point x="440" y="8"/>
    </contour>
    <component base="E" xOffset="512"/>
  </outline>
</glyph>
<glyph name="oe" format="2">
  <advance width="840"/>
  <unicode hex="0153"/>
  <anchor x="424" y="500" name="top"/>
  <outline>
    <contour>
      <point x="240" y="-12" type="qcurve" smooth="yes"/>
      <point x="288" y="-12"/>
      <point x="360" y="26"/>
      <point x="414" y="104"/>
      <point x="424" y="158" type="qcurve"/>
      <point x="434" y="104"/>
      <point x="488" y="26"/>
      <point x="565" y="-12"/>
      <point x="613" y="-12" type="qcurve" smooth="yes"/>
      <point x="665" y="-12"/>
      <point x="738" y="22"/>
      <point x="782" y="102"/>
      <point x="782" y="130" type="qcurve"/>
      <point x="762" y="130" type="line"/>
      <point x="762" y="108"/>
      <point x="724" y="38"/>
      <point x="661" y="8"/>
      <point x="613" y="8" type="qcurve" smooth="yes"/>
      <point x="557" y="8"/>
      <point x="478" y="64"/>
      <point x="434" y="172"/>
      <point x="434" y="252" type="qcurve"/>
      <point x="794" y="252" type="line"/>
      <point x="794" y="272" type="line" smooth="yes"/>
      <point x="794" y="338"/>
      <point x="756" y="448"/>
      <point x="671" y="512"/>
      <point x="611" y="512" type="qcurve" smooth="yes"/>
      <point x="563" y="512"/>
      <point x="488" y="475"/>
      <point x="434" y="397"/>
      <point x="424" y="343" type="qcurve"/>
      <point x="414" y="397"/>
      <point x="360" y="475"/>
      <point x="288" y="512"/>
      <point x="240" y="512" type="qcurve" smooth="yes"/>
      <point x="178" y="512"/>
      <point x="94" y="450"/>
      <point x="46" y="336"/>
      <point x="46" y="250" type="qcurve" smooth="yes"/>
      <point x="46" y="164"/>
      <point x="94" y="50"/>
      <point x="178" y="-12"/>
    </contour>
    <contour>
      <point x="240" y="8" type="qcurve" smooth="yes"/>
      <point x="184" y="8"/>
      <point x="110" y="64"/>
      <point x="66" y="170"/>
      <point x="66" y="250" type="qcurve" smooth="yes"/>
      <point x="66" y="330"/>
      <point x="110" y="436"/>
      <point x="184" y="492"/>
      <point x="240" y="492" type="qcurve" smooth="yes"/>
      <point x="296" y="492"/>
      <point x="370" y="436"/>
      <point x="414" y="330"/>
      <point x="414" y="250" type="qcurve" smooth="yes"/>
      <point x="414" y="170"/>
      <point x="370" y="64"/>
      <point x="296" y="8"/>
    </contour>
    <contour>
      <point x="434" y="272" type="line"/>
      <point x="434" y="330"/>
      <point x="478" y="436"/>
      <point x="555" y="492"/>
      <point x="611" y="492" type="qcurve" smooth="yes"/>
      <point x="659" y="492"/>
      <point x="731" y="444"/>
      <point x="774" y="351"/>
      <point x="774" y="272" type="qcurve"/>
    </contour>
  </outline>
</glyph>
<glyph name="tbar" format="2">
  <advance width="380"/>
  <unicode hex="0167"/>
  <anchor x="216" y="0" name="bottom"/>
  <anchor x="160" y="500" name="top"/>
  <anchor x="166" y="720" name="topright"/>
  <outline>
    <contour>
      <point x="40" y="280" type="line"/>
      <point x="306" y="280" type="line"/>
      <point x="306" y="300" type="line"/>
      <point x="40" y="300" type="line"/>
    </contour>
    <component base="t"/>
  </outline>
</glyph>
<glyph name="Schwa" format="2">
  <advance width="740"/>
  <unicode hex="018F"/>
  <anchor x="360" y="0" name="bottom"/>
  <anchor x="360" y="720" name="top"/>
  <outline>
    <contour>
      <point x="370" y="-12" type="qcurve" smooth="yes"/>
      <point x="470" y="-12"/>
      <point x="604" y="84"/>
      <point x="668" y="264"/>
      <point x="668" y="370" type="qcurve" smooth="yes"/>
      <point x="668" y="476"/>
      <point x="593" y="643"/>
      <point x="450" y="732"/>
      <point x="358" y="732" type="qcurve" smooth="yes"/>
      <point x="274" y="732"/>
      <point x="157" y="677"/>
      <point x="92" y="588"/>
      <point x="92" y="550" type="qcurve"/>
      <point x="112" y="550" type="line"/>
      <point x="112" y="582"/>
      <point x="171" y="661"/>
      <point x="280" y="712"/>
      <point x="358" y="712" type="qcurve" smooth="yes"/>
      <point x="444" y="712"/>
      <point x="577" y="629"/>
      <point x="648" y="470"/>
      <point x="648" y="370" type="qcurve" smooth="yes"/>
      <point x="648" y="270"/>
      <point x="588" y="98"/>
      <point x="464" y="8"/>
      <point x="370" y="8" type="qcurve" smooth="yes"/>
      <point x="276" y="8"/>
      <point x="154" y="87"/>
      <point x="92" y="232"/>
      <point x="92" y="340" type="qcurve"/>
      <point x="658" y="340" type="line"/>
      <point x="658" y="360" type="line"/>
      <point x="72" y="360" type="line"/>
      <point x="72" y="340" type="line" smooth="yes"/>
      <point x="72" y="226"/>
      <point x="138" y="73"/>
      <point x="270" y="-12"/>
    </contour>
  </outline>
</glyph>
<glyph name="florin" format="2">
  <advance width="460"/>
  <unicode hex="0192"/>
  <outline>
    <contour>
      <point x="50" y="-200" type="line"/>
      <point x="72" y="-200" type="line"/>
      <point x="195" y="380" type="line"/>
      <point x="392" y="380" type="line"/>
      <point x="392" y="400" type="line"/>
      <point x="199" y="400" type="line"/>
      <point x="243" y="605" type="line" smooth="yes"/>
      <point x="254" y="658"/>
      <point x="307" y="700"/>
      <point x="362" y="700" type="qcurve" smooth="yes"/>
      <point x="432" y="700" type="line"/>
      <point x="432" y="720" type="line"/>
      <point x="362" y="720" type="line" smooth="yes"/>
      <point x="300" y="720"/>
      <point x="236" y="669"/>
      <point x="224" y="610" type="qcurve" smooth="yes"/>
      <point x="179" y="400" type="line"/>
      <point x="52" y="400" type="line"/>
      <point x="52" y="380" type="line"/>
      <point x="175" y="380" type="line"/>
    </contour>
  </outline>
</glyph>
<glyph name="Ezh" format="2">
  <advance width="604"/>
  <unicode hex="01B7"/>
  <anchor x="278" y="0" name="bottom"/>
  <anchor x="284" y="720" name="top"/>
  <outline>
    <contour>
      <point x="296" y="-8" type="qcurve" smooth="yes"/>
      <point x="368" y="-8"/>
      <point x="469" y="39"/>
      <point x="530" y="136"/>
      <point x="530" y="206" type="qcurve" smooth="yes"/>
      <point x="530" y="276"/>
      <point x="461" y="371"/>
      <point x="352" y="414"/>
      <point x="260" y="414" type="qcurve"/>
      <point x="511" y="704" type="line"/>
      <point x="511" y="720" type="line"/>
      <point x="90" y="720" type="line"/>
      <point x="90" y="700" type="line"/>
      <point x="482" y="700" type="line"/>
      <point x="230" y="408" type="line"/>
      <point x="230" y="394" type="line"/>
      <point x="258" y="394" type="line" smooth="yes"/>
      <point x="348" y="394"/>
      <point x="447" y="355"/>
      <point x="510" y="270"/>
      <point x="510" y="206" type="qcurve" smooth="yes"/>
      <point x="510" y="142"/>
      <point x="455" y="55"/>
      <point x="362" y="12"/>
      <point x="296" y="12" type="qcurve" smooth="yes"/>
      <point x="234" y="12"/>
      <point x="136" y="46"/>
      <point x="80" y="122"/>
      <point x="80" y="170" type="qcurve"/>
      <point x="60" y="170" type="line"/>
      <point x="60" y="114"/>
      <point x="124" y="30"/>
      <point x="228" y="-8"/>
    </contour>
  </outline>
</glyph>
<glyph name="jdotless" format="2">
  <advance width="256"/>
  <unicode hex="0237"/>
  <anchor x="127" y="-200" name="bottom"/>
  <anchor x="128" y="500" name="top"/>
  <outline>
    <contour>
      <point x="16" y="-200" type="line"/>
      <point x="24" y="-200" type="line" smooth="yes"/>
      <point x="82" y="-200"/>
      <point x="138" y="-143"/>
      <point x="138" y="-80" type="qcurve" smooth="yes"/>
      <point x="138" y="500" type="line"/>
      <point x="118" y="500" type="line"/>
      <point x="118" y="-74" type="line" smooth="yes"/>
      <point x="118" y="-131"/>
      <point x="73" y="-180"/>
      <point x="24" y="-180" type="qcurve" smooth="yes"/>
      <point x="16" y="-180" type="line"/>
    </contour>
  </outline>
</glyph>
<glyph name="ezh" format="2">
  <advance width="520"/>
  <unicode hex="0292"/>
  <anchor x="240" y="-200" name="bottom"/>
  <anchor x="229" y="500" name="top"/>
  <outline>
    <contour>
      <point x="244" y="-212" type="qcurve" smooth="yes"/>
      <point x="308" y="-212"/>
      <point x="400" y="-162"/>
      <point x="452" y="-68"/>
      <point x="452" y="0" type="qcurve"/>
      <point x="452" y="67"/>
      <point x="396" y="160"/>
      <point x="292" y="210"/>
      <point x="208" y="210" type="qcurve"/>
      <point x="424" y="480" type="line"/>
      <point x="424" y="500" type="line"/>
      <point x="54" y="500" type="line"/>
      <point x="54" y="480" type="line"/>
      <point x="398" y="480" type="line"/>
      <point x="182" y="210" type="line"/>
      <point x="182" y="190" type="line"/>
      <point x="204" y="190" type="line" smooth="yes"/>
      <point x="286" y="190"/>
      <point x="380" y="146"/>
      <point x="432" y="60"/>
      <point x="432" y="0" type="qcurve" smooth="yes"/>
      <point x="432" y="-60"/>
      <point x="386" y="-146"/>
      <point x="302" y="-192"/>
      <point x="244" y="-192" type="qcurve" smooth="yes"/>
      <point x="186" y="-192"/>
      <point x="106" y="-161"/>
      <point x="62" y="-100"/>
      <point x="62" y="-70" type="qcurve"/>
      <point x="42" y="-70" type="line"/>
      <point x="42" y="-106"/>
      <point x="90" y="-175"/>
      <point x="181" y="-212"/>
    </contour>
  </outline>
</glyph>
<glyph name="apostrophemod" format="2">
  <advance width="300"/>
  <unicode hex="02BC"/>
  <outline>
    <contour>
      <point x="112" y="460" type="line"/>
      <point x="134" y="460" type="line"/>
      <point x="190" y="720" type="line"/>
      <point x="168" y="720" type="line"/>
    </contour>
  </outline>
</glyph>
<glyph name="verticallinemod" format="2">
  <advance width="200"/>
  <unicode hex="02C8"/>
  <outline>
    <contour>
      <point x="90" y="460" type="line"/>
      <point x="110" y="460" type="line"/>
      <point x="110" y="720" type="line"/>
      <point x="90" y="720" type="line"/>
    </contour>
  </outline>
</glyph>
<glyph name="acutecomb" format="2">
  <unicode hex="0301"/>
  <anchor x="100" y="500" name="_top"/>
  <anchor x="100" y="720" name="top"/>
  <outline>
    <contour>
      <point x="80" y="580" type="line"/>
      <point x="104" y="580" type="line"/>
      <point x="178" y="720" type="line"/>
      <point x="154" y="720" type="line"/>
    </contour>
  </outline>
</glyph>
<glyph name="circumflexcomb" format="2">
  <unicode hex="0302"/>
  <anchor x="200" y="500" name="_top"/>
  <anchor x="200" y="720" name="top"/>
  <outline>
    <contour>
      <point x="82" y="560" type="line"/>
      <point x="108" y="560" type="line"/>
      <point x="199" y="700" type="line"/>
      <point x="292" y="560" type="line"/>
      <point x="318" y="560" type="line"/>
      <point x="210" y="720" type="line"/>
      <point x="190" y="720" type="line"/>
    </contour>
  </outline>
</glyph>
<glyph name="macroncomb" format="2">
  <unicode hex="0304"/>
  <anchor x="200" y="500" name="_top"/>
  <anchor x="200" y="720" name="top"/>
  <outline>
    <contour>
      <point x="60" y="620" type="line"/>
      <point x="340" y="620" type="line"/>
      <point x="340" y="640" type="line"/>
      <point x="60" y="640" type="line"/>
    </contour>
  </outline>
</glyph>
<glyph name="brevecomb" format="2">
  <unicode hex="0306"/>
  <anchor x="200" y="500" name="_top"/>
  <anchor x="200" y="720" name="top"/>
  <outline>
    <contour>
      <point x="200" y="578" type="qcurve" smooth="yes"/>
      <point x="240" y="578"/>
      <point x="298" y="608"/>
      <point x="334" y="670"/>
      <point x="334" y="720" type="qcurve"/>
      <point x="314" y="720" type="line"/>
      <point x="314" y="676"/>
      <point x="283" y="622"/>
      <point x="234" y="598"/>
      <point x="200" y="598" type="qcurve" smooth="yes"/>
      <point x="166" y="598"/>
      <point x="116" y="624"/>
      <point x="86" y="676"/>
      <point x="86" y="720" type="qcurve"/>
      <point x="66" y="720" type="line"/>
      <point x="66" y="670"/>
      <point x="102" y="608"/>
      <point x="160" y="578"/>
    </contour>
  </outline>
</glyph>
<glyph name="dotaccentcomb" format="2">
  <unicode hex="0307"/>
  <anchor x="100" y="500" name="_top"/>
  <anchor x="100" y="720" name="top"/>
  <outline>
    <contour>
      <point x="100" y="600" type="qcurve"/>
      <point x="114" y="600"/>
      <point x="130" y="617"/>
      <point x="130" y="628" type="qcurve" smooth="yes"/>
      <point x="130" y="632" type="line" smooth="yes"/>
      <point x="130" y="644"/>
      <point x="114" y="660"/>
      <point x="100" y="660" type="qcurve"/>
      <point x="87" y="660"/>
      <point x="70" y="643"/>
      <point x="70" y="632" type="qcurve" smooth="yes"/>
      <point x="70" y="628" type="line" smooth="yes"/>
      <point x="70" y="617"/>
      <point x="87" y="600"/>
    </contour>
  </outline>
</glyph>
<glyph name="ringcomb" format="2">
  <unicode hex="030A"/>
  <anchor x="150" y="500" name="_top"/>
  <anchor x="150" y="718" name="top"/>
  <outline>
    <contour>
      <point x="150" y="540" type="qcurve" smooth="yes"/>
      <point x="191" y="540"/>
      <point x="240" y="590"/>
      <point x="240" y="630" type="qcurve" smooth="yes"/>
      <point x="240" y="671"/>
      <point x="191" y="720"/>
      <point x="150" y="720" type="qcurve" smooth="yes"/>
      <point x="110" y="720"/>
      <point x="60" y="671"/>
      <point x="60" y="630" type="qcurve" smooth="yes"/>
      <point x="60" y="590"/>
      <point x="110" y="540"/>
    </contour>
    <contour>
      <point x="150" y="560" type="qcurve" smooth="yes"/>
      <point x="119" y="560"/>
      <point x="80" y="599"/>
      <point x="80" y="630" type="qcurve" smooth="yes"/>
      <point x="80" y="662"/>
      <point x="119" y="700"/>
      <point x="150" y="700" type="qcurve" smooth="yes"/>
      <point x="182" y="700"/>
      <point x="220" y="662"/>
      <point x="220" y="630" type="qcurve" smooth="yes"/>
      <point x="220" y="599"/>
      <point x="182" y="560"/>
    </contour>
  </outline>
</glyph>
<glyph name="commaaccentcomb" format="2">
  <unicode hex="0326"/>
  <anchor x="130" y="0" name="_bottom"/>
  <anchor x="130" y="-200" name="bottom"/>
  <outline>
    <contour>
      <point x="96" y="-160" type="line"/>
      <point x="117" y="-160" type="line"/>
      <point x="136" y="-60" type="line"/>
      <point x="115" y="-60" type="line"/>
    </contour>
  </outline>
</glyph>
<glyph name="cedillacomb" format="2">
  <unicode hex="0327"/>
  <anchor x="134" y="0" name="_bottom"/>
  <anchor x="145" y="-200" name="bottom"/>
  <outline>
    <contour>
      <point x="136" y="-200" type="qcurve" smooth="yes"/>
      <point x="177" y="-200"/>
      <point x="222" y="-165"/>
      <point x="222" y="-134" type="qcurve" smooth="yes"/>
      <point x="222" y="-98"/>
      <point x="168" y="-60"/>
      <point x="120" y="-60" type="qcurve"/>
      <point x="144" y="0" type="line"/>
      <point x="127" y="6" type="line"/>
      <point x="98" y="-64" type="line"/>
      <point x="98" y="-78" type="line"/>
      <point x="152" y="-78"/>
      <point x="202" y="-104"/>
      <point x="202" y="-134" type="qcurve" smooth="yes"/>
      <point x="202" y="-158"/>
      <point x="168" y="-180"/>
      <point x="138" y="-180" type="qcurve" smooth="yes"/>
      <point x="111" y="-180"/>
      <point x="78" y="-170" type="qcurve"/>
      <point x="78" y="-191" type="line"/>
      <point x="111" y="-200"/>
    </contour>
  </outline>
</glyph>
<glyph name="ogonekcomb" format="2">
  <unicode hex="0328"/>
  <anchor x="174" y="0" name="_ogonek"/>
  <outline>
    <contour>
      <point x="153" y="-200" type="qcurve" smooth="yes"/>
      <point x="173" y="-200"/>
      <point x="207" y="-186"/>
      <point x="219" y="-176" type="qcurve"/>
      <point x="219" y="-152" type="line"/>
      <point x="203" y="-166"/>
      <point x="169" y="-180"/>
      <point x="153" y="-180" type="qcurve" smooth="yes"/>
      <point x="128" y="-180"/>
      <point x="99" y="-147"/>
      <point x="99" y="-120" type="qcurve" smooth="yes"/>
      <point x="99" y="-89"/>
      <point x="143" y="-24"/>
      <point x="181" y="0" type="qcurve"/>
      <point x="164" y="10" type="line"/>
      <point x="126" y="-12"/>
      <point x="79" y="-84"/>
      <point x="79" y="-122" type="qcurve" smooth="yes"/>
      <point x="79" y="-158"/>
      <point x="119" y="-200"/>
    </contour>
  </outline>
</glyph>
<glyph name="strokeshortcomb" format="2">
  <unicode hex="0335"/>
  <anchor x="200" y="260" name="_center"/>
  <outline>
    <contour>
      <point x="20" y="250" type="line"/>
      <point x="380" y="250" type="line"/>
      <point x="380" y="270" type="line"/>
      <point x="20" y="270" type="line"/>
    </contour>
  </outline>
</glyph>
<glyph name="Xi" format="2">
  <advance width="520"/>
  <unicode hex="039E"/>
  <outline>
    <contour>
      <point x="56" y="700" type="line"/>
      <point x="464" y="700" type="line"/>
      <point x="464" y="720" type="line"/>
      <point x="56" y="720" type="line"/>
    </contour>
    <contour>
      <point x="56" y="0" type="line"/>
      <point x="464" y="0" type="line"/>
      <point x="464" y="20" type="line"/>
      <point x="56" y="20" type="line"/>
    </contour>
    <contour>
      <point x="116" y="350" type="line"/>
      <point x="404" y="350" type="line"/>
      <point x="404" y="370" type="line"/>
      <point x="116" y="370" type="line"/>
    </contour>
  </outline>
</glyph>
<glyph name="Omega" format="2">
  <advance width="770"/>
  <unicode hex="03A9"/>
  <outline>
    <contour>
      <point x="72" y="0" type="line"/>
      <point x="328" y="0" type="line"/>
      <point x="328" y="20" type="line"/>
      <point x="260" y="30"/>
      <point x="154" y="134"/>
      <point x="97" y="292"/>
      <point x="97" y="380" type="qcurve" smooth="yes"/>
      <point x="97" y="474"/>
      <point x="164" y="624"/>
      <point x="294" y="712"/>
      <point x="385" y="712" type="qcurve" smooth="yes"/>
      <point x="477" y="712"/>
      <point x="607" y="624"/>
      <point x="673" y="473"/>
      <point x="673" y="380" type="qcurve" smooth="yes"/>
      <point x="673" y="295"/>
      <point x="616" y="137"/>
      <point x="511" y="30"/>
      <point x="442" y="20" type="qcurve"/>
      <point x="442" y="0" type="line"/>
      <point x="698" y="0" type="line"/>
      <point x="698" y="20" type="line"/>
      <point x="498" y="20" type="line"/>
      <point x="534" y="28"/>
      <point x="630" y="122"/>
      <point x="693" y="287"/>
      <point x="693" y="380" type="qcurve" smooth="yes"/>
      <point x="693" y="482"/>
      <point x="619" y="642"/>
      <point x="480" y="732"/>
      <point x="385" y="732" type="qcurve" smooth="yes"/>
      <point x="290" y="732"/>
      <point x="151" y="642"/>
      <point x="77" y="483"/>
      <point x="77" y="380" type="qcurve" smooth="yes"/>
      <point x="77" y="286"/>
      <point x="137" y="122"/>
      <point x="236" y="28"/>
      <point x="272" y="20" type="qcurve"/>
      <point x="72" y="20" type="line"/>
    </contour>
  </outline>
</glyph>
<glyph name="delta" format="2">
  <advance width="540"/>
  <unicode hex="03B4"/>
  <outline>
    <contour>
      <point x="270" y="-12" type="qcurve" smooth="yes"/>
      <point x="336" y="-12"/>
      <point x="422" y="44"/>
      <point x="472" y="146"/>
      <point x="472" y="232" type="qcurve" smooth="yes"/>
      <point x="472" y="318"/>
      <point x="422" y="420"/>
      <point x="355" y="466"/>
      <point x="295" y="486"/>
      <point x="242" y="509"/>
      <point x="178" y="538"/>
      <point x="136" y="584"/>
      <point x="136" y="616" type="qcurve" smooth="yes"/>
      <point x="136" y="640"/>
      <point x="166" y="678"/>
      <point x="214" y="694"/>
      <point x="242" y="694" type="qcurve" smooth="yes"/>
      <point x="284" y="694"/>
      <point x="353" y="678"/>
      <point x="412" y="657"/>
      <point x="450" y="640" type="qcurve"/>
      <point x="450" y="662" type="line"/>
      <point x="418" y="677"/>
      <point x="359" y="698"/>
      <point x="290" y="714"/>
      <point x="242" y="714" type="qcurve" smooth="yes"/>
      <point x="208" y="714"/>
      <point x="150" y="692"/>
      <point x="116" y="648"/>
      <point x="116" y="616" type="qcurve" smooth="yes"/>
      <point x="116" y="578"/>
      <point x="164" y="523"/>
      <point x="234" y="490"/>
      <point x="270" y="476" type="qcurve"/>
      <point x="204" y="476"/>
      <point x="118" y="420"/>
      <point x="68" y="318"/>
      <point x="68" y="232" type="qcurve" smooth="yes"/>
      <point x="68" y="146"/>
      <point x="118" y="44"/>
      <point x="204" y="-12"/>
    </contour>
    <contour>
      <point x="270" y="8" type="qcurve" smooth="yes"/>
      <point x="210" y="8"/>
      <point x="134" y="58"/>
      <point x="88" y="152"/>
      <point x="88" y="232" type="qcurve" smooth="yes"/>
      <point x="88" y="312"/>
      <point x="134" y="406"/>
      <point x="210" y="456"/>
      <point x="270" y="456" type="qcurve" smooth="yes"/>
      <point x="330" y="456"/>
      <point x="406" y="406"/>
      <point x="452" y="312"/>
      <point x="452" y="232" type="qcurve" smooth="yes"/>
      <point x="452" y="152"/>
      <point x="406" y="58"/>
      <point x="330" y="8"/>
    </contour>
  </outline>
</glyph>
<glyph name="xi" format="2">
  <advance width="520"/>
  <unicode hex="03BE"/>
  <outline>
    <contour>
      <point x="442" y="-160" type="line"/>
      <point x="455" y="-141"/>
      <point x="476" y="-89"/>
      <point x="476" y="-66" type="qcurve" smooth="yes"/>
      <point x="476" y="-37"/>
      <point x="452" y="5"/>
      <point x="407" y="37"/>
      <point x="369" y="52" type="qcurve" smooth="yes"/>
      <point x="259" y="94" type="line" smooth="yes"/>
      <point x="224" y="107"/>
      <point x="146" y="147"/>
      <point x="98" y="207"/>
      <point x="98" y="244" type="qcurve" smooth="yes"/>
      <point x="98" y="290"/>
      <point x="152" y="348"/>
      <point x="252" y="370"/>
      <point x="362" y="370" type="qcurve" smooth="yes"/>
      <point x="428" y="370" type="line"/>
      <point x="428" y="390" type="line"/>
      <point x="363" y="390" type="line" smooth="yes"/>
      <point x="289" y="390"/>
      <point x="184" y="421"/>
      <point x="128" y="478"/>
      <point x="128" y="524" type="qcurve" smooth="yes"/>
      <point x="128" y="563"/>
      <point x="180" y="627"/>
      <point x="299" y="672"/>
      <point x="381" y="686" type="qcurve" smooth="yes"/>
      <point x="463" y="700" type="line"/>
      <point x="463" y="720" type="line"/>
      <point x="111" y="720" type="line"/>
      <point x="111" y="700" type="line"/>
      <point x="370" y="700" type="line"/>
      <point x="285" y="688"/>
      <point x="166" y="641"/>
      <point x="108" y="568"/>
      <point x="108" y="524" type="qcurve" smooth="yes"/>
      <point x="108" y="467"/>
      <point x="187" y="396"/>
      <point x="255" y="384" type="qcurve"/>
      <point x="167" y="382"/>
      <point x="78" y="306"/>
      <point x="78" y="244" type="qcurve" smooth="yes"/>
      <point x="78" y="200"/>
      <point x="130" y="134"/>
      <point x="215" y="89"/>
      <point x="253" y="75" type="qcurve" smooth="yes"/>
      <point x="363" y="33" type="line" smooth="yes"/>
      <point x="392" y="22"/>
      <point x="435" y="-7"/>
      <point x="456" y="-44"/>
      <point x="456" y="-66" type="qcurve" smooth="yes"/>
      <point x="456" y="-90"/>
      <point x="433" y="-140"/>
      <point x="419" y="-160" type="qcurve"/>
    </contour>
  </outline>
</glyph>
<glyph name="pi" format="2">
  <advance width="660"/>
  <unicode hex="03C0"/>
  <outline>
    <contour>
      <point x="158" y="0" type="line"/>
      <point x="178" y="0" type="line"/>
      <point x="178" y="480" type="line"/>
      <point x="482" y="480" type="line"/>
      <point x="482" y="0" type="line"/>
      <point x="502" y="0" type="line"/>
      <point x="502" y="480" type="line"/>
      <point x="616" y="480" type="line"/>
      <point x="616" y="500" type="line"/>
      <point x="44" y="500" type="line"/>
      <point x="44" y="480" type="line"/>
      <point x="158" y="480" type="line"/>
    </contour>
  </outline>
</glyph>
<glyph name="Dje-cy" format="2">
  <advance width="820"/>
  <unicode hex="0402"/>
  <outline>
    <contour>
      <point x="305" y="0" type="line"/>
      <point x="325" y="0" type="line"/>
      <point x="325" y="700" type="line"/>
      <point x="708" y="700" type="line"/>
      <point x="708" y="720" type="line"/>
      <point x="40" y="720" type="line"/>
      <point x="40" y="700" type="line"/>
      <point x="305" y="700" type="line"/>
    </contour>
    <component base="paunch-1" xOffset="304"/>
  </outline>
</glyph>
<glyph name="Lje-cy" format="2">
  <advance width="1030"/>
  <unicode hex="0409"/>
  <outline>
    <contour>
      <point x="552" y="20" type="line"/>
      <point x="552" y="404" type="line"/>
      <point x="730" y="404" type="line" smooth="yes"/>
      <point x="794" y="404"/>
      <point x="900" y="360"/>
      <point x="956" y="270"/>
      <point x="956" y="212" type="qcurve" smooth="yes"/>
      <point x="956" y="154"/>
      <point x="900" y="64"/>
      <point x="794" y="20"/>
      <point x="730" y="20" type="qcurve" smooth="yes"/>
    </contour>
    <contour>
      <point x="552" y="720" type="line"/>
      <point x="203" y="720" type="line"/>
      <point x="203" y="491" type="line" smooth="yes"/>
      <point x="203" y="264"/>
      <point x="182" y="106"/>
      <point x="142" y="41"/>
      <point x="84" y="20"/>
      <point x="40" y="20" type="qcurve"/>
      <point x="40" y="0" type="line"/>
      <point x="88" y="0"/>
      <point x="155" y="24"/>
      <point x="201" y="96"/>
      <point x="223" y="261"/>
      <point x="223" y="489" type="qcurve" smooth="yes"/>
      <point x="223" y="700" type="line"/>
      <point x="532" y="700" type="line"/>
      <point x="532" y="0" type="line"/>
      <point x="730" y="0" type="line" smooth="yes"/>
      <point x="798" y="0"/>
      <point x="914" y="48"/>
      <point x="976" y="148"/>
      <point x="976" y="212" type="qcurve" smooth="yes"/>
      <point x="976" y="276"/>
      <point x="914" y="376"/>
      <point x="798" y="424"/>
      <point x="730" y="424" type="qcurve" smooth="yes"/>
      <point x="552" y="424" type="line"/>
    </contour>
  </outline>
</glyph>
<glyph name="Nje-cy" format="2">
  <advance width="1060"/>
  <unicode hex="040A"/>
  <anchor x="340" y="0" name="bottom"/>
  <anchor x="340" y="720" name="top"/>
  <outline>
    <contour>
      <point x="566" y="380" type="line"/>
      <point x="566" y="360" type="line"/>
      <point x="782" y="360" type="line" smooth="yes"/>
      <point x="842" y="360"/>
      <point x="932" y="322"/>
      <point x="986" y="240"/>
      <point x="986" y="190" type="qcurve" smooth="yes"/>
      <point x="986" y="140"/>
      <point x="932" y="58"/>
      <point x="842" y="20"/>
      <point x="782" y="20" type="qcurve" smooth="yes"/>
      <point x="566" y="20" type="line"/>
      <point x="566" y="0" type="line"/>
      <point x="782" y="0" type="line" smooth="yes"/>
      <point x="848" y="0"/>
      <point x="946" y="42"/>
      <point x="1006" y="134"/>
      <point x="1006" y="190" type="qcurve" smooth="yes"/>
      <point x="1006" y="246"/>
      <point x="948" y="336"/>
      <point x="849" y="380"/>
      <point x="782" y="380" type="qcurve" smooth="yes"/>
    </contour>
    <component base="H"/>
  </outline>
</glyph>
<glyph name="Tshe-cy" format="2">
  <advance width="776"/>
  <unicode hex="040B"/>
  <anchor x="250" y="0" name="bottom"/>
  <anchor x="250" y="720" name="top"/>
  <outline>
    <contour>
      <point x="20" y="700" type="line"/>
      <point x="480" y="700" type="line"/>
      <point x="480" y="720" type="line"/>
      <point x="20" y="720" type="line"/>
    </contour>
    <component base="Che-cy" xScale="-1.0" yScale="-1.0" xOffset="776" yOffset="720"/>
  </outline>
</glyph>
<glyph name="Be-cy" format="2">
  <advance width="612"/>
  <unicode hex="0411"/>
  <outline>
    <contour>
      <point x="104" y="0" type="line"/>
      <point x="302" y="0" type="line" smooth="yes"/>
      <point x="386" y="0"/>
      <point x="484" y="50"/>
      <point x="538" y="141"/>
      <point x="538" y="208" type="qcurve" smooth="yes"/>
      <point x="538" y="274"/>
      <point x="484" y="366"/>
      <point x="386" y="416"/>
      <point x="302" y="416" type="qcurve" smooth="yes"/>
      <point x="124" y="416" type="line"/>
      <point x="124" y="700" type="line"/>
      <point x="512" y="700" type="line"/>
      <point x="512" y="720" type="line"/>
      <point x="104" y="720" type="line"/>
    </contour>
    <contour>
      <point x="124" y="20" type="line"/>
      <point x="124" y="396" type="line"/>
      <point x="300" y="396" type="line" smooth="yes"/>
      <point x="380" y="396"/>
      <point x="470" y="350"/>
      <point x="518" y="268"/>
      <point x="518" y="208" type="qcurve" smooth="yes"/>
      <point x="518" y="149"/>
      <point x="470" y="66"/>
      <point x="380" y="20"/>
      <point x="300" y="20" type="qcurve" smooth="yes"/>
    </contour>
  </outline>
</glyph>
<glyph name="De-cy" format="2">
  <advance width="732"/>
  <unicode hex="0414"/>
  <outline>
    <contour>
      <point x="48" y="-160" type="line"/>
      <point x="68" y="-160" type="line"/>
      <point x="68" y="0" type="line"/>
      <point x="658" y="0" type="line"/>
      <point x="658" y="-160" type="line"/>
      <point x="678" y="-160" type="line"/>
      <point x="678" y="20" type="line"/>
      <point x="578" y="20" type="line"/>
      <point x="578" y="720" type="line"/>
      <point x="177" y="720" type="line"/>
      <point x="177" y="448" type="line" smooth="yes"/>
      <point x="177" y="210"/>
      <point x="142" y="50"/>
      <point x="111" y="20" type="qcurve"/>
      <point x="48" y="20" type="line"/>
    </contour>
    <contour>
      <point x="137" y="20" type="line"/>
      <point x="161" y="47"/>
      <point x="197" y="210"/>
      <point x="197" y="448" type="qcurve" smooth="yes"/>
      <point x="197" y="700" type="line"/>
      <point x="558" y="700" type="line"/>
      <point x="558" y="20" type="line"/>
    </contour>
  </outline>
</glyph>
<glyph name="Zhe-cy" format="2">
  <advance width="1000"/>
  <unicode hex="0416"/>
  <anchor x="501" y="0" name="bottom"/>
  <anchor x="501" y="720" name="top"/>
  <outline>
    <contour>
      <point x="328" y="360" type="line"/>
      <point x="672" y="360" type="line"/>
      <point x="924" y="0" type="line"/>
      <point x="950" y="0" type="line"/>
      <point x="692" y="370" type="line"/>
      <point x="950" y="719" type="line"/>
      <point x="924" y="719" type="line"/>
      <point x="672" y="380" type="line"/>
      <point x="328" y="380" type="line"/>
      <point x="76" y="719" type="line"/>
      <point x="50" y="719" type="line"/>
      <point x="308" y="370" type="line"/>
      <point x="50" y="0" type="line"/>
      <point x="76" y="0" type="line"/>
    </contour>
    <contour>
      <point x="510" y="0" type="line"/>
      <point x="510" y="721" type="line"/>
      <point x="490" y="721" type="line"/>
      <point x="490" y="0" type="line"/>
    </contour>
  </outline>
</glyph>
<glyph name="Ze-cy" format="2">
  <advance width="620"/>
  <unicode hex="0417"/>
  <anchor x="312" y="0" name="bottom"/>
  <anchor x="312" y="720" name="top"/>
  <outline>
    <contour>
      <point x="314" y="-12" type="qcurve" smooth="yes"/>
      <point x="382" y="-12"/>
      <point x="486" y="33"/>
      <point x="546" y="124"/>
      <point x="546" y="190" type="qcurve" smooth="yes"/>
      <point x="546" y="246"/>
      <point x="496" y="326"/>
      <point x="418" y="366"/>
      <point x="382" y="370" type="qcurve"/>
      <point x="412" y="374"/>
      <point x="488" y="420"/>
      <point x="530" y="498"/>
      <point x="530" y="542" type="qcurve" smooth="yes"/>
      <point x="530" y="604"/>
      <point x="470" y="689"/>
      <point x="374" y="732"/>
      <point x="310" y="732" type="qcurve" smooth="yes"/>
      <point x="242" y="732"/>
      <point x="139" y="693"/>
      <point x="68" y="604"/>
      <point x="68" y="550" type="qcurve"/>
      <point x="88" y="550" type="line"/>
      <point x="88" y="598"/>
      <point x="151" y="677"/>
      <point x="248" y="712"/>
      <point x="310" y="712" type="qcurve" smooth="yes"/>
      <point x="368" y="712"/>
      <point x="454" y="675"/>
      <point x="510" y="598"/>
      <point x="510" y="542" type="qcurve" smooth="yes"/>
      <point x="510" y="500"/>
      <point x="466" y="424"/>
      <point x="366" y="380"/>
      <point x="306" y="380" type="qcurve" smooth="yes"/>
      <point x="224" y="380" type="line"/>
      <point x="224" y="360" type="line"/>
      <point x="306" y="360" type="line" smooth="yes"/>
      <point x="366" y="360"/>
      <point x="472" y="320"/>
      <point x="526" y="244"/>
      <point x="526" y="190" type="qcurve" smooth="yes"/>
      <point x="526" y="130"/>
      <point x="472" y="49"/>
      <point x="376" y="8"/>
      <point x="314" y="8" type="qcurve" smooth="yes"/>
      <point x="244" y="8"/>
      <point x="145" y="45"/>
      <point x="84" y="122"/>
      <point x="84" y="170" type="qcurve"/>
      <point x="64" y="170" type="line"/>
      <point x="64" y="116"/>
      <point x="131" y="29"/>
      <point x="238" y="-12"/>
    </contour>
  </outline>
</glyph>
<glyph name="Ka-cy" format="2">
  <advance width="680"/>
  <unicode hex="041A"/>
  <anchor x="160" y="580" name="center"/>
  <anchor x="320" y="720" name="top"/>
  <outline>
    <contour>
      <point x="124" y="0" type="line"/>
      <point x="124" y="720" type="line"/>
      <point x="104" y="720" type="line"/>
      <point x="104" y="0" type="line"/>
    </contour>
    <contour>
      <point x="600" y="0" type="line"/>
      <point x="626" y="0" type="line"/>
      <point x="378" y="370" type="line"/>
      <point x="352" y="370" type="line"/>
    </contour>
    <contour>
      <point x="352" y="366" type="line"/>
      <point x="378" y="366" type="line"/>
      <point x="626" y="720" type="line"/>
      <point x="600" y="720" type="line"/>
    </contour>
    <contour>
      <point x="114" y="380" type="line"/>
      <point x="114" y="360" type="line"/>
      <point x="368" y="360" type="line"/>
      <point x="368" y="380" type="line"/>
    </contour>
  </outline>
</glyph>
<glyph name="El-cy" format="2">
  <advance width="680"/>
  <unicode hex="041B"/>
  <outline>
    <contour>
      <point x="40" y="0" type="line"/>
      <point x="88" y="0"/>
      <point x="155" y="24"/>
      <point x="201" y="96"/>
      <point x="223" y="261"/>
      <point x="223" y="489" type="qcurve" smooth="yes"/>
      <point x="223" y="700" type="line"/>
      <point x="556" y="700" type="line"/>
      <point x="556" y="0" type="line"/>
      <point x="576" y="0" type="line"/>
      <point x="576" y="720" type="line"/>
      <point x="203" y="720" type="line"/>
      <point x="203" y="491" type="line" smooth="yes"/>
      <point x="203" y="264"/>
      <point x="182" y="106"/>
      <point x="142" y="41"/>
      <point x="84" y="20"/>
      <point x="40" y="20" type="qcurve"/>
    </contour>
  </outline>
</glyph>
<glyph name="Pe-cy" format="2">
  <advance width="680"/>
  <unicode hex="041F"/>
  <outline>
    <contour>
      <point x="104" y="0" type="line"/>
      <point x="124" y="0" type="line"/>
      <point x="124" y="700" type="line"/>
      <point x="556" y="700" type="line"/>
      <point x="556" y="0" type="line"/>
      <point x="576" y="0" type="line"/>
      <point x="576" y="720" type="line"/>
      <point x="104" y="720" type="line"/>
    </contour>
  </outline>
</glyph>
<glyph name="U-cy" format="2">
  <advance width="660"/>
  <unicode hex="0423"/>
  <anchor x="324" y="720" name="top"/>
  <outline>
    <contour>
      <point x="124" y="0" type="line"/>
      <point x="176" y="0" type="line" smooth="yes"/>
      <point x="229" y="0"/>
      <point x="293" y="41"/>
      <point x="328" y="102"/>
      <point x="354" y="162" type="qcurve" smooth="yes"/>
      <point x="600" y="720" type="line"/>
      <point x="578" y="720" type="line"/>
      <point x="348" y="196" type="line"/>
      <point x="82" y="720" type="line"/>
      <point x="60" y="720" type="line"/>
      <point x="337" y="174" type="line"/>
      <point x="311" y="114"/>
      <point x="279" y="58"/>
      <point x="222" y="20"/>
      <point x="176" y="20" type="qcurve" smooth="yes"/>
      <point x="124" y="20" type="line"/>
    </contour>
  </outline>
</glyph>
<glyph name="Ef-cy" format="2">
  <advance width="940"/>
  <unicode hex="0424"/>
  <outline>
    <contour>
      <point x="460" y="-12" type="line"/>
      <point x="480" y="-12" type="line"/>
      <point x="480" y="90" type="line"/>
      <point x="628" y="90" type="line" smooth="yes"/>
      <point x="718" y="90"/>
      <point x="832" y="146"/>
      <point x="888" y="260"/>
      <point x="888" y="350" type="qcurve" smooth="yes"/>
      <point x="888" y="390" type="line" smooth="yes"/>
      <point x="888" y="480"/>
      <point x="832" y="594"/>
      <point x="718" y="650"/>
      <point x="628" y="650" type="qcurve" smooth="yes"/>
      <point x="480" y="650" type="line"/>
      <point x="480" y="732" type="line"/>
      <point x="460" y="732" type="line"/>
      <point x="460" y="650" type="line"/>
      <point x="312" y="650" type="line" smooth="yes"/>
      <point x="222" y="650"/>
      <point x="108" y="594"/>
      <point x="52" y="480"/>
      <point x="52" y="390" type="qcurve" smooth="yes"/>
      <point x="52" y="350" type="line" smooth="yes"/>
      <point x="52" y="260"/>
      <point x="108" y="146"/>
      <point x="222" y="90"/>
      <point x="312" y="90" type="qcurve" smooth="yes"/>
      <point x="460" y="90" type="line"/>
    </contour>
    <contour>
      <point x="312" y="110" type="line" smooth="yes"/>
      <point x="228" y="110"/>
      <point x="122" y="160"/>
      <point x="72" y="266"/>
      <point x="72" y="350" type="qcurve" smooth="yes"/>
      <point x="72" y="390" type="line" smooth="yes"/>
      <point x="72" y="474"/>
      <point x="122" y="580"/>
      <point x="228" y="630"/>
      <point x="312" y="630" type="qcurve" smooth="yes"/>
      <point x="460" y="630" type="line"/>
      <point x="460" y="110" type="line"/>
    </contour>
    <contour>
      <point x="480" y="110" type="line"/>
      <point x="480" y="630" type="line"/>
      <point x="628" y="630" type="line" smooth="yes"/>
      <point x="712" y="630"/>
      <point x="818" y="580"/>
      <point x="868" y="474"/>
      <point x="868" y="390" type="qcurve" smooth="yes"/>
      <point x="868" y="350" type="line" smooth="yes"/>
      <point x="868" y="266"/>
      <point x="818" y="160"/>
      <point x="712" y="110"/>
      <point x="628" y="110" type="qcurve" smooth="yes"/>
    </contour>
  </outline>
</glyph>
<glyph name="Tse-cy" format="2">
  <advance width="740"/>
  <unicode hex="0426"/>
  <outline>
    <contour>
      <point x="666" y="-160" type="line"/>
      <point x="686" y="-160" type="line"/>
      <point x="686" y="20" type="line"/>
      <point x="576" y="20" type="line"/>
      <point x="576" y="720" type="line"/>
      <point x="556" y="720" type="line"/>
      <point x="556" y="20" type="line"/>
      <point x="124" y="20" type="line"/>
      <point x="124" y="720" type="line"/>
      <point x="104" y="720" type="line"/>
      <point x="104" y="0" type="line"/>
      <point x="666" y="0" type="line"/>
    </contour>
  </outline>
</glyph>
<glyph name="Che-cy" format="2">
  <advance width="640"/>
  <unicode hex="0427"/>
  <anchor x="312" y="720" name="top"/>
  <outline>
    <contour>
      <point x="516" y="0" type="line"/>
      <point x="536" y="0" type="line"/>
      <point x="536" y="720" type="line"/>
      <point x="516" y="720" type="line"/>
      <point x="516" y="324" type="line"/>
      <point x="456" y="306"/>
      <point x="357" y="290"/>
      <point x="300" y="290" type="qcurve" smooth="yes"/>
      <point x="194" y="290"/>
      <point x="90" y="390"/>
      <point x="90" y="500" type="qcurve" smooth="yes"/>
      <point x="90" y="720" type="line"/>
      <point x="70" y="720" type="line"/>
      <point x="70" y="500" type="line" smooth="yes"/>
      <point x="70" y="382"/>
      <point x="188" y="270"/>
      <point x="300" y="270" type="qcurve" smooth="yes"/>
      <point x="356" y="270"/>
      <point x="455" y="285"/>
      <point x="516" y="302" type="qcurve"/>
    </contour>
  </outline>
</glyph>
<glyph name="Sha-cy" format="2">
  <advance width="980"/>
  <unicode hex="0428"/>
  <outline>
    <contour>
      <point x="104" y="0" type="line"/>
      <point x="876" y="0" type="line"/>
      <point x="876" y="720" type="line"/>
      <point x="856" y="720" type="line"/>
      <point x="856" y="20" type="line"/>
      <point x="500" y="20" type="line"/>
      <point x="500" y="720" type="line"/>
      <point x="480" y="720" type="line"/>
      <point x="480" y="20" type="line"/>
      <point x="124" y="20" type="line"/>
      <point x="124" y="720" type="line"/>
      <point x="104" y="720" type="line"/>
    </contour>
  </outline>
</glyph>
<glyph name="Shcha-cy" format="2">
  <advance width="1036"/>
  <unicode hex="0429"/>
  <outline>
    <contour>
      <point x="962" y="-160" type="line"/>
      <point x="982" y="-160" type="line"/>
      <point x="982" y="20" type="line"/>
      <point x="872" y="20" type="line"/>
      <point x="872" y="720" type="line"/>
      <point x="852" y="720" type="line"/>
      <point x="852" y="20" type="line"/>
      <point x="498" y="20" type="line"/>
      <point x="498" y="720" type="line"/>
      <point x="478" y="720" type="line"/>
      <point x="478" y="20" type="line"/>
      <point x="124" y="20" type="line"/>
      <point x="124" y="720" type="line"/>
      <point x="104" y="720" type="line"/>
      <point x="104" y="0" type="line"/>
      <point x="962" y="0" type="line"/>
    </contour>
  </outline>
</glyph>
<glyph name="Hardsign-cy" format="2">
  <advance width="700"/>
  <unicode hex="042A"/>
  <anchor x="418" y="720" name="top"/>
  <anchor x="418" y="0" name="bottom"/>
  <outline>
    <contour>
      <point x="48" y="700" type="line"/>
      <point x="218" y="700" type="line"/>
      <point x="218" y="720" type="line"/>
      <point x="48" y="720" type="line"/>
    </contour>
    <component base="Softsign-cy" xOffset="100"/>
  </outline>
</glyph>
<glyph name="Yeru-cy" format="2">
  <advance width="840"/>
  <unicode hex="042B"/>
  <anchor x="402" y="0" name="bottom"/>
  <anchor x="730" y="0" name="ogonek"/>
  <anchor x="422" y="720" name="top"/>
  <outline>
    <contour>
      <point x="104" y="0" type="line"/>
      <point x="302" y="0" type="line" smooth="yes"/>
      <point x="378" y="0"/>
      <point x="484" y="50"/>
      <point x="546" y="146"/>
      <point x="546" y="212" type="qcurve" smooth="yes"/>
      <point x="546" y="278"/>
      <point x="484" y="374"/>
      <point x="378" y="424"/>
      <point x="302" y="424" type="qcurve" smooth="yes"/>
      <point x="124" y="424" type="line"/>
      <point x="124" y="720" type="line"/>
      <point x="104" y="720" type="line"/>
    </contour>
    <contour>
      <point x="124" y="20" type="line"/>
      <point x="124" y="404" type="line"/>
      <point x="300" y="404" type="line" smooth="yes"/>
      <point x="370" y="404"/>
      <point x="468" y="360"/>
      <point x="526" y="272"/>
      <point x="526" y="212" type="qcurve" smooth="yes"/>
      <point x="526" y="152"/>
      <point x="468" y="64"/>
      <point x="370" y="20"/>
      <point x="300" y="20" type="qcurve" smooth="yes"/>
    </contour>
    <component base="I" xOffset="591"/>
  </outline>
</glyph>
<glyph name="Ereversed-cy" format="2">
  <advance width="680"/>
  <unicode hex="042D"/>
  <anchor x="314" y="0" name="bottom"/>
  <anchor x="316" y="720" name="top"/>
  <outline>
    <contour>
      <point x="240" y="356" type="line"/>
      <point x="596" y="356" type="line"/>
      <point x="596" y="376" type="line"/>
      <point x="240" y="376" type="line"/>
    </contour>
    <component base="C" xScale="-1" xOffset="680"/>
  </outline>
</glyph>
<glyph name="Yu-cy" format="2">
  <advance width="1000"/>
  <unicode hex="042E"/>
  <anchor x="620" y="0" name="bottom"/>
  <anchor x="717" y="10" name="ogonek"/>
  <anchor x="476" y="720" name="top"/>
  <anchor x="250" y="720" name="topleft"/>
  <outline>
    <contour>
      <point x="104" y="0" type="line"/>
      <point x="124" y="0" type="line"/>
      <point x="124" y="350" type="line"/>
      <point x="318" y="350" type="line"/>
      <point x="318" y="370" type="line"/>
      <point x="124" y="370" type="line"/>
      <point x="124" y="720" type="line"/>
      <point x="104" y="720" type="line"/>
    </contour>
    <component base="O" xOffset="240"/>
  </outline>
</glyph>
<glyph name="be-cy" format="2">
  <advance width="560"/>
  <unicode hex="0431"/>
  <outline>
    <contour>
      <point x="280" y="-12" type="qcurve" smooth="yes"/>
      <point x="346" y="-12"/>
      <point x="440" y="50"/>
      <point x="492" y="160"/>
      <point x="492" y="246" type="qcurve" smooth="yes"/>
      <point x="492" y="332"/>
      <point x="440" y="442"/>
      <point x="346" y="504"/>
      <point x="280" y="504" type="qcurve" smooth="yes"/>
      <point x="228" y="504"/>
      <point x="146" y="464"/>
      <point x="94" y="396"/>
      <point x="88" y="364" type="qcurve"/>
      <point x="94" y="494"/>
      <point x="133" y="614"/>
      <point x="221" y="692"/>
      <point x="300" y="700" type="qcurve" smooth="yes"/>
      <point x="360" y="706" type="line" smooth="yes"/>
      <point x="398" y="710"/>
      <point x="462" y="725"/>
      <point x="478" y="739" type="qcurve"/>
      <point x="478" y="761" type="line"/>
      <point x="456" y="745"/>
      <point x="396" y="730"/>
      <point x="358" y="726" type="qcurve" smooth="yes"/>
      <point x="298" y="720" type="line" smooth="yes"/>
      <point x="211" y="711"/>
      <point x="114" y="626"/>
      <point x="74" y="496"/>
      <point x="68" y="334"/>
      <point x="68" y="246" type="qcurve" smooth="yes"/>
      <point x="68" y="160"/>
      <point x="120" y="50"/>
      <point x="214" y="-12"/>
    </contour>
    <contour>
      <point x="280" y="8" type="qcurve" smooth="yes"/>
      <point x="220" y="8"/>
      <point x="136" y="64"/>
      <point x="88" y="166"/>
      <point x="88" y="246" type="qcurve" smooth="yes"/>
      <point x="88" y="326"/>
      <point x="136" y="428"/>
      <point x="220" y="484"/>
      <point x="280" y="484" type="qcurve" smooth="yes"/>
      <point x="340" y="484"/>
      <point x="424" y="428"/>
      <point x="472" y="326"/>
      <point x="472" y="246" type="qcurve" smooth="yes"/>
      <point x="472" y="166"/>
      <point x="424" y="64"/>
      <point x="340" y="8"/>
    </contour>
  </outline>
</glyph>
<glyph name="ve-cy" format="2">
  <advance width="540"/>
  <unicode hex="0432"/>
  <outline>
    <contour>
      <point x="100" y="0" type="line"/>
      <point x="316" y="0" type="line" smooth="yes"/>
      <point x="392" y="0"/>
      <point x="472" y="66"/>
      <point x="472" y="129" type="qcurve" smooth="yes"/>
      <point x="472" y="180"/>
      <point x="420" y="243"/>
      <point x="374" y="250" type="qcurve"/>
      <point x="411" y="255"/>
      <point x="460" y="323"/>
      <point x="460" y="369" type="qcurve" smooth="yes"/>
      <point x="460" y="428"/>
      <point x="382" y="500"/>
      <point x="316" y="500" type="qcurve" smooth="yes"/>
      <point x="100" y="500" type="line"/>
    </contour>
    <contour>
      <point x="120" y="20" type="line"/>
      <point x="120" y="238" type="line"/>
      <point x="314" y="238" type="line" smooth="yes"/>
      <point x="384" y="238"/>
      <point x="452" y="185"/>
      <point x="452" y="129" type="qcurve" smooth="yes"/>
      <point x="452" y="73"/>
      <point x="384" y="20"/>
      <point x="314" y="20" type="qcurve" smooth="yes"/>
    </contour>
    <contour>
      <point x="120" y="258" type="line"/>
      <point x="120" y="480" type="line"/>
      <point x="314" y="480" type="line" smooth="yes"/>
      <point x="373" y="480"/>
      <point x="440" y="420"/>
      <point x="440" y="369" type="qcurve" smooth="yes"/>
      <point x="440" y="318"/>
      <point x="373" y="258"/>
      <point x="314" y="258" type="qcurve" smooth="yes"/>
    </contour>
  </outline>
</glyph>
<glyph name="ge-cy" format="2">
  <advance width="420"/>
  <unicode hex="0433"/>
  <anchor x="170" y="240" name="center"/>
  <anchor x="230" y="500" name="top"/>
  <outline>
    <contour>
      <point x="100" y="0" type="line"/>
      <point x="120" y="0" type="line"/>
      <point x="120" y="480" type="line"/>
      <point x="380" y="480" type="line"/>
      <point x="380" y="500" type="line"/>
      <point x="100" y="500" type="line"/>
    </contour>
  </outline>
</glyph>
<glyph name="de-cy" format="2">
  <advance width="620"/>
  <unicode hex="0434"/>
  <outline>
    <contour>
      <point x="56" y="-160" type="line"/>
      <point x="76" y="-160" type="line"/>
      <point x="76" y="0" type="line"/>
      <point x="540" y="0" type="line"/>
      <point x="540" y="-160" type="line"/>
      <point x="560" y="-160" type="line"/>
      <point x="560" y="20" type="line"/>
      <point x="476" y="20" type="line"/>
      <point x="476" y="500" type="line"/>
      <point x="168" y="500" type="line"/>
      <point x="164" y="282" type="line" smooth="yes"/>
      <point x="162" y="168"/>
      <point x="148" y="92"/>
      <point x="126" y="38"/>
      <point x="110" y="20" type="qcurve"/>
      <point x="56" y="20" type="line"/>
    </contour>
    <contour>
      <point x="134" y="20" type="line"/>
      <point x="146" y="36"/>
      <point x="168" y="89"/>
      <point x="182" y="167"/>
      <point x="184" y="280" type="qcurve" smooth="yes"/>
      <point x="188" y="480" type="line"/>
      <point x="456" y="480" type="line"/>
      <point x="456" y="20" type="line"/>
    </contour>
  </outline>
</glyph>
<glyph name="zhe-cy" format="2">
  <advance width="792"/>
  <unicode hex="0436"/>
  <anchor x="396" y="500" name="top"/>
  <outline>
    <contour>
      <point x="386" y="0" type="line"/>
      <point x="406" y="0" type="line"/>
      <point x="406" y="500" type="line"/>
      <point x="386" y="500" type="line"/>
    </contour>
    <contour>
      <point x="257" y="248" type="line"/>
      <point x="535" y="248" type="line"/>
      <point x="726" y="0" type="line"/>
      <point x="752" y="0" type="line"/>
      <point x="552" y="260" type="line"/>
      <point x="752" y="500" type="line"/>
      <point x="725" y="500" type="line"/>
      <point x="533" y="268" type="line"/>
      <point x="259" y="268" type="line"/>
      <point x="67" y="500" type="line"/>
      <point x="40" y="500" type="line"/>
      <point x="240" y="260" type="line"/>
      <point x="40" y="0" type="line"/>
      <point x="66" y="0" type="line"/>
    </contour>
  </outline>
</glyph>
<glyph name="ze-cy" format="2">
  <advance width="490"/>
  <unicode hex="0437"/>
  <anchor x="240" y="0" name="bottom"/>
  <anchor x="234" y="500" name="top"/>
  <outline>
    <contour>
      <point x="240" y="-12" type="qcurve" smooth="yes"/>
      <point x="290" y="-12"/>
      <point x="375" y="16"/>
      <point x="422" y="80"/>
      <point x="422" y="128" type="qcurve" smooth="yes"/>
      <point x="422" y="182"/>
      <point x="354" y="246"/>
      <point x="314" y="250" type="qcurve"/>
      <point x="356" y="260"/>
      <point x="410" y="324"/>
      <point x="410" y="374" type="qcurve" smooth="yes"/>
      <point x="410" y="422"/>
      <point x="356" y="484"/>
      <point x="284" y="512"/>
      <point x="234" y="512" type="qcurve" smooth="yes"/>
      <point x="184" y="512"/>
      <point x="108" y="484"/>
      <point x="54" y="418"/>
      <point x="54" y="370" type="qcurve"/>
      <point x="74" y="370" type="line"/>
      <point x="74" y="412"/>
      <point x="120" y="468"/>
      <point x="188" y="492"/>
      <point x="234" y="492" type="qcurve" smooth="yes"/>
      <point x="280" y="492"/>
      <point x="344" y="468"/>
      <point x="390" y="414"/>
      <point x="390" y="374" type="qcurve" smooth="yes"/>
      <point x="390" y="334"/>
      <point x="357" y="290"/>
      <point x="297" y="260"/>
      <point x="250" y="260" type="qcurve" smooth="yes"/>
      <point x="170" y="260" type="line"/>
      <point x="170" y="240" type="line"/>
      <point x="250" y="240" type="line" smooth="yes"/>
      <point x="297" y="240"/>
      <point x="359" y="218"/>
      <point x="402" y="166"/>
      <point x="402" y="128" type="qcurve" smooth="yes"/>
      <point x="402" y="88"/>
      <point x="363" y="32"/>
      <point x="286" y="8"/>
      <point x="240" y="8" type="qcurve" smooth="yes"/>
      <point x="194" y="8"/>
      <point x="116" y="32"/>
      <point x="70" y="88"/>
      <point x="70" y="130" type="qcurve"/>
      <point x="50" y="130" type="line"/>
      <point x="50" y="82"/>
      <point x="104" y="16"/>
      <point x="190" y="-12"/>
    </contour>
  </outline>
</glyph>
<glyph name="ii-cy" format="2">
  <advance width="568"/>
  <unicode hex="0438"/>
  <anchor x="297" y="0" name="bottom"/>
  <anchor x="284" y="500" name="top"/>
  <outline>
    <contour>
      <point x="100" y="0" type="line"/>
      <point x="123" y="0" type="line"/>
      <point x="448" y="470" type="line"/>
      <point x="448" y="0" type="line"/>
      <point x="468" y="0" type="line"/>
      <point x="468" y="500" type="line"/>
      <point x="445" y="500" type="line"/>
      <point x="120" y="30" type="line"/>
      <point x="120" y="500" type="line"/>
      <point x="100" y="500" type="line"/>
    </contour>
  </outline>
</glyph>
<glyph name="ka-cy" format="2">
  <advance width="540"/>
  <unicode hex="043A"/>
  <anchor x="170" y="400" name="center"/>
  <anchor x="256" y="500" name="top"/>
  <outline>
    <contour>
      <point x="100" y="0" type="line"/>
      <point x="120" y="0" type="line"/>
      <point x="120" y="500" type="line"/>
      <point x="100" y="500" type="line"/>
    </contour>
    <contour>
      <point x="474" y="0" type="line"/>
      <point x="500" y="0" type="line"/>
      <point x="292" y="260" type="line"/>
      <point x="266" y="260" type="line"/>
    </contour>
    <contour>
      <point x="266" y="258" type="line"/>
      <point x="292" y="258" type="line"/>
      <point x="500" y="500" type="line"/>
      <point x="474" y="500" type="line"/>
    </contour>
    <contour>
      <point x="110" y="268" type="line"/>
      <point x="110" y="248" type="line"/>
      <point x="284" y="248" type="line"/>
      <point x="284" y="268" type="line"/>
    </contour>
  </outline>
</glyph>
<glyph name="el-cy" format="2">
  <advance width="550"/>
  <unicode hex="043B"/>
  <outline>
    <contour>
      <point x="56" y="0" type="line"/>
      <point x="105" y="0"/>
      <point x="162" y="60"/>
      <point x="188" y="182"/>
      <point x="188" y="322" type="qcurve" smooth="yes"/>
      <point x="188" y="480" type="line"/>
      <point x="430" y="480" type="line"/>
      <point x="430" y="0" type="line"/>
      <point x="450" y="0" type="line"/>
      <point x="450" y="500" type="line"/>
      <point x="167" y="500" type="line"/>
      <point x="167" y="322" type="line" smooth="yes"/>
      <point x="167" y="185"/>
      <point x="142" y="73"/>
      <point x="94" y="20"/>
      <point x="56" y="20" type="qcurve"/>
    </contour>
  </outline>
</glyph>
<glyph name="em-cy" format="2">
  <advance width="700"/>
  <unicode hex="043C"/>
  <outline>
    <contour>
      <point x="100" y="0" type="line"/>
      <point x="120" y="0" type="line"/>
      <point x="120" y="468" type="line"/>
      <point x="342" y="0" type="line"/>
      <point x="358" y="0" type="line"/>
      <point x="580" y="468" type="line"/>
      <point x="580" y="0" type="line"/>
      <point x="600" y="0" type="line"/>
      <point x="600" y="500" type="line"/>
      <point x="574" y="500" type="line"/>
      <point x="350" y="30" type="line"/>
      <point x="126" y="500" type="line"/>
      <point x="100" y="500" type="line"/>
    </contour>
  </outline>
</glyph>
<glyph name="en-cy" format="2">
  <advance width="560"/>
  <unicode hex="043D"/>
  <outline>
    <contour>
      <point x="100" y="0" type="line"/>
      <point x="120" y="0" type="line"/>
      <point x="120" y="250" type="line"/>
      <point x="440" y="250" type="line"/>
      <point x="440" y="0" type="line"/>
      <point x="460" y="0" type="line"/>
      <point x="460" y="500" type="line"/>
      <point x="440" y="500" type="line"/>
      <point x="440" y="270" type="line"/>
      <point x="120" y="270" type="line"/>
      <point x="120" y="500" type="line"/>
      <point x="100" y="500" type="line"/>
    </contour>
  </outline>
</glyph>
<glyph name="pe-cy" format="2">
  <advance width="560"/>
  <unicode hex="043F"/>
  <anchor x="490" y="0" name="bottomright"/>
  <outline>
    <contour>
      <point x="100" y="0" type="line"/>
      <point x="120" y="0" type="line"/>
      <point x="120" y="480" type="line"/>
      <point x="440" y="480" type="line"/>
      <point x="440" y="0" type="line"/>
      <point x="460" y="0" type="line"/>
      <point x="460" y="500" type="line"/>
      <point x="100" y="500" type="line"/>
    </contour>
  </outline>
</glyph>
<glyph name="te-cy" format="2">
  <advance width="470"/>
  <unicode hex="0442"/>
  <outline>
    <contour>
      <point x="225" y="0" type="line"/>
      <point x="245" y="0" type="line"/>
      <point x="245" y="480" type="line"/>
      <point x="430" y="480" type="line"/>
      <point x="430" y="500" type="line"/>
      <point x="40" y="500" type="line"/>
      <point x="40" y="480" type="line"/>
      <point x="225" y="480" type="line"/>
    </contour>
  </outline>
</glyph>
<glyph name="ef-cy" format="2">
  <advance width="780"/>
  <unicode hex="0444"/>
  <outline>
    <contour>
      <point x="380" y="-200" type="line"/>
      <point x="400" y="-200" type="line"/>
      <point x="400" y="0" type="line"/>
      <point x="494" y="0" type="line" smooth="yes"/>
      <point x="602" y="0"/>
      <point x="700" y="91"/>
      <point x="700" y="190" type="qcurve" smooth="yes"/>
      <point x="700" y="310" type="line" smooth="yes"/>
      <point x="700" y="403"/>
      <point x="596" y="500"/>
      <point x="494" y="500" type="qcurve" smooth="yes"/>
      <point x="400" y="500" type="line"/>
      <point x="400" y="680" type="line"/>
      <point x="380" y="680" type="line"/>
      <point x="380" y="500" type="line"/>
      <point x="286" y="500" type="line" smooth="yes"/>
      <point x="185" y="500"/>
      <point x="80" y="402"/>
      <point x="80" y="310" type="qcurve" smooth="yes"/>
      <point x="80" y="190" type="line" smooth="yes"/>
      <point x="80" y="91"/>
      <point x="178" y="0"/>
      <point x="286" y="0" type="qcurve" smooth="yes"/>
      <point x="380" y="0" type="line"/>
    </contour>
    <contour>
      <point x="286" y="20" type="line" smooth="yes"/>
      <point x="188" y="20"/>
      <point x="100" y="101"/>
      <point x="100" y="190" type="qcurve" smooth="yes"/>
      <point x="100" y="310" type="line" smooth="yes"/>
      <point x="100" y="396"/>
      <point x="191" y="480"/>
      <point x="286" y="480" type="qcurve" smooth="yes"/>
      <point x="380" y="480" type="line"/>
      <point x="380" y="20" type="line"/>
    </contour>
    <contour>
      <point x="400" y="20" type="line"/>
      <point x="400" y="480" type="line"/>
      <point x="494" y="480" type="line" smooth="yes"/>
      <point x="590" y="480"/>
      <point x="680" y="396"/>
      <point x="680" y="310" type="qcurve" smooth="yes"/>
      <point x="680" y="190" type="line" smooth="yes"/>
      <point x="680" y="101"/>
      <point x="592" y="20"/>
      <point x="494" y="20" type="qcurve" smooth="yes"/>
    </contour>
  </outline>
</glyph>
<glyph name="tse-cy" format="2">
  <advance width="600"/>
  <unicode hex="0446"/>
  <outline>
    <contour>
      <point x="520" y="-160" type="line"/>
      <point x="540" y="-160" type="line"/>
      <point x="540" y="20" type="line"/>
      <point x="460" y="20" type="line"/>
      <point x="460" y="500" type="line"/>
      <point x="440" y="500" type="line"/>
      <point x="440" y="20" type="line"/>
      <point x="120" y="20" type="line"/>
      <point x="120" y="500" type="line"/>
      <point x="100" y="500" type="line"/>
      <point x="100" y="0" type="line"/>
      <point x="520" y="0" type="line"/>
    </contour>
  </outline>
</glyph>
<glyph name="che-cy" format="2">
  <advance width="520"/>
  <unicode hex="0447"/>
  <anchor x="250" y="500" name="top"/>
  <outline>
    <contour>
      <point x="400" y="0" type="line"/>
      <point x="420" y="0" type="line"/>
      <point x="420" y="500" type="line"/>
      <point x="400" y="500" type="line"/>
      <point x="400" y="232" type="line"/>
      <point x="351" y="219"/>
      <point x="287" y="210"/>
      <point x="250" y="210" type="qcurve" smooth="yes"/>
      <point x="168" y="210"/>
      <point x="88" y="286"/>
      <point x="88" y="366" type="qcurve" smooth="yes"/>
      <point x="88" y="500" type="line"/>
      <point x="68" y="500" type="line"/>
      <point x="68" y="366" type="line" smooth="yes"/>
      <point x="68" y="275"/>
      <point x="146" y="190"/>
      <point x="250" y="190" type="qcurve" smooth="yes"/>
      <point x="289" y="190"/>
      <point x="351" y="199"/>
      <point x="400" y="212" type="qcurve"/>
    </contour>
  </outline>
</glyph>
<glyph name="sha-cy" format="2">
  <advance width="840"/>
  <unicode hex="0448"/>
  <outline>
    <contour>
      <point x="100" y="0" type="line"/>
      <point x="740" y="0" type="line"/>
      <point x="740" y="500" type="line"/>
      <point x="720" y="500" type="line"/>
      <point x="720" y="20" type="line"/>
      <point x="430" y="20" type="line"/>
      <point x="430" y="500" type="line"/>
      <point x="410" y="500" type="line"/>
      <point x="410" y="20" type="line"/>
      <point x="120" y="20" type="line"/>
      <point x="120" y="500" type="line"/>
      <point x="100" y="500" type="line"/>
    </contour>
  </outline>
</glyph>
<glyph name="shcha-cy" format="2">
  <advance width="844"/>
  <unicode hex="0449"/>
  <outline>
    <contour>
      <point x="764" y="-160" type="line"/>
      <point x="784" y="-160" type="line"/>
      <point x="784" y="20" type="line"/>
      <point x="700" y="20" type="line"/>
      <point x="700" y="500" type="line"/>
      <point x="680" y="500" type="line"/>
      <point x="680" y="20" type="line"/>
      <point x="410" y="20" type="line"/>
      <point x="410" y="500" type="line"/>
      <point x="390" y="500" type="line"/>
      <point x="390" y="20" type="line"/>
      <point x="120" y="20" type="line"/>
      <point x="120" y="500" type="line"/>
      <point x="100" y="500" type="line"/>
      <point x="100" y="0" type="line"/>
      <point x="764" y="0" type="line"/>
    </contour>
  </outline>
</glyph>
<glyph name="hardsign-cy" format="2">
  <advance width="580"/>
  <unicode hex="044A"/>
  <anchor x="340" y="0" name="bottom"/>
  <anchor x="340" y="500" name="top"/>
  <outline>
    <contour>
      <point x="20" y="480" type="line"/>
      <point x="180" y="480" type="line"/>
      <point x="180" y="500" type="line"/>
      <point x="20" y="500" type="line"/>
    </contour>
    <component base="softsign-cy" xOffset="70"/>
  </outline>
</glyph>
<glyph name="yeru-cy" format="2">
  <advance width="720"/>
  <unicode hex="044B"/>
  <anchor x="297" y="0" name="bottom"/>
  <anchor x="350" y="500" name="top"/>
  <outline>
    <contour>
      <point x="100" y="0" type="line"/>
      <point x="270" y="0" type="line" smooth="yes"/>
      <point x="330" y="0"/>
      <point x="410" y="30"/>
      <point x="454" y="98"/>
      <point x="454" y="148" type="qcurve" smooth="yes"/>
      <point x="454" y="198"/>
      <point x="410" y="266"/>
      <point x="330" y="296"/>
      <point x="270" y="296" type="qcurve" smooth="yes"/>
      <point x="120" y="296" type="line"/>
      <point x="120" y="500" type="line"/>
      <point x="100" y="500" type="line"/>
    </contour>
    <contour>
      <point x="120" y="20" type="line"/>
      <point x="120" y="276" type="line"/>
      <point x="270" y="276" type="line" smooth="yes"/>
      <point x="322" y="276"/>
      <point x="396" y="250"/>
      <point x="434" y="190"/>
      <point x="434" y="148" type="qcurve" smooth="yes"/>
      <point x="434" y="106"/>
      <point x="396" y="46"/>
      <point x="322" y="20"/>
      <point x="270" y="20" type="qcurve" smooth="yes"/>
    </contour>
    <contour>
      <point x="600" y="0" type="line"/>
      <point x="620" y="0" type="line"/>
      <point x="620" y="500" type="line"/>
      <point x="600" y="500" type="line"/>
    </contour>
  </outline>
</glyph>
<glyph name="softsign-cy" format="2">
  <advance width="510"/>
  <unicode hex="044C"/>
  <anchor x="270" y="0" name="bottom"/>
  <anchor x="270" y="500" name="top"/>
  <outline>
    <contour>
      <point x="100" y="0" type="line"/>
      <point x="270" y="0" type="line" smooth="yes"/>
      <point x="330" y="0"/>
      <point x="410" y="30"/>
      <point x="454" y="98"/>
      <point x="454" y="148" type="qcurve" smooth="yes"/>
      <point x="454" y="198"/>
      <point x="410" y="266"/>
      <point x="330" y="296"/>
      <point x="270" y="296" type="qcurve" smooth="yes"/>
      <point x="120" y="296" type="line"/>
      <point x="120" y="500" type="line"/>
      <point x="100" y="500" type="line"/>
    </contour>
    <contour>
      <point x="120" y="20" type="line"/>
      <point x="120" y="276" type="line"/>
      <point x="270" y="276" type="line" smooth="yes"/>
      <point x="322" y="276"/>
      <point x="396" y="250"/>
      <point x="434" y="190"/>
      <point x="434" y="148" type="qcurve" smooth="yes"/>
      <point x="434" y="106"/>
      <point x="396" y="46"/>
      <point x="322" y="20"/>
      <point x="270" y="20" type="qcurve" smooth="yes"/>
    </contour>
  </outline>
</glyph>
<glyph name="yu-cy" format="2">
  <advance width="780"/>
  <unicode hex="044E"/>
  <anchor x="380" y="0" name="bottom"/>
  <anchor x="588" y="10" name="ogonek"/>
  <anchor x="380" y="500" name="top"/>
  <outline>
    <contour>
      <point x="100" y="0" type="line"/>
      <point x="120" y="0" type="line"/>
      <point x="120" y="246" type="line"/>
      <point x="300" y="246" type="line"/>
      <point x="300" y="266" type="line"/>
      <point x="120" y="266" type="line"/>
      <point x="120" y="500" type="line"/>
      <point x="100" y="500" type="line"/>
    </contour>
    <component base="o" xOffset="220"/>
  </outline>
</glyph>
<glyph name="ya-cy" format="2">
  <advance width="540"/>
  <unicode hex="044F"/>
  <anchor x="276" y="500" name="top"/>
  <outline>
    <contour>
      <point x="64" y="0" type="line"/>
      <point x="87" y="0" type="line"/>
      <point x="207" y="226" type="line"/>
      <point x="420" y="226" type="line"/>
      <point x="420" y="0" type="line"/>
      <point x="440" y="0" type="line"/>
      <point x="440" y="500" type="line"/>
      <point x="202" y="500" type="line" smooth="yes"/>
      <point x="136" y="500"/>
      <point x="64" y="432"/>
      <point x="64" y="368" type="qcurve" smooth="yes"/>
      <point x="64" y="306"/>
      <point x="128" y="232"/>
      <point x="184" y="228" type="qcurve"/>
    </contour>
    <contour>
      <point x="216" y="246" type="line" smooth="yes"/>
      <point x="86" y="247"/>
      <point x="84" y="368" type="qcurve" smooth="yes"/>
      <point x="82" y="480"/>
      <point x="206" y="480" type="qcurve" smooth="yes"/>
      <point x="420" y="480" type="line"/>
      <point x="420" y="246" type="line"/>
    </contour>
  </outline>
</glyph>
<glyph name="e-cy" format="2">
  <advance width="500"/>
  <unicode hex="0454"/>
  <anchor x="276" y="0" name="bottom"/>
  <anchor x="234" y="500" name="top"/>
  <outline>
    <contour>
      <point x="76" y="244" type="line"/>
      <point x="340" y="244" type="line"/>
      <point x="340" y="264" type="line"/>
      <point x="76" y="264" type="line"/>
    </contour>
    <component base="c"/>
  </outline>
</glyph>
<glyph name="lje-cy" format="2">
  <advance width="800"/>
  <unicode hex="0459"/>
  <outline>
    <contour>
      <point x="434" y="500" type="line"/>
      <point x="167" y="500" type="line"/>
      <point x="167" y="322" type="line" smooth="yes"/>
      <point x="167" y="185"/>
      <point x="142" y="73"/>
      <point x="94" y="20"/>
      <point x="56" y="20" type="qcurve"/>
      <point x="56" y="0" type="line"/>
      <point x="105" y="0"/>
      <point x="162" y="60"/>
      <point x="188" y="182"/>
      <point x="188" y="322" type="qcurve" smooth="yes"/>
      <point x="188" y="480" type="line"/>
      <point x="414" y="480" type="line"/>
      <point x="414" y="0" type="line"/>
      <point x="558" y="0" type="line" smooth="yes"/>
      <point x="645" y="0"/>
      <point x="744" y="82"/>
      <point x="744" y="155" type="qcurve" smooth="yes"/>
      <point x="744" y="228"/>
      <point x="645" y="310"/>
      <point x="558" y="310" type="qcurve" smooth="yes"/>
      <point x="434" y="310" type="line"/>
    </contour>
    <contour>
      <point x="434" y="20" type="line"/>
      <point x="434" y="290" type="line"/>
      <point x="558" y="290" type="line" smooth="yes"/>
      <point x="637" y="290"/>
      <point x="724" y="220"/>
      <point x="724" y="155" type="qcurve" smooth="yes"/>
      <point x="724" y="90"/>
      <point x="637" y="20"/>
      <point x="558" y="20" type="qcurve" smooth="yes"/>
    </contour>
  </outline>
</glyph>
<glyph name="nje-cy" format="2">
  <advance width="820"/>
  <unicode hex="045A"/>
  <outline>
    <contour>
      <point x="100" y="0" type="line"/>
      <point x="120" y="0" type="line"/>
      <point x="120" y="264" type="line"/>
      <point x="428" y="264" type="line"/>
      <point x="428" y="0" type="line"/>
      <point x="588" y="0" type="line" smooth="yes"/>
      <point x="646" y="0"/>
      <point x="722" y="32"/>
      <point x="764" y="98"/>
      <point x="764" y="142" type="qcurve" smooth="yes"/>
      <point x="764" y="186"/>
      <point x="722" y="252"/>
      <point x="646" y="284"/>
      <point x="588" y="284" type="qcurve" smooth="yes"/>
      <point x="448" y="284" type="line"/>
      <point x="448" y="500" type="line"/>
      <point x="428" y="500" type="line"/>
      <point x="428" y="284" type="line"/>
      <point x="120" y="284" type="line"/>
      <point x="120" y="500" type="line"/>
      <point x="100" y="500" type="line"/>
    </contour>
    <contour>
      <point x="448" y="20" type="line"/>
      <point x="448" y="264" type="line"/>
      <point x="586" y="264" type="line" smooth="yes"/>
      <point x="638" y="264"/>
      <point x="708" y="236"/>
      <point x="744" y="178"/>
      <point x="744" y="142" type="qcurve" smooth="yes"/>
      <point x="744" y="106"/>
      <point x="708" y="48"/>
      <point x="638" y="20"/>
      <point x="586" y="20" type="qcurve" smooth="yes"/>
    </contour>
  </outline>
</glyph>
<glyph name="tshe-cy" format="2">
  <advance width="600"/>
  <unicode hex="045B"/>
  <outline>
    <contour>
      <point x="140" y="0" type="line"/>
      <point x="160" y="0" type="line"/>
      <point x="160" y="202" type="line" smooth="yes"/>
      <point x="160" y="278"/>
      <point x="214" y="360"/>
      <point x="287" y="392"/>
      <point x="330" y="392" type="qcurve" smooth="yes"/>
      <point x="379" y="392"/>
      <point x="447" y="356"/>
      <point x="482" y="286"/>
      <point x="482" y="222" type="qcurve" smooth="yes"/>
      <point x="482" y="0" type="line"/>
      <point x="502" y="0" type="line"/>
      <point x="502" y="226" type="line" smooth="yes"/>
      <point x="502" y="296"/>
      <point x="462" y="371"/>
      <point x="386" y="412"/>
      <point x="330" y="412" type="qcurve" smooth="yes"/>
      <point x="279" y="412"/>
      <point x="205" y="376"/>
      <point x="166" y="324"/>
      <point x="160" y="300" type="qcurve"/>
      <point x="160" y="720" type="line"/>
      <point x="140" y="720" type="line"/>
    </contour>
    <contour>
      <point x="20" y="500" type="line"/>
      <point x="420" y="500" type="line"/>
      <point x="420" y="520" type="line"/>
      <point x="20" y="520" type="line"/>
    </contour>
  </outline>
</glyph>
<glyph name="dzhe-cy" format="2">
  <advance width="560"/>
  <unicode hex="045F"/>
  <outline>
    <contour>
      <point x="270" y="-160" type="line"/>
      <point x="290" y="-160" type="line"/>
      <point x="290" y="0" type="line"/>
      <point x="460" y="0" type="line"/>
      <point x="460" y="500" type="line"/>
      <point x="440" y="500" type="line"/>
      <point x="440" y="20" type="line"/>
      <point x="120" y="20" type="line"/>
      <point x="120" y="500" type="line"/>
      <point x="100" y="500" type="line"/>
      <point x="100" y="0" type="line"/>
      <point x="270" y="0" type="line"/>
    </contour>
  </outline>
</glyph>
<glyph name="Yat-cy" format="2">
  <advance width="760"/>
  <unicode hex="0462"/>
  <outline>
    <contour>
      <point x="264" y="0" type="line"/>
      <point x="462" y="0" type="line" smooth="yes"/>
      <point x="538" y="0"/>
      <point x="644" y="50"/>
      <point x="706" y="146"/>
      <point x="706" y="212" type="qcurve" smooth="yes"/>
      <point x="706" y="278"/>
      <point x="644" y="374"/>
      <point x="538" y="424"/>
      <point x="462" y="424" type="qcurve" smooth="yes"/>
      <point x="284" y="424" type="line"/>
      <point x="284" y="800" type="line"/>
      <point x="264" y="800" type="line"/>
    </contour>
    <contour>
      <point x="284" y="20" type="line"/>
      <point x="284" y="404" type="line"/>
      <point x="460" y="404" type="line" smooth="yes"/>
      <point x="530" y="404"/>
      <point x="628" y="360"/>
      <point x="686" y="272"/>
      <point x="686" y="212" type="qcurve" smooth="yes"/>
      <point x="686" y="152"/>
      <point x="628" y="64"/>
      <point x="530" y="20"/>
      <point x="460" y="20" type="qcurve" smooth="yes"/>
    </contour>
    <contour>
      <point x="46" y="610" type="line"/>
      <point x="540" y="610" type="line"/>
      <point x="540" y="630" type="line"/>
      <point x="46" y="630" type="line"/>
    </contour>
  </outline>
</glyph>
<glyph name="yat-cy" format="2">
  <advance width="580"/>
  <unicode hex="0463"/>
  <outline>
    <contour>
      <point x="180" y="0" type="line"/>
      <point x="350" y="0" type="line" smooth="yes"/>
      <point x="435" y="0"/>
      <point x="524" y="78"/>
      <point x="524" y="154" type="qcurve" smooth="yes"/>
      <point x="524" y="293"/>
      <point x="350" y="316" type="qcurve" smooth="yes"/>
      <point x="200" y="336" type="line"/>
      <point x="200" y="480" type="line"/>
      <point x="360" y="480" type="line"/>
      <point x="360" y="500" type="line"/>
      <point x="200" y="500" type="line"/>
      <point x="200" y="720" type="line"/>
      <point x="180" y="720" type="line"/>
      <point x="180" y="500" type="line"/>
      <point x="40" y="500" type="line"/>
      <point x="40" y="480" type="line"/>
      <point x="180" y="480" type="line"/>
    </contour>
    <contour>
      <point x="200" y="20" type="line"/>
      <point x="200" y="316" type="line"/>
      <point x="348" y="296" type="line" smooth="yes"/>
      <point x="427" y="286"/>
      <point x="504" y="216"/>
      <point x="504" y="154" type="qcurve" smooth="yes"/>
      <point x="504" y="88"/>
      <point x="424" y="20"/>
      <point x="348" y="20" type="qcurve" smooth="yes"/>
    </contour>
  </outline>
</glyph>
<glyph name="Fita-cy" format="2">
  <advance width="760"/>
  <unicode hex="0472"/>
  <anchor x="380" y="0" name="bottom"/>
  <anchor x="477" y="10" name="ogonek"/>
  <anchor x="380" y="720" name="top"/>
  <anchor x="10" y="720" name="topleft"/>
  <outline>
    <contour>
      <point x="526" y="316" type="qcurve" smooth="yes"/>
      <point x="558" y="316"/>
      <point x="638" y="335"/>
      <point x="676" y="350" type="qcurve"/>
      <point x="676" y="370" type="line"/>
      <point x="638" y="355"/>
      <point x="558" y="336"/>
      <point x="526" y="336" type="qcurve" smooth="yes"/>
      <point x="491" y="336"/>
      <point x="429" y="351"/>
      <point x="339" y="387"/>
      <point x="275" y="404"/>
      <point x="234" y="404" type="qcurve" smooth="yes"/>
      <point x="202" y="404"/>
      <point x="122" y="385"/>
      <point x="84" y="370" type="qcurve"/>
      <point x="84" y="350" type="line"/>
      <point x="122" y="365"/>
      <point x="202" y="384"/>
      <point x="234" y="384" type="qcurve" smooth="yes"/>
      <point x="270" y="384"/>
      <point x="331" y="369"/>
      <point x="421" y="333"/>
      <point x="486" y="316"/>
    </contour>
    <component base="O"/>
  </outline>
</glyph>
<glyph name="fita-cy" format="2">
  <advance width="560"/>
  <unicode hex="0473"/>
  <anchor x="280" y="0" name="bottom"/>
  <anchor x="368" y="10" name="ogonek"/>
  <anchor x="280" y="500" name="top"/>
  <outline>
    <contour>
      <point x="376" y="216" type="qcurve" smooth="yes"/>
      <point x="408" y="216"/>
      <point x="461" y="229"/>
      <point x="478" y="240" type="qcurve"/>
      <point x="478" y="260" type="line"/>
      <point x="461" y="249"/>
      <point x="408" y="236"/>
      <point x="376" y="236" type="qcurve" smooth="yes"/>
      <point x="353" y="236"/>
      <point x="313" y="248"/>
      <point x="253" y="272"/>
      <point x="210" y="284"/>
      <point x="184" y="284" type="qcurve" smooth="yes"/>
      <point x="152" y="284"/>
      <point x="99" y="271"/>
      <point x="82" y="260" type="qcurve"/>
      <point x="82" y="240" type="line"/>
      <point x="99" y="251"/>
      <point x="152" y="264"/>
      <point x="184" y="264" type="qcurve" smooth="yes"/>
      <point x="205" y="264"/>
      <point x="241" y="254"/>
      <point x="307" y="229"/>
      <point x="352" y="216"/>
    </contour>
    <component base="o"/>
  </outline>
</glyph>
<glyph name="Izhitsa-cy" format="2">
  <advance width="740"/>
  <unicode hex="0474"/>
  <outline>
    <contour>
      <point x="316" y="0" type="line"/>
      <point x="344" y="0" type="line"/>
      <point x="553" y="599" type="line" smooth="yes"/>
      <point x="567" y="640"/>
      <point x="591" y="680"/>
      <point x="629" y="700"/>
      <point x="661" y="700" type="qcurve" smooth="yes"/>
      <point x="692" y="700" type="line"/>
      <point x="692" y="720" type="line"/>
      <point x="661" y="720" type="line" smooth="yes"/>
      <point x="621" y="720"/>
      <point x="574" y="695"/>
      <point x="548" y="649"/>
      <point x="534" y="608" type="qcurve" smooth="yes"/>
      <point x="330" y="24" type="line"/>
      <point x="70" y="720" type="line"/>
      <point x="48" y="720" type="line"/>
    </contour>
  </outline>
</glyph>
<glyph name="izhitsa-cy" format="2">
  <advance width="560"/>
  <unicode hex="0475"/>
  <outline>
    <contour>
      <point x="232" y="0" type="line"/>
      <point x="258" y="0" type="line"/>
      <point x="390" y="390" type="line" smooth="yes"/>
      <point x="419" y="480"/>
      <point x="488" y="480" type="qcurve" smooth="yes"/>
      <point x="550" y="480" type="line"/>
      <point x="550" y="500" type="line"/>
      <point x="488" y="500" type="line" smooth="yes"/>
      <point x="405" y="500"/>
      <point x="370" y="396" type="qcurve" smooth="yes"/>
      <point x="245" y="28" type="line"/>
      <point x="66" y="500" type="line"/>
      <point x="44" y="500" type="line"/>
    </contour>
  </outline>
</glyph>
<glyph name="Geupturn-cy" format="2">
  <advance width="540"/>
  <unicode hex="0490"/>
  <outline>
    <contour>
      <point x="104" y="0" type="line"/>
      <point x="124" y="0" type="line"/>
      <point x="124" y="700" type="line"/>
      <point x="397" y="700" type="line" smooth="yes"/>
      <point x="433" y="700"/>
      <point x="478" y="716"/>
      <point x="500" y="756"/>
      <point x="500" y="790" type="qcurve" smooth="yes"/>
      <point x="500" y="800" type="line"/>
      <point x="480" y="800" type="line"/>
      <point x="480" y="790" type="line" smooth="yes"/>
      <point x="480" y="762"/>
      <point x="462" y="730"/>
      <point x="427" y="720"/>
      <point x="397" y="720" type="qcurve" smooth="yes"/>
      <point x="104" y="720" type="line"/>
    </contour>
  </outline>
</glyph>
<glyph name="geupturn-cy" format="2">
  <advance width="444"/>
  <unicode hex="0491"/>
  <outline>
    <contour>
      <point x="100" y="0" type="line"/>
      <point x="120" y="0" type="line"/>
      <point x="120" y="480" type="line"/>
      <point x="282" y="480" type="line" smooth="yes"/>
      <point x="404" y="480"/>
      <point x="404" y="620" type="qcurve" smooth="yes"/>
      <point x="404" y="640" type="line"/>
      <point x="384" y="640" type="line"/>
      <point x="384" y="620" type="line" smooth="yes"/>
      <point x="384" y="500"/>
      <point x="282" y="500" type="qcurve" smooth="yes"/>
      <point x="100" y="500" type="line"/>
    </contour>
  </outline>
</glyph>
<glyph name="Zhedescender-cy" format="2">
  <advance width="1050"/>
  <unicode hex="0496"/>
  <anchor x="501" y="0" name="bottom"/>
  <anchor x="501" y="720" name="top"/>
  <outline>
    <contour>
      <point x="976" y="-160" type="line"/>
      <point x="996" y="-160" type="line"/>
      <point x="996" y="20" type="line"/>
      <point x="930" y="20" type="line"/>
      <point x="930" y="0" type="line"/>
      <point x="976" y="0" type="line"/>
    </contour>
    <component base="Zhe-cy"/>
  </outline>
</glyph>
<glyph name="zhedescender-cy" format="2">
  <advance width="840"/>
  <unicode hex="0497"/>
  <anchor x="396" y="500" name="top"/>
  <outline>
    <contour>
      <point x="760" y="-160" type="line"/>
      <point x="780" y="-160" type="line"/>
      <point x="780" y="20" type="line"/>
      <point x="730" y="20" type="line"/>
      <point x="730" y="0" type="line"/>
      <point x="760" y="0" type="line"/>
    </contour>
    <component base="zhe-cy"/>
  </outline>
</glyph>
<glyph name="Kadescender-cy" format="2">
  <advance width="730"/>
  <unicode hex="049A"/>
  <anchor x="160" y="580" name="center"/>
  <anchor x="320" y="720" name="top"/>
  <outline>
    <contour>
      <point x="656" y="-160" type="line"/>
      <point x="676" y="-160" type="line"/>
      <point x="676" y="20" type="line"/>
      <point x="604" y="20" type="line"/>
      <point x="604" y="0" type="line"/>
      <point x="656" y="0" type="line"/>
    </contour>
    <component base="Ka-cy"/>
  </outline>
</glyph>
<glyph name="kadescender-cy" format="2">
  <advance width="580"/>
  <unicode hex="049B"/>
  <anchor x="170" y="400" name="center"/>
  <anchor x="256" y="500" name="top"/>
  <outline>
    <contour>
      <point x="500" y="-160" type="line"/>
      <point x="520" y="-160" type="line"/>
      <point x="520" y="20" type="line"/>
      <point x="468" y="20" type="line"/>
      <point x="468" y="0" type="line"/>
      <point x="500" y="0" type="line"/>
    </contour>
    <component base="ka-cy"/>
  </outline>
</glyph>
<glyph name="Kaverticalstroke-cy" format="2">
  <advance width="750"/>
  <unicode hex="049C"/>
  <outline>
    <contour>
      <point x="671" y="0" type="line"/>
      <point x="696" y="0" type="line"/>
      <point x="447" y="368" type="line"/>
      <point x="682" y="720" type="line"/>
      <point x="657" y="720" type="line"/>
      <point x="428" y="376" type="line"/>
      <point x="116" y="376" type="line"/>
      <point x="116" y="356" type="line"/>
      <point x="430" y="356" type="line"/>
    </contour>
    <contour>
      <point x="104" y="0" type="line"/>
      <point x="124" y="0" type="line"/>
      <point x="124" y="720" type="line"/>
      <point x="104" y="720" type="line"/>
    </contour>
    <contour>
      <point x="300" y="150" type="line"/>
      <point x="320" y="150" type="line"/>
      <point x="320" y="590" type="line"/>
      <point x="300" y="590" type="line"/>
    </contour>
  </outline>
</glyph>
<glyph name="kaverticalstroke-cy" format="2">
  <advance width="600"/>
  <unicode hex="049D"/>
  <outline>
    <contour>
      <point x="100" y="0" type="line"/>
      <point x="120" y="0" type="line"/>
      <point x="120" y="244" type="line"/>
      <point x="250" y="244" type="line"/>
      <point x="250" y="100" type="line"/>
      <point x="270" y="100" type="line"/>
      <point x="270" y="244" type="line"/>
      <point x="355" y="244" type="line"/>
      <point x="538" y="0" type="line"/>
      <point x="562" y="0" type="line"/>
      <point x="372" y="256" type="line"/>
      <point x="550" y="500" type="line"/>
      <point x="526" y="500" type="line"/>
      <point x="353" y="264" type="line"/>
      <point x="270" y="264" type="line"/>
      <point x="270" y="420" type="line"/>
      <point x="250" y="420" type="line"/>
      <point x="250" y="264" type="line"/>
      <point x="120" y="264" type="line"/>
      <point x="120" y="500" type="line"/>
      <point x="100" y="500" type="line"/>
    </contour>
  </outline>
</glyph>
<glyph name="Kabashkir-cy" format="2">
  <advance width="810"/>
  <unicode hex="04A0"/>
  <anchor x="450" y="720" name="top"/>
  <outline>
    <contour>
      <point x="48" y="700" type="line"/>
      <point x="234" y="700" type="line"/>
      <point x="234" y="0" type="line"/>
      <point x="254" y="0" type="line"/>
      <point x="254" y="360" type="line"/>
      <point x="498" y="360" type="line"/>
      <point x="498" y="380" type="line"/>
      <point x="254" y="380" type="line"/>
      <point x="254" y="720" type="line"/>
      <point x="48" y="720" type="line"/>
    </contour>
    <contour>
      <point x="730" y="0" type="line"/>
      <point x="756" y="0" type="line"/>
      <point x="508" y="370" type="line"/>
      <point x="482" y="370" type="line"/>
    </contour>
    <contour>
      <point x="482" y="366" type="line"/>
      <point x="508" y="366" type="line"/>
      <point x="756" y="720" type="line"/>
      <point x="730" y="720" type="line"/>
    </contour>
  </outline>
</glyph>
<glyph name="kabashkir-cy" format="2">
  <advance width="620"/>
  <unicode hex="04A1"/>
  <anchor x="334" y="500" name="top"/>
  <outline>
    <contour>
      <point x="180" y="0" type="line"/>
      <point x="200" y="0" type="line"/>
      <point x="200" y="500" type="line"/>
      <point x="36" y="500" type="line"/>
      <point x="36" y="480" type="line"/>
      <point x="180" y="480" type="line"/>
    </contour>
    <contour>
      <point x="554" y="0" type="line"/>
      <point x="580" y="0" type="line"/>
      <point x="372" y="260" type="line"/>
      <point x="346" y="260" type="line"/>
    </contour>
    <contour>
      <point x="346" y="258" type="line"/>
      <point x="372" y="258" type="line"/>
      <point x="580" y="500" type="line"/>
      <point x="554" y="500" type="line"/>
    </contour>
    <contour>
      <point x="190" y="268" type="line"/>
      <point x="190" y="248" type="line"/>
      <point x="364" y="248" type="line"/>
      <point x="364" y="268" type="line"/>
    </contour>
  </outline>
</glyph>
<glyph name="Endescender-cy" format="2">
  <advance width="740"/>
  <unicode hex="04A2"/>
  <anchor x="340" y="0" name="bottom"/>
  <anchor x="340" y="720" name="top"/>
  <outline>
    <contour>
      <point x="666" y="-160" type="line"/>
      <point x="686" y="-160" type="line"/>
      <point x="686" y="20" type="line"/>
      <point x="568" y="20" type="line"/>
      <point x="568" y="0" type="line"/>
      <point x="666" y="0" type="line"/>
    </contour>
    <component base="H"/>
  </outline>
</glyph>
<glyph name="endescender-cy" format="2">
  <advance width="600"/>
  <unicode hex="04A3"/>
  <outline>
    <contour>
      <point x="520" y="-160" type="line"/>
      <point x="540" y="-160" type="line"/>
      <point x="540" y="20" type="line"/>
      <point x="440" y="20" type="line"/>
      <point x="440" y="0" type="line"/>
      <point x="520" y="0" type="line"/>
    </contour>
    <component base="en-cy"/>
  </outline>
</glyph>
<glyph name="EnGe-cy" format="2">
  <advance width="940"/>
  <unicode hex="04A4"/>
  <anchor x="700" y="720" name="top"/>
  <anchor x="766" y="360" name="dot"/>
  <anchor x="560" y="0" name="bottom"/>
  <anchor x="810" y="0" name="bottomright"/>
  <anchor x="600" y="360" name="center"/>
  <outline>
    <contour>
      <point x="104" y="0" type="line"/>
      <point x="124" y="0" type="line"/>
      <point x="124" y="360" type="line"/>
      <point x="534" y="360" type="line"/>
      <point x="534" y="380" type="line"/>
      <point x="124" y="380" type="line"/>
      <point x="124" y="720" type="line"/>
      <point x="104" y="720" type="line"/>
    </contour>
    <component base="Ge-cy" xOffset="420"/>
  </outline>
</glyph>
<glyph name="enge-cy" format="2">
  <advance width="720"/>
  <unicode hex="04A5"/>
  <anchor x="470" y="240" name="center"/>
  <anchor x="530" y="500" name="top"/>
  <anchor x="398" y="0" name="bottomright"/>
  <outline>
    <contour>
      <point x="100" y="0" type="line"/>
      <point x="120" y="0" type="line"/>
      <point x="120" y="250" type="line"/>
      <point x="410" y="250" type="line"/>
      <point x="410" y="270" type="line"/>
      <point x="120" y="270" type="line"/>
      <point x="120" y="500" type="line"/>
      <point x="100" y="500" type="line"/>
    </contour>
    <component base="ge-cy" xOffset="300"/>
  </outline>
</glyph>
<glyph name="Pemiddlehook-cy" format="2">
  <advance width="1034"/>
  <unicode hex="04A6"/>
  <outline>
    <contour>
      <point x="104" y="0" type="line"/>
      <point x="124" y="0" type="line"/>
      <point x="124" y="700" type="line"/>
      <point x="508" y="700" type="line"/>
      <point x="508" y="0" type="line"/>
      <point x="528" y="0" type="line"/>
      <point x="528" y="720" type="line"/>
      <point x="104" y="720" type="line"/>
    </contour>
    <component base="paunch-1" xOffset="508"/>
  </outline>
</glyph>
<glyph name="pemiddlehook-cy" format="2">
  <advance width="846"/>
  <unicode hex="04A7"/>
  <outline>
    <contour>
      <point x="100" y="0" type="line"/>
      <point x="120" y="0" type="line"/>
      <point x="120" y="480" type="line"/>
      <point x="400" y="480" type="line"/>
      <point x="400" y="0" type="line"/>
      <point x="420" y="0" type="line"/>
      <point x="420" y="500" type="line"/>
      <point x="100" y="500" type="line"/>
    </contour>
    <component base="paunch-2" xOffset="400"/>
  </outline>
</glyph>
